<svg width="19" height="24" viewBox="0 0 19 24" fill="none" xmlns="http://www.w3.org/2000/svg">
<path fill-rule="evenodd" clip-rule="evenodd" d="M10.4365 2.01909C11.9611 0.00977794 14.0805 0 14.0805 0C14.0805 0 14.3957 1.88908 12.8812 3.70888C11.2641 5.65207 9.42601 5.33412 9.42601 5.33412C9.42601 5.33412 9.08087 3.80592 10.4365 2.01909V2.01909ZM9.61991 6.65739C10.4042 6.65739 11.8598 5.57932 13.7544 5.57932C17.0157 5.57932 18.2987 7.89996 18.2987 7.89996C18.2987 7.89996 15.7894 9.18288 15.7894 12.2959C15.7894 15.8076 18.9153 17.018 18.9153 17.018C18.9153 17.018 16.7302 23.1682 13.7787 23.1682C12.4231 23.1682 11.3692 22.2547 9.94085 22.2547C8.48532 22.2547 7.04089 23.2023 6.10004 23.2023C3.40493 23.2024 0 17.3681 0 12.6785C0 8.06445 2.88205 5.64395 5.58528 5.64395C7.34261 5.64395 8.70632 6.65739 9.61991 6.65739V6.65739Z" fill="#8C98A4"/>
</svg>
