<svg width="60" height="21" viewBox="0 0 60 21" fill="none" xmlns="http://www.w3.org/2000/svg">
<path d="M14.6221 7.60771H7.66654V9.65863H12.6127C12.3654 12.5486 9.95413 13.8226 7.69745 13.8226C4.79159 13.8226 2.25668 11.5231 2.25668 8.32243C2.25668 5.18391 4.66793 2.7601 7.69745 2.7601C10.0469 2.7601 11.4071 4.25167 11.4071 4.25167L12.8291 2.7601C12.8291 2.7601 10.9743 0.709182 7.60471 0.709182C3.30774 0.678108 0 4.31382 0 8.26028C0 12.1135 3.12226 15.8735 7.72836 15.8735C11.778 15.8735 14.7457 13.1079 14.7457 8.97499C14.7457 8.10491 14.6221 7.60771 14.6221 7.60771V7.60771Z" fill="#8C98A4"/>
<path fill-rule="evenodd" clip-rule="evenodd" d="M15.3948 10.9338C15.3948 8.32354 17.4351 6.08618 20.2792 6.08618C22.6286 6.08618 25.1635 7.7642 25.1944 10.9959C25.1944 13.8548 23.0305 15.8746 20.341 15.8746C17.3733 15.8746 15.3948 13.6062 15.3948 10.9338ZM23.0304 10.9954C23.0304 9.19304 21.7011 8.04329 20.31 8.04329C18.7334 8.04329 17.5278 9.28627 17.5587 10.9643C17.5587 12.7045 18.7643 13.9474 20.31 13.9474C21.732 13.9474 23.0304 12.7977 23.0304 10.9954Z" fill="#8C98A4"/>
<path fill-rule="evenodd" clip-rule="evenodd" d="M26.0291 10.9338C26.0291 8.32354 28.0693 6.08618 30.9134 6.08618C33.2628 6.08618 35.7977 7.7642 35.8286 10.9959C35.8286 13.8548 33.6647 15.8746 30.9752 15.8746C28.0075 15.8746 26.0291 13.6062 26.0291 10.9338ZM33.665 10.9954C33.665 9.19304 32.3357 8.04329 30.9446 8.04329C29.368 8.04329 28.1624 9.28627 28.1933 10.9643C28.1933 12.7045 29.399 13.9474 30.9446 13.9474C32.3667 13.9474 33.665 12.7977 33.665 10.9954Z" fill="#8C98A4"/>
<path fill-rule="evenodd" clip-rule="evenodd" d="M36.6633 10.9949C36.6633 8.41572 38.7036 6.11621 41.3312 6.11621C42.475 6.11621 43.3406 6.55125 43.897 7.23489V6.39588H45.9373V15.19C45.9373 18.6392 43.9588 20.2862 41.3621 20.2862C38.9818 20.2862 37.6525 18.8257 37.0033 17.4273L38.889 16.6505C39.1673 17.2719 39.9092 18.3906 41.393 18.3906C42.9387 18.3906 43.9588 17.3652 43.9588 15.6871V14.7238C43.3715 15.3764 42.6605 15.9047 41.2694 15.9047C39.0436 15.9047 36.6633 13.9159 36.6633 10.9949ZM44.114 11.0272C44.114 9.1627 42.7847 8.04402 41.5172 8.04402C40.157 8.04402 38.8278 9.13163 38.7969 11.0582C38.7969 12.8295 40.0952 13.9792 41.4863 13.9792C42.8156 13.9792 44.114 12.9538 44.114 11.0272Z" fill="#8C98A4"/>
<path fill-rule="evenodd" clip-rule="evenodd" d="M50.5436 10.9649C50.5436 8.04387 52.6148 6.08618 55.0879 6.08618C57.0045 6.08618 58.4574 7.39131 59.1066 8.88288L59.4467 9.69082L52.9239 12.4254C53.3258 13.1712 53.9441 13.9169 55.3043 13.9169C56.5099 13.9169 57.2518 13.2644 57.6846 12.5807L59.3848 13.7305C58.6429 14.7249 57.3445 15.8746 55.3043 15.8746C52.8621 15.8746 50.5436 14.0412 50.5436 10.9649ZM56.9737 9.03785C56.6646 8.44743 56.0463 7.98131 55.1498 7.98131C53.7587 7.98131 52.3985 9.44181 52.6459 10.8712L56.9737 9.03785Z" fill="#8C98A4"/>
<path d="M47.4519 15.5937H49.585V1.17517H47.4519V15.5937Z" fill="#8C98A4"/>
</svg>
