<svg width="55" height="13" viewBox="0 0 55 13" fill="none" xmlns="http://www.w3.org/2000/svg">
<path d="M8.31678 3.71916L8.26712 5.29563L4.15839 9.76434C5.87139 9.76434 6.96375 9.75193 7.5844 9.71469C7.3982 10.5588 7.24925 11.2539 7.10029 12.2966C6.28103 12.2221 4.99006 12.2097 3.6991 12.2097C2.25918 12.2097 1.00546 12.2221 0 12.2966L0.0372397 10.7077L4.14597 6.26385C2.34608 6.26385 1.68818 6.27626 0.943395 6.30109C1.10477 5.50665 1.2289 4.62532 1.34061 3.74399C2.6564 3.76881 3.17775 3.79364 4.86593 3.79364C6.4424 3.79364 7.32373 3.76881 8.31678 3.71916ZM11.2339 8.65957C11.2339 9.71469 11.5814 10.2485 12.1772 10.2485C12.9717 10.2485 13.5923 8.9699 13.5923 7.40585C13.5923 6.33833 13.2448 5.81698 12.6738 5.81698C11.8793 5.81698 11.2339 7.08311 11.2339 8.65957ZM16.6335 7.28172C16.6335 10.1491 14.6102 12.5449 11.9166 12.5449C9.50843 12.5449 8.26712 10.9063 8.26712 8.75888C8.26712 5.90387 10.3153 3.52055 12.9841 3.52055C15.4295 3.52055 16.6335 5.15908 16.6335 7.28172ZM48.9448 8.65957C48.9448 9.71469 49.2924 10.2485 49.8882 10.2485C50.6827 10.2485 51.3033 8.9699 51.3033 7.40585C51.3033 6.33833 50.9558 5.81698 50.3848 5.81698C49.5903 5.81698 48.9448 7.08311 48.9448 8.65957ZM54.4438 7.23207C54.4438 10.1367 52.3833 12.5573 49.6648 12.5573C47.2194 12.5573 45.9781 10.8939 45.9781 8.72164C45.9781 5.82939 48.0511 3.40883 50.7571 3.40883C53.2274 3.40883 54.4438 5.07219 54.4438 7.23207ZM30.499 6.30109C30.71 4.82393 30.5983 3.49573 28.9598 3.49573C27.7681 3.49573 26.4895 4.50119 25.5834 6.17695C25.782 4.78669 25.6703 3.49573 24.0442 3.49573C22.8277 3.49573 21.4995 4.55084 20.5933 6.30109C20.8292 5.15908 20.7795 3.85571 20.705 3.58262C19.7616 3.74399 18.9424 3.83088 17.788 3.85571C17.8252 4.65014 17.7756 5.69284 17.6266 6.67348L17.2418 9.26782C17.0928 10.2857 16.9315 11.4649 16.7577 12.2097H19.8237C19.8361 11.7628 19.9603 11.0553 20.0347 10.4222L20.2954 8.63475C20.5064 7.48033 21.4374 6.10248 22.145 6.10248C22.5546 6.10248 22.5422 6.4997 22.4305 7.24448L22.1325 9.2554C21.9836 10.2733 21.8222 11.4525 21.6484 12.1973H24.7517C24.7641 11.7504 24.8634 11.0429 24.9503 10.4098L25.211 8.62234C25.422 7.46792 26.353 6.09006 27.0605 6.09006C27.4702 6.09006 27.4578 6.47487 27.3957 6.98381L26.6509 12.1725H29.4811L30.499 6.30109ZM45.3078 9.77675L44.9726 11.8249C44.4637 12.098 43.5079 12.4952 42.4031 12.4952C40.5288 12.4952 40.1439 11.4898 40.4419 9.36712L40.926 5.94111H39.995L40.2557 3.71916L41.2611 3.66951L41.6459 2.05581L44.5009 0.988281L44.141 3.66951H46.1022C46.0402 3.9426 45.8043 5.46941 45.7423 5.94111H43.8306L43.3962 9.10645C43.2845 9.92571 43.3465 10.2112 43.9051 10.2112C44.3272 10.2112 44.9354 9.96295 45.3078 9.77675Z" fill="#8C98A4"/>
<path d="M34.4964 10.7439C35.5391 10.6198 36.2466 9.61432 36.4204 8.62128L36.4452 8.34819C35.9984 8.24888 35.3529 8.1744 34.7322 8.24888C34.1364 8.32336 33.6399 8.57162 33.3792 8.9316C33.1806 9.19228 33.0813 9.50261 33.1185 9.86259C33.1806 10.4088 33.7888 10.8308 34.4964 10.7439ZM33.6026 12.3328C32.1379 12.519 31.1697 11.9356 30.8842 10.6074C30.698 9.77569 30.9586 8.8323 31.3931 8.2613C31.9889 7.51651 32.9447 7.04481 34.124 6.89586C35.0674 6.78414 35.8618 6.83379 36.6066 6.98275L36.6438 6.85862C36.6687 6.66001 36.6811 6.44898 36.6563 6.20072C36.5818 5.58007 36.0853 5.19526 34.8688 5.34422C34.0495 5.44352 33.2551 5.74144 32.6468 6.07659L32.051 4.28911C32.8703 3.81741 33.913 3.45743 35.1046 3.30847C37.3762 3.02297 38.9775 3.75534 39.1761 5.4187C39.2258 5.86557 39.2382 6.33727 39.1761 6.75931C38.8782 8.81989 38.692 10.3715 38.6175 11.4142C38.6051 11.5756 38.6051 11.8487 38.6175 12.2459H35.7998C35.8618 12.0845 35.9115 11.8611 35.9611 11.588C35.9984 11.4018 36.0108 11.1784 36.0356 10.8929C35.4522 11.7121 34.6329 12.2087 33.6026 12.3328Z" fill="#8C98A4"/>
</svg>
