<svg width="49" height="17" viewBox="0 0 49 17" fill="none" xmlns="http://www.w3.org/2000/svg">
<path d="M43.1354 7.84451L40.0145 13.2144L37.358 13.2226L43.1354 3.11019L48.8883 13.2226H46.183L43.1354 7.84451ZM34.7424 10.8839H37.7247L36.3395 13.2226H32.4526L32.4608 10.3787V3.17538H34.7505L34.7424 10.8839ZM26.5693 3.17538C29.4132 3.18353 31.7111 5.43254 31.6948 8.20305C31.6866 10.9654 29.3887 13.2144 26.5449 13.2144C23.7173 13.2063 21.4194 10.9573 21.4194 8.18675C21.4357 5.41624 23.7336 3.17538 26.5693 3.17538ZM26.5612 10.8758C28.085 10.8758 29.3073 9.67794 29.3073 8.20305C29.3154 6.72816 28.085 5.52217 26.5693 5.52217C25.0619 5.51402 23.8233 6.72001 23.8233 8.1949C23.8151 9.6698 25.0537 10.8758 26.5612 10.8758ZM17.1903 7.40449C17.1577 6.98891 17.0518 6.43481 16.8888 5.90515C16.5629 4.81325 15.9925 3.80282 15.2184 2.96352C14.8109 2.5235 14.3546 2.12422 13.6783 1.64345C13.1568 1.39084 12.6516 1.11379 12.1464 0.820443C11.8204 0.633026 11.4211 0.404867 10.8996 0.241895C10.2803 0.0952208 9.6529 0.0137343 9.01731 0.00558569C8.39802 -0.01886 7.78687 0.0381802 7.18388 0.15226C6.55644 0.258192 6.03493 0.421163 5.3423 0.592283C3.77778 1.26861 2.56364 2.28719 1.52062 3.63985C-2.12179 8.72456 1.17023 15.8383 7.24907 16.6776C8.25134 16.8161 9.25362 16.7591 10.1989 16.539L10.867 16.3598C10.8915 16.3516 10.9241 16.3353 10.9404 16.3353L11.7063 16.042C11.7471 16.0175 11.7797 16.0094 11.8204 15.9931L12.1382 15.8464C12.7494 15.5449 13.3279 15.1701 13.8494 14.7382C13.3686 15.1701 12.8471 15.5612 12.293 15.8953L12.3256 15.9198C12.4316 15.8872 12.5293 15.8546 12.6353 15.8383C12.6353 15.8383 12.6353 16.0012 12.6108 15.9768C12.4397 16.099 12.7086 15.9849 13.0509 15.8138C13.3931 15.6346 13.719 15.4227 14.0205 15.1701C14.4606 14.8034 14.8435 14.4123 15.3813 13.7685C15.9354 12.7988 16.6281 11.9595 16.9459 10.8269C17.0518 10.5254 17.1496 10.175 17.2148 9.80832C17.28 9.44163 17.3207 9.0668 17.3207 8.68382C17.3126 8.29269 17.2718 7.89341 17.1903 7.40449ZM9.31066 15.9442C11.1767 15.6508 12.7331 14.6241 14.0124 13.2226C14.3628 12.7092 14.6398 12.2447 14.9821 11.7395C15.4058 10.6965 15.3732 9.77573 15.5117 9.12384C15.6828 7.9423 15.2754 6.98076 14.9413 5.96219C14.4198 4.78065 13.7272 3.89246 12.513 3.20798C9.44918 1.31751 5.27711 1.84716 3.28886 4.67472C3.28071 4.67472 3.22367 4.74806 3.11774 4.89473C3.25627 4.31618 3.60666 3.97394 3.95704 3.63985C5.00006 2.78425 6.2142 2.11607 7.59946 1.78198C9.16398 1.619 10.7204 1.78198 12.1138 2.45831C14.1998 3.63985 15.5851 5.50587 15.9354 7.70599V9.74313C15.4954 13.0678 12.619 15.602 9.31066 15.9442ZM16.9622 8.35788C16.8888 3.47688 12.0241 0.176706 7.28981 0.844889C5.90455 1.18713 4.39707 1.87161 3.32146 2.83314C2.79995 3.17538 2.55549 3.81097 2.03398 4.31618C-0.052054 7.36375 0.306483 11.2588 2.90588 13.63C3.23997 13.9559 3.59036 14.2656 3.97334 14.5426C1.80582 13.247 0.819843 11.2751 0.485752 8.88753C0.485752 8.03193 0.656872 7.19263 0.836141 6.34518C2.05028 2.61313 5.87196 -0.100346 10.0277 0.592283C10.7204 0.755254 11.413 0.934523 12.1138 1.10564C12.9857 1.44788 13.8494 1.96124 14.542 2.62943C15.2347 3.30576 15.7562 4.15321 16.2777 5.00066C16.6281 5.67699 16.7992 6.52445 16.9703 7.20078C16.9948 7.58376 16.9948 7.97489 16.9622 8.35788Z" fill="#8C98A4"/>
<path d="M12.6435 8.43106C12.6435 10.5334 10.8753 12.2364 8.69962 12.2364C6.5158 12.2364 4.75571 10.5334 4.75571 8.43106C4.75571 6.32872 6.52395 4.62567 8.69962 4.62567C10.8753 4.62567 12.6435 6.33687 12.6435 8.43106Z" fill="white"/>
<path d="M12.6681 7.78771C12.6111 7.49436 12.5296 7.2662 12.4481 6.9484C12.1059 6.23948 11.6088 5.69352 10.9488 5.22091C8.47978 3.59119 5.08182 5.15572 4.72328 7.94253C4.58476 9.04259 4.97589 10.1019 5.68481 10.9168C5.47295 10.6967 5.23664 10.4686 5.08182 10.2078L5.05737 10.2323C5.08182 10.2975 5.16331 10.3382 5.18775 10.3952C5.18775 10.3952 5.10627 10.3952 5.12256 10.3871C5.05738 10.3138 5.11442 10.4278 5.20405 10.5827C5.28554 10.7375 5.39961 10.8842 5.52184 11.0227C5.70111 11.2183 5.89668 11.3975 6.21447 11.6338C6.68709 11.8701 7.09452 12.1879 7.64047 12.3265C7.78715 12.3672 7.95827 12.4079 8.12939 12.4405C8.30866 12.4731 8.47978 12.4813 8.67534 12.4813C8.85461 12.4813 9.05018 12.4568 9.27834 12.4161C9.52279 12.3916 9.7591 12.3428 9.98726 12.2694C10.5088 12.1146 10.9895 11.8457 11.3888 11.479C11.5925 11.2916 11.8777 11.0553 12.0977 10.7375C12.277 10.3871 12.3015 10.2078 12.3829 10.053C12.4644 9.89819 12.5704 9.71892 12.6518 9.48261C12.7089 9.19741 12.7496 8.91221 12.7578 8.61886C12.7496 8.34181 12.7333 8.06476 12.6681 7.78771ZM10.1339 5.85649C10.4925 6.06021 10.5495 6.0928 10.3539 5.96242C10.631 6.02761 10.8021 6.18244 10.9732 6.33726C11.3888 6.80173 11.7311 7.35583 11.9022 7.99142C12 8.7085 11.9266 9.42557 11.617 10.0612C11.0629 11.0308 10.1828 11.6746 9.12351 11.8457C9.00943 11.8457 8.87906 11.8457 8.76498 11.8538C9.06647 11.805 9.25389 11.6175 9.79984 11.4138C10.3865 11.2101 11.0466 10.2404 11.3644 9.67817C12.2933 8.15439 11.1851 6.74469 10.1339 5.85649ZM8.12939 11.862C6.51597 11.699 5.26924 10.379 5.09812 8.84702C5.24479 9.70262 5.75815 10.3545 6.45078 10.9331C6.69524 11.0879 7.05378 11.3079 7.29823 11.4627C7.71381 11.6175 7.95827 11.7887 8.3657 11.8538L8.12939 11.862ZM12.4807 9.09148C12.4074 9.41742 12.3341 9.72707 12.2607 10.0449C12.0977 10.436 11.8696 10.8434 11.5518 11.1694C11.234 11.4953 10.8266 11.7398 10.4273 11.9761C10.1095 12.139 9.70206 12.2287 9.37612 12.3102C9.18055 12.3346 8.96054 12.245 8.77313 12.2368C11.1362 12.1716 12.7496 9.97967 12.3992 7.81215C12.2281 7.17656 11.8859 6.63061 11.4703 6.07651C11.2992 5.8402 10.9732 5.69352 10.7288 5.44906C9.24574 4.52828 7.29008 4.70754 6.17373 5.92983C6.01891 6.0928 5.87223 6.25577 5.73371 6.43504C6.32855 5.56315 7.29008 4.952 8.43903 4.77273C8.84646 4.76459 9.26204 4.83792 9.66132 4.91126C11.4377 5.44906 12.7741 7.17656 12.4807 9.09148Z" fill="#8C98A4" fill-opacity="0.2"/>
</svg>
