<svg width="120" height="120" viewBox="0 0 120 120" fill="none" xmlns="http://www.w3.org/2000/svg">
<rect x="0.479989" y="0.479989" width="119.04" height="119.04" rx="59.52" fill="white" stroke="#00E676" stroke-width="0.959978"/>
<path d="M22.9504 73.545C25.0354 72.24 27.1654 70.08 27.1654 67.62C27.1654 65.655 25.8304 64.41 23.9254 64.41C21.6604 64.41 20.4304 66.18 20.4304 68.145L21.9454 68.265C21.9754 67.035 22.5004 65.895 23.9104 65.895C25.0504 65.895 25.6204 66.63 25.6204 67.71C25.6204 70.26 22.3654 72.435 20.3254 73.695V75H27.6154V73.545H22.9504ZM35.0866 71.055V64.545H33.7216L28.5466 71.58V72.525H33.5416V75H35.0866V72.525H36.7666V71.055H35.0866ZM30.5116 71.055L33.5416 66.81V71.055H30.5116ZM36.8728 78.18H38.3278L43.7578 64.545H42.3028L36.8728 78.18ZM44.2142 64.545V66.03H49.7942L45.1892 75H46.9592L51.7442 65.4V64.545H44.2142ZM57.5794 75H59.1844V70.38H64.0444V75H65.6494V64.545H64.0444V68.895H59.1844V64.545H57.5794V75ZM74.4014 71.115C74.4014 69.18 73.3514 67.47 71.0564 67.47C68.7014 67.47 67.6214 69.36 67.6214 71.34C67.6214 73.365 68.7314 75.135 71.1764 75.135C72.3914 75.135 73.3214 74.745 74.1614 73.83L73.0814 72.9C72.5264 73.53 71.9114 73.74 71.1914 73.74C69.9314 73.74 69.2264 72.975 69.1664 71.79H74.3564C74.3864 71.565 74.4014 71.34 74.4014 71.115ZM69.1664 70.545C69.2714 69.63 69.8714 68.76 71.0564 68.76C72.1514 68.76 72.8864 69.465 72.9164 70.515V70.545H69.1664ZM78.8479 67.47C77.5279 67.47 76.4779 67.98 75.6229 69.03L76.7479 69.975C77.3029 69.21 78.0229 68.82 78.8329 68.82C79.8079 68.82 80.3929 69.39 80.3929 70.35V70.605H78.6679C77.6179 70.605 76.9279 70.725 76.4179 70.98C75.7579 71.31 75.3979 71.94 75.3979 72.78C75.3979 74.19 76.4479 75.135 78.0229 75.135C79.0729 75.135 79.9279 74.7 80.4079 73.95L80.5279 75H81.9379V70.35C81.9379 68.55 80.7679 67.47 78.8479 67.47ZM78.3079 73.83C77.4679 73.83 76.9429 73.44 76.9429 72.81C76.9429 72.495 77.0479 72.24 77.2729 72.09C77.5579 71.865 77.9929 71.79 78.8479 71.79H80.3929V71.82C80.3929 72.99 79.5079 73.83 78.3079 73.83ZM85.602 75.135C85.947 75.135 86.337 75.06 86.712 74.925V73.665C86.487 73.74 86.277 73.77 86.097 73.77C85.707 73.77 85.512 73.575 85.512 73.185V64.545H83.967V73.29C83.967 74.55 84.642 75.135 85.602 75.135ZM91.8179 73.665C91.4879 73.77 91.1879 73.83 90.9329 73.83C90.3479 73.83 90.0029 73.53 90.0029 72.9V68.85H91.8179V67.605H90.0029V64.86L88.4579 66.015V67.605H87.2429V68.85H88.4579V73.035C88.4579 74.52 89.3879 75.135 90.5579 75.135C90.9629 75.135 91.3979 75.06 91.8329 74.925L91.8179 73.665ZM97.1549 67.47C96.1499 67.47 95.3399 67.845 94.8599 68.52V64.545H93.3149V75H94.8599V71.895C94.8599 69.795 95.4449 68.82 96.7049 68.82C97.6949 68.82 98.1599 69.405 98.1599 70.695V75H99.7049V70.305C99.7049 68.475 98.8049 67.47 97.1549 67.47ZM32.854 84.545L29.914 92.255L26.989 84.545H24.679V95H26.284V86.765L29.134 94.1H30.694L33.559 86.765V95H35.164V84.545H32.854ZM40.7383 95.135C42.9583 95.135 44.3833 93.41 44.3833 91.295C44.3833 89.165 42.9583 87.47 40.7383 87.47C38.5033 87.47 37.0783 89.165 37.0783 91.295C37.0783 93.41 38.5033 95.135 40.7383 95.135ZM40.7383 93.785C39.2983 93.785 38.6233 92.66 38.6233 91.295C38.6233 89.93 39.2983 88.82 40.7383 88.82C42.1633 88.82 42.8383 89.93 42.8383 91.295C42.8383 92.645 42.1783 93.785 40.7383 93.785ZM49.899 87.47C48.939 87.47 48.099 87.815 47.589 88.52V87.605H46.044V95H47.589V91.925C47.589 90.35 47.859 88.82 49.449 88.82C50.724 88.82 50.889 89.825 50.889 90.695V95H52.434V90.305C52.434 88.49 51.534 87.47 49.899 87.47ZM54.524 86.165H56.174V84.545H54.524V86.165ZM54.584 95H56.129V87.605H54.584V95ZM62.0816 93.665C61.7516 93.77 61.4516 93.83 61.1966 93.83C60.6116 93.83 60.2666 93.53 60.2666 92.9V88.85H62.0816V87.605H60.2666V84.86L58.7216 86.015V87.605H57.5066V88.85H58.7216V93.035C58.7216 94.52 59.6516 95.135 60.8216 95.135C61.2266 95.135 61.6616 95.06 62.0966 94.925L62.0816 93.665ZM66.7247 95.135C68.9447 95.135 70.3697 93.41 70.3697 91.295C70.3697 89.165 68.9447 87.47 66.7247 87.47C64.4897 87.47 63.0647 89.165 63.0647 91.295C63.0647 93.41 64.4897 95.135 66.7247 95.135ZM66.7247 93.785C65.2847 93.785 64.6097 92.66 64.6097 91.295C64.6097 89.93 65.2847 88.82 66.7247 88.82C68.1497 88.82 68.8247 89.93 68.8247 91.295C68.8247 92.645 68.1647 93.785 66.7247 93.785ZM75.6303 87.47C74.8203 87.47 73.9653 87.89 73.5903 88.82V87.605H72.0303V95H73.5753V91.145C73.5753 89.675 74.2203 88.94 75.3303 88.94C75.6753 88.94 75.9603 89.03 76.2453 89.195L76.9953 87.845C76.5453 87.575 76.1103 87.47 75.6303 87.47ZM78.0641 86.165H79.7141V84.545H78.0641V86.165ZM78.1241 95H79.6691V87.605H78.1241V95ZM85.8316 87.47C84.8716 87.47 84.0316 87.815 83.5216 88.52V87.605H81.9766V95H83.5216V91.925C83.5216 90.35 83.7916 88.82 85.3816 88.82C86.6566 88.82 86.8216 89.825 86.8216 90.695V95H88.3666V90.305C88.3666 88.49 87.4666 87.47 85.8316 87.47ZM93.2617 93.95C92.2867 93.815 91.4767 93.65 91.4767 93.05C91.4767 92.825 91.5817 92.66 91.7767 92.54C92.2117 92.735 92.6917 92.855 93.2317 92.855C94.8367 92.855 96.1567 91.82 96.1567 90.215C96.1567 89.72 96.0367 89.27 95.8117 88.88L96.8617 88.025L96.0517 87.035L94.9567 87.98C94.4617 87.65 93.8467 87.47 93.1867 87.47C91.5517 87.47 90.2317 88.565 90.2317 90.125C90.2317 90.77 90.4567 91.355 90.8467 91.82C90.3667 92.18 90.1117 92.645 90.1117 93.275C90.1117 94.04 90.4867 94.49 91.0267 94.775L89.9167 95.555C89.9017 95.63 89.8867 95.705 89.8867 95.885C89.8867 97.385 91.1317 98.195 93.2917 98.195C95.2417 98.195 96.6217 97.55 96.6217 96.05C96.6217 94.34 94.7467 94.16 93.2617 93.95ZM93.2167 88.76C94.0717 88.76 94.6117 89.315 94.6117 90.17C94.6117 90.98 94.1317 91.58 93.2017 91.58C92.2717 91.58 91.7617 90.965 91.7617 90.17C91.7617 89.33 92.3467 88.76 93.2167 88.76ZM93.3517 97.01C92.3767 97.01 91.4167 96.77 91.4167 96.005C91.4167 95.975 91.4167 95.93 91.4317 95.87L92.1817 95.135C92.4367 95.18 92.6917 95.225 92.9317 95.255C94.0567 95.42 95.0767 95.51 95.0767 96.185C95.0767 96.77 94.2967 97.01 93.3517 97.01Z" fill="#333333"/>
<path d="M46.5604 34.5595C46.5604 42.0795 52.6404 48.1595 60.1604 48.1595C67.6804 48.1595 73.7604 42.0795 73.7604 34.5595C73.7604 27.0395 67.6804 20.9595 60.1604 20.9595C52.6404 20.9595 46.5604 27.0395 46.5604 34.5595Z" fill="white"/>
<path d="M60.16 50.5595C51.36 50.5595 44.16 43.3595 44.16 34.5594C44.16 25.7594 51.36 18.5594 60.16 18.5594C63.92 18.5594 67.6 19.9194 70.48 22.3994L68.4 24.7994C66.16 22.7994 63.2 21.7594 60.16 21.7594C53.12 21.7594 47.36 27.5194 47.36 34.5594C47.36 41.5995 53.12 47.3595 60.16 47.3595V50.5595Z" fill="#DCEDC8"/>
<path d="M62.5602 24.9597L56.1602 20.1597L62.5602 15.3597V24.9597Z" fill="#7CB342"/>
<path d="M49.7604 34.5604C49.7604 35.0404 49.4404 35.3604 48.9604 35.3604H46.5604V33.7604H48.9604C49.4404 33.7604 49.7604 34.0804 49.7604 34.5604ZM60.1604 44.9604C59.6804 44.9604 59.3604 45.2804 59.3604 45.7604V48.1604H60.9604V45.7604C60.9604 45.2804 60.6404 44.9604 60.1604 44.9604ZM71.3604 33.7604C70.8804 33.7604 70.5604 34.0804 70.5604 34.5604C70.5604 35.0404 70.8804 35.3604 71.3604 35.3604H73.7604V33.7604H71.3604Z" fill="#B0BEC5"/>
<path d="M60.16 50.5595C51.36 50.5595 44.16 43.3595 44.16 34.5594C44.16 30.7994 45.52 27.1194 48 24.2394L50.4 26.3194C48.4 28.5594 47.36 31.5194 47.36 34.5594C47.36 41.5995 53.12 47.3595 60.16 47.3595C67.2 47.3595 72.96 41.5995 72.96 34.5594C72.96 27.5194 67.2 21.7594 60.16 21.7594V18.5594C68.96 18.5594 76.16 25.7594 76.16 34.5594C76.16 43.3595 68.96 50.5595 60.16 50.5595Z" fill="#7CB342"/>
<path d="M59.3601 39.36H52.9601V37.92L56.0001 34.72C56.7201 33.84 57.1201 33.2 57.1201 32.72C57.1201 32.32 57.0401 32 56.8801 31.76C56.7201 31.52 56.4801 31.44 56.0801 31.44C55.7601 31.44 55.4401 31.6 55.2801 31.84C55.0401 32.16 54.9601 32.48 54.9601 32.88H52.9601C52.9601 32.32 53.1201 31.76 53.3601 31.28C53.6801 30.8 54.0801 30.4 54.5601 30.16C55.0401 29.92 55.4401 29.76 56.0801 29.76C57.1201 29.76 57.9201 30 58.4801 30.48C59.0401 30.96 59.2801 31.6 59.2801 32.48C59.2801 32.88 59.2001 33.2 59.0401 33.6C58.8801 33.92 58.7201 34.32 58.4001 34.72C58.0801 35.12 57.6001 35.6 56.9601 36.24L55.8401 37.76H59.3601V39.36ZM66.4001 36.16H67.3601V37.76H66.4001V39.36H64.1601V37.76H60.4801L60.3201 36.48L64.1601 29.76H66.4001V36.16ZM62.4001 36.16H64.1601V32.64L64.0001 32.88L62.4001 36.16Z" fill="#546E7A"/>
</svg>
