<svg width="120" height="120" viewBox="0 0 120 120" fill="none" xmlns="http://www.w3.org/2000/svg">
<rect x="0.282941" y="0.282941" width="119.434" height="119.434" rx="59.7171" fill="white" stroke="#00E676" stroke-width="0.565882"/>
<path d="M28.7681 79H31.7081C35.2331 79 37.1381 77.185 37.1381 73.855C37.1381 70.465 35.1731 68.545 31.7231 68.545H28.7681V79ZM30.3731 77.515V70.03H31.7081C34.3031 70.03 35.5181 71.23 35.5181 73.795C35.5181 76.375 34.3031 77.515 31.5581 77.515H30.3731ZM45.1946 75.115C45.1946 73.18 44.1446 71.47 41.8496 71.47C39.4946 71.47 38.4146 73.36 38.4146 75.34C38.4146 77.365 39.5246 79.135 41.9696 79.135C43.1846 79.135 44.1146 78.745 44.9546 77.83L43.8746 76.9C43.3196 77.53 42.7046 77.74 41.9846 77.74C40.7246 77.74 40.0196 76.975 39.9596 75.79H45.1496C45.1796 75.565 45.1946 75.34 45.1946 75.115ZM39.9596 74.545C40.0646 73.63 40.6646 72.76 41.8496 72.76C42.9446 72.76 43.6796 73.465 43.7096 74.515V74.545H39.9596ZM51.7112 68.545V72.43C51.2462 71.83 50.3912 71.455 49.4762 71.455C47.5862 71.455 46.3112 72.91 46.3112 75.295C46.3112 77.515 47.4212 79.135 49.4762 79.135C50.3612 79.135 51.2012 78.835 51.7112 78.175V79H53.2562V68.545H51.7112ZM49.8212 77.725C48.5012 77.725 47.8562 76.78 47.8562 75.31C47.8562 73.795 48.5312 72.85 49.8362 72.85C51.1862 72.85 51.8612 73.9 51.8612 75.31C51.8612 76.69 51.2162 77.725 49.8212 77.725ZM55.5223 70.165H57.1723V68.545H55.5223V70.165ZM55.5823 79H57.1273V71.605H55.5823V79ZM62.2999 79.135C63.7249 79.135 64.8499 78.37 65.3449 76.99L63.9349 76.45C63.7099 77.275 63.0799 77.785 62.2999 77.785C60.9199 77.785 60.3799 76.615 60.3799 75.325C60.3799 74.035 60.9349 72.82 62.2849 72.82C63.0949 72.82 63.7099 73.345 63.9499 74.17L65.4199 73.6C64.8499 72.16 63.7099 71.47 62.2849 71.47C59.9299 71.47 58.8049 73.375 58.8049 75.325C58.8049 77.305 59.9749 79.135 62.2999 79.135ZM69.6363 71.47C68.3163 71.47 67.2663 71.98 66.4113 73.03L67.5363 73.975C68.0913 73.21 68.8113 72.82 69.6213 72.82C70.5963 72.82 71.1813 73.39 71.1813 74.35V74.605H69.4563C68.4063 74.605 67.7163 74.725 67.2063 74.98C66.5463 75.31 66.1863 75.94 66.1863 76.78C66.1863 78.19 67.2363 79.135 68.8113 79.135C69.8613 79.135 70.7163 78.7 71.1963 77.95L71.3163 79H72.7263V74.35C72.7263 72.55 71.5563 71.47 69.6363 71.47ZM69.0963 77.83C68.2563 77.83 67.7313 77.44 67.7313 76.81C67.7313 76.495 67.8363 76.24 68.0613 76.09C68.3463 75.865 68.7813 75.79 69.6363 75.79H71.1813V75.82C71.1813 76.99 70.2963 77.83 69.0963 77.83ZM78.4461 77.665C78.1161 77.77 77.8161 77.83 77.5611 77.83C76.9761 77.83 76.6311 77.53 76.6311 76.9V72.85H78.4461V71.605H76.6311V68.86L75.0861 70.015V71.605H73.8711V72.85H75.0861V77.035C75.0861 78.52 76.0161 79.135 77.1861 79.135C77.5911 79.135 78.0261 79.06 78.4611 78.925L78.4461 77.665ZM86.2542 75.115C86.2542 73.18 85.2042 71.47 82.9092 71.47C80.5542 71.47 79.4742 73.36 79.4742 75.34C79.4742 77.365 80.5842 79.135 83.0292 79.135C84.2442 79.135 85.1742 78.745 86.0142 77.83L84.9342 76.9C84.3792 77.53 83.7642 77.74 83.0442 77.74C81.7842 77.74 81.0792 76.975 81.0192 75.79H86.2092C86.2392 75.565 86.2542 75.34 86.2542 75.115ZM81.0192 74.545C81.1242 73.63 81.7242 72.76 82.9092 72.76C84.0042 72.76 84.7392 73.465 84.7692 74.515V74.545H81.0192ZM92.7707 68.545V72.43C92.3057 71.83 91.4507 71.455 90.5357 71.455C88.6457 71.455 87.3707 72.91 87.3707 75.295C87.3707 77.515 88.4807 79.135 90.5357 79.135C91.4207 79.135 92.2607 78.835 92.7707 78.175V79H94.3157V68.545H92.7707ZM90.8807 77.725C89.5607 77.725 88.9157 76.78 88.9157 75.31C88.9157 73.795 89.5907 72.85 90.8957 72.85C92.2457 72.85 92.9207 73.9 92.9207 75.31C92.9207 76.69 92.2757 77.725 90.8807 77.725ZM45.7133 99.195C47.9033 99.195 49.5383 98.13 50.3033 96.15L48.7883 95.58C48.2933 96.96 47.2283 97.665 45.7133 97.665C43.5983 97.665 42.3533 96.255 42.3533 93.75C42.3533 91.26 43.5983 89.865 45.7433 89.865C47.2433 89.865 48.2933 90.54 48.7883 91.905L50.2733 91.335C49.5083 89.37 47.9183 88.335 45.7433 88.335C42.6833 88.335 40.7483 90.405 40.7483 93.765C40.7483 97.11 42.6683 99.195 45.7133 99.195ZM54.6566 99.135C56.8766 99.135 58.3016 97.41 58.3016 95.295C58.3016 93.165 56.8766 91.47 54.6566 91.47C52.4216 91.47 50.9966 93.165 50.9966 95.295C50.9966 97.41 52.4216 99.135 54.6566 99.135ZM54.6566 97.785C53.2166 97.785 52.5416 96.66 52.5416 95.295C52.5416 93.93 53.2166 92.82 54.6566 92.82C56.0816 92.82 56.7566 93.93 56.7566 95.295C56.7566 96.645 56.0966 97.785 54.6566 97.785ZM62.7222 91.47C61.4022 91.47 60.3522 91.98 59.4972 93.03L60.6222 93.975C61.1772 93.21 61.8972 92.82 62.7072 92.82C63.6822 92.82 64.2672 93.39 64.2672 94.35V94.605H62.5422C61.4922 94.605 60.8022 94.725 60.2922 94.98C59.6322 95.31 59.2722 95.94 59.2722 96.78C59.2722 98.19 60.3222 99.135 61.8972 99.135C62.9472 99.135 63.8022 98.7 64.2822 97.95L64.4022 99H65.8122V94.35C65.8122 92.55 64.6422 91.47 62.7222 91.47ZM62.1822 97.83C61.3422 97.83 60.8172 97.44 60.8172 96.81C60.8172 96.495 60.9222 96.24 61.1472 96.09C61.4322 95.865 61.8672 95.79 62.7222 95.79H64.2672V95.82C64.2672 96.99 63.3822 97.83 62.1822 97.83ZM70.7667 99.135C72.1917 99.135 73.3167 98.37 73.8117 96.99L72.4017 96.45C72.1767 97.275 71.5467 97.785 70.7667 97.785C69.3867 97.785 68.8467 96.615 68.8467 95.325C68.8467 94.035 69.4017 92.82 70.7517 92.82C71.5617 92.82 72.1767 93.345 72.4167 94.17L73.8867 93.6C73.3167 92.16 72.1767 91.47 70.7517 91.47C68.3967 91.47 67.2717 93.375 67.2717 95.325C67.2717 97.305 68.4417 99.135 70.7667 99.135ZM79.242 91.47C78.237 91.47 77.427 91.845 76.947 92.52V88.545H75.402V99H76.947V95.895C76.947 93.795 77.532 92.82 78.792 92.82C79.782 92.82 80.247 93.405 80.247 94.695V99H81.792V94.305C81.792 92.475 80.892 91.47 79.242 91.47Z" fill="#333333"/>
<path d="M69.4124 43.1116H51.2537V53.0163H69.4124V43.1116Z" fill="#BF360C"/>
<path d="M48.7772 43.1101C50.6006 43.1101 52.0788 41.632 52.0788 39.8085C52.0788 37.9851 50.6006 36.507 48.7772 36.507C46.9538 36.507 45.4756 37.9851 45.4756 39.8085C45.4756 41.632 46.9538 43.1101 48.7772 43.1101Z" fill="#FFA726"/>
<path d="M71.8874 43.1126C73.7108 43.1126 75.189 41.6344 75.189 39.811C75.189 37.9876 73.7108 36.5094 71.8874 36.5094C70.064 36.5094 68.5858 37.9876 68.5858 39.811C68.5858 41.6344 70.064 43.1126 71.8874 43.1126Z" fill="#FFA726"/>
<path d="M72.7138 34.0318C72.7138 23.5492 47.9519 27.181 47.9519 34.0318C47.9519 35.5175 47.9519 40.8 47.9519 42.2857C47.9519 49.1365 53.4821 54.6667 60.3328 54.6667C67.1836 54.6667 72.7138 49.1365 72.7138 42.2857C72.7138 40.8 72.7138 35.5175 72.7138 34.0318Z" fill="#FFB74D"/>
<path d="M65.2852 41.4624C66.1969 41.4624 66.936 40.7233 66.936 39.8116C66.936 38.8999 66.1969 38.1608 65.2852 38.1608C64.3735 38.1608 63.6344 38.8999 63.6344 39.8116C63.6344 40.7233 64.3735 41.4624 65.2852 41.4624Z" fill="#784719"/>
<path d="M55.3813 41.4604C56.293 41.4604 57.0321 40.7213 57.0321 39.8096C57.0321 38.8979 56.293 38.1588 55.3813 38.1588C54.4696 38.1588 53.7305 38.8979 53.7305 39.8096C53.7305 40.7213 54.4696 41.4604 55.3813 41.4604Z" fill="#784719"/>
<path d="M60.3333 20.0002C53.3175 20.0002 43 24.7875 43 47.7336L51.254 53.0161V38.159L65.1206 30.0701L69.4127 35.6828V53.0161L77.6666 46.2478C77.6666 41.6256 76.9238 22.3114 64.9555 22.3114L63.8 20.0002H60.3333Z" fill="#FF5722"/>
<path d="M77.6662 38.1587C77.171 38.1587 76.8408 38.4889 76.8408 38.9841V33.2063C76.8408 25.9429 70.8979 20 63.6345 20H56.2059C55.7107 20 55.3805 20.3302 55.3805 20.8254C55.3805 21.3206 55.7107 21.6508 56.2059 21.6508H63.6345C69.99 21.6508 75.19 26.8508 75.19 33.2063V41.4603C75.19 41.9555 75.5202 42.2857 76.0154 42.2857C76.5106 42.2857 76.8408 41.9555 76.8408 41.4603V43.1111C76.8408 46.3301 74.2821 48.8889 71.063 48.8889H60.3329C59.8376 48.8889 59.5075 49.219 59.5075 49.7143C59.5075 50.2095 59.8376 50.5397 60.3329 50.5397H71.063C75.19 50.5397 78.4916 47.2381 78.4916 43.1111V38.9841C78.4916 38.4889 78.1614 38.1587 77.6662 38.1587Z" fill="#757575"/>
<path d="M77.6661 36.5074H76.8407C75.9328 36.5074 75.1899 37.2503 75.1899 38.1582V41.4598C75.1899 42.3678 75.9328 43.1106 76.8407 43.1106H77.6661C78.5741 43.1106 79.3169 42.3678 79.3169 41.4598V38.1582C79.3169 37.2503 78.5741 36.5074 77.6661 36.5074Z" fill="#37474F"/>
<path d="M60.3328 51.3643C61.2445 51.3643 61.9836 50.6252 61.9836 49.7135C61.9836 48.8018 61.2445 48.0627 60.3328 48.0627C59.4211 48.0627 58.682 48.8018 58.682 49.7135C58.682 50.6252 59.4211 51.3643 60.3328 51.3643Z" fill="#37474F"/>
</svg>
