<svg width="256" height="80" viewBox="0 0 256 80" fill="none" xmlns="http://www.w3.org/2000/svg">
<rect x="0.5" y="0.5" width="255" height="79" rx="39.5" fill="white" stroke="#00E676"/>
<path d="M92.996 34.254C95.498 32.688 98.054 30.096 98.054 27.144C98.054 24.786 96.452 23.292 94.166 23.292C91.448 23.292 89.972 25.416 89.972 27.774L91.79 27.918C91.826 26.442 92.456 25.074 94.148 25.074C95.516 25.074 96.2 25.956 96.2 27.252C96.2 30.312 92.294 32.922 89.846 34.434V36H98.594V34.254H92.996ZM107.559 31.266V23.454H105.921L99.7114 31.896V33.03H105.705V36H107.559V33.03H109.575V31.266H107.559ZM102.069 31.266L105.705 26.172V31.266H102.069ZM114.256 39.816H116.002L122.518 23.454H120.772L114.256 39.816ZM127.618 23.454V25.236H134.314L128.788 36H130.912L136.654 24.48V23.454H127.618ZM143.656 36H147.184C151.414 36 153.7 33.822 153.7 29.826C153.7 25.758 151.342 23.454 147.202 23.454H143.656V36ZM145.582 34.218V25.236H147.184C150.298 25.236 151.756 26.676 151.756 29.754C151.756 32.85 150.298 34.218 147.004 34.218H145.582ZM159.57 36.162C162.234 36.162 163.944 34.092 163.944 31.554C163.944 28.998 162.234 26.964 159.57 26.964C156.888 26.964 155.178 28.998 155.178 31.554C155.178 34.092 156.888 36.162 159.57 36.162ZM159.57 34.542C157.842 34.542 157.032 33.192 157.032 31.554C157.032 29.916 157.842 28.584 159.57 28.584C161.28 28.584 162.09 29.916 162.09 31.554C162.09 33.174 161.298 34.542 159.57 34.542ZM169.375 36.162C171.085 36.162 172.435 35.244 173.029 33.588L171.337 32.94C171.067 33.93 170.311 34.542 169.375 34.542C167.719 34.542 167.071 33.138 167.071 31.59C167.071 30.042 167.737 28.584 169.357 28.584C170.329 28.584 171.067 29.214 171.355 30.204L173.119 29.52C172.435 27.792 171.067 26.964 169.357 26.964C166.531 26.964 165.181 29.25 165.181 31.59C165.181 33.966 166.585 36.162 169.375 36.162ZM179.293 34.398C178.897 34.524 178.537 34.596 178.231 34.596C177.529 34.596 177.115 34.236 177.115 33.48V28.62H179.293V27.126H177.115V23.832L175.261 25.218V27.126H173.803V28.62H175.261V33.642C175.261 35.424 176.377 36.162 177.781 36.162C178.267 36.162 178.789 36.072 179.311 35.91L179.293 34.398ZM184.865 36.162C187.529 36.162 189.239 34.092 189.239 31.554C189.239 28.998 187.529 26.964 184.865 26.964C182.183 26.964 180.473 28.998 180.473 31.554C180.473 34.092 182.183 36.162 184.865 36.162ZM184.865 34.542C183.137 34.542 182.327 33.192 182.327 31.554C182.327 29.916 183.137 28.584 184.865 28.584C186.575 28.584 187.385 29.916 187.385 31.554C187.385 33.174 186.593 34.542 184.865 34.542ZM195.552 26.964C194.58 26.964 193.554 27.468 193.104 28.584V27.126H191.232V36H193.086V31.374C193.086 29.61 193.86 28.728 195.192 28.728C195.606 28.728 195.948 28.836 196.29 29.034L197.19 27.414C196.65 27.09 196.128 26.964 195.552 26.964ZM94.22 60.216C96.794 60.216 98.468 58.74 98.468 56.472C98.468 54.708 97.622 53.736 94.904 52.692C92.978 51.954 92.294 51.432 92.294 50.496C92.294 49.632 93.05 48.93 94.094 48.93C95.012 48.93 95.822 49.452 96.29 50.406L97.892 49.416C97.118 47.958 95.804 47.22 94.148 47.22C91.88 47.22 90.368 48.552 90.368 50.55C90.368 52.314 91.286 53.25 93.878 54.24C95.858 55.014 96.542 55.608 96.542 56.634C96.542 57.768 95.696 58.506 94.256 58.506C92.708 58.506 91.646 57.588 91.466 56.058L89.54 56.526C89.9 58.758 91.772 60.216 94.22 60.216ZM105.828 51.126V54.726C105.828 56.562 105.54 58.542 103.614 58.542C101.958 58.542 101.868 57.066 101.868 56.166V51.126H100.014V56.634C100.014 58.632 100.932 60.162 103.092 60.162C104.172 60.162 105.198 59.766 105.828 58.884V60H107.682V51.126H105.828ZM115.014 50.946C113.97 50.946 112.944 51.306 112.332 52.116V51.126H110.478V63.672H112.332V58.992C112.89 59.712 113.898 60.162 115.014 60.162C117.318 60.162 118.812 58.38 118.812 55.572C118.812 52.872 117.444 50.946 115.014 50.946ZM114.582 58.542C112.926 58.542 112.152 57.264 112.152 55.554C112.152 53.79 112.962 52.584 114.6 52.584C116.166 52.584 116.958 53.682 116.958 55.554C116.958 57.372 116.184 58.542 114.582 58.542ZM128.3 55.338C128.3 53.016 127.04 50.964 124.286 50.964C121.46 50.964 120.164 53.232 120.164 55.608C120.164 58.038 121.496 60.162 124.43 60.162C125.888 60.162 127.004 59.694 128.012 58.596L126.716 57.48C126.05 58.236 125.312 58.488 124.448 58.488C122.936 58.488 122.09 57.57 122.018 56.148H128.246C128.282 55.878 128.3 55.608 128.3 55.338ZM122.018 54.654C122.144 53.556 122.864 52.512 124.286 52.512C125.6 52.512 126.482 53.358 126.518 54.618V54.654H122.018ZM134.644 50.964C133.672 50.964 132.646 51.468 132.196 52.584V51.126H130.324V60H132.178V55.374C132.178 53.61 132.952 52.728 134.284 52.728C134.698 52.728 135.04 52.836 135.382 53.034L136.282 51.414C135.742 51.09 135.22 50.964 134.644 50.964ZM140.186 60H141.734L145.352 51.126H143.336L140.96 57.606L138.602 51.126H136.568L140.186 60ZM146.74 49.398H148.72V47.454H146.74V49.398ZM146.812 60H148.666V51.126H146.812V60ZM154.189 60.162C155.881 60.162 157.555 59.262 157.555 57.282C157.555 54.006 152.749 54.978 152.749 53.376C152.749 52.836 153.271 52.458 154.099 52.458C155.125 52.458 155.683 53.016 156.025 53.646L157.465 52.854C156.817 51.63 155.665 50.964 154.171 50.964C152.425 50.964 150.985 51.864 150.985 53.52C150.985 56.76 155.737 55.608 155.737 57.39C155.737 58.02 155.179 58.596 154.117 58.596C152.857 58.596 152.263 57.804 151.993 57.066L150.499 57.732C150.931 59.118 152.353 60.162 154.189 60.162ZM159.537 49.398H161.517V47.454H159.537V49.398ZM159.609 60H161.463V51.126H159.609V60ZM167.832 60.162C170.496 60.162 172.206 58.092 172.206 55.554C172.206 52.998 170.496 50.964 167.832 50.964C165.15 50.964 163.44 52.998 163.44 55.554C163.44 58.092 165.15 60.162 167.832 60.162ZM167.832 58.542C166.104 58.542 165.294 57.192 165.294 55.554C165.294 53.916 166.104 52.584 167.832 52.584C169.542 52.584 170.352 53.916 170.352 55.554C170.352 57.174 169.56 58.542 167.832 58.542ZM178.825 50.964C177.673 50.964 176.665 51.378 176.053 52.224V51.126H174.199V60H176.053V56.31C176.053 54.42 176.377 52.584 178.285 52.584C179.815 52.584 180.013 53.79 180.013 54.834V60H181.867V54.366C181.867 52.188 180.787 50.964 178.825 50.964Z" fill="#333333"/>
<path d="M55.5858 41.7558H43.8785V60.4875H55.5858V41.7558Z" fill="#FF9800"/>
<path d="M41.5369 34.7312C41.5369 36.026 40.4891 37.0726 39.1955 37.0726C37.9018 37.0726 36.854 36.026 36.854 34.7312C36.854 33.4375 37.9006 32.3897 39.1955 32.3897C40.4903 32.3897 41.5369 33.4375 41.5369 34.7312ZM62.6101 34.7312C62.6101 33.4375 61.5623 32.3897 60.2686 32.3897C58.975 32.3897 57.9272 33.4375 57.9272 34.7312C57.9272 36.026 58.975 37.0726 60.2686 37.0726C61.5623 37.0726 62.6101 36.026 62.6101 34.7312Z" fill="#FFA726"/>
<path d="M60.2689 27.7074C60.2689 18.7689 39.1957 21.8877 39.1957 27.7074V35.9025C39.1957 41.7222 43.9126 46.4391 49.7323 46.4391C55.552 46.4391 60.2689 41.7222 60.2689 35.9025V27.7074Z" fill="#FFB74D"/>
<path d="M53.2443 34.7317C53.2443 34.0866 53.7688 33.561 54.4151 33.561C55.0613 33.561 55.5858 34.0866 55.5858 34.7317C55.5858 35.3768 55.0613 35.9024 54.4151 35.9024C53.7688 35.9024 53.2443 35.3768 53.2443 34.7317ZM43.8785 34.7317C43.8785 35.3768 44.403 35.9024 45.0492 35.9024C45.6955 35.9024 46.2199 35.3768 46.2199 34.7317C46.2199 34.0866 45.6955 33.561 45.0492 33.561C44.403 33.561 43.8785 34.0866 43.8785 34.7317Z" fill="#784719"/>
<path d="M49.7326 17.1699C42.6204 17.1699 38.0253 22.9369 38.0253 30.048V32.7242L40.3667 34.7309V28.8772L54.4155 24.1943L59.0984 28.8772V34.7309L61.4399 32.6915V30.048C61.4399 25.3358 60.2247 20.6634 54.4155 19.5114L53.2448 17.1699H49.7326Z" fill="#424242"/>
<path d="M60.2683 18.3415C60.2683 18.3415 58.0731 16 50.0244 16C41.9768 16 39.1951 18.3415 39.1951 18.3415C39.1951 18.3415 38.0244 25.3658 38.0244 30.0488C38.0244 30.0488 43.878 28.878 49.7317 28.878C55.5853 28.878 61.439 30.0488 61.439 30.0488C61.439 25.3658 60.2683 18.3415 60.2683 18.3415ZM68.4634 64H31C31 51.1055 43.878 48.7805 43.878 48.7805L49.7317 59.317L55.5853 48.7805C55.5853 48.7805 68.4634 51.1512 68.4634 64Z" fill="#00ACC1"/>
<path d="M41.5375 62.8287C43.4772 62.8287 45.0497 61.2562 45.0497 59.3165C45.0497 57.3768 43.4772 55.8043 41.5375 55.8043C39.5977 55.8043 38.0253 57.3768 38.0253 59.3165C38.0253 61.2562 39.5977 62.8287 41.5375 62.8287Z" fill="#263238"/>
<path d="M40.3656 59.3176C40.3656 58.6702 40.8889 58.1469 41.5363 58.1469C42.1826 58.1469 42.7071 58.6702 42.7071 59.3176C42.7071 59.965 42.1826 60.4883 41.5363 60.4883C40.8889 60.4883 40.3656 59.965 40.3656 59.3176ZM55.5851 61.659H53.2436V64.0005H55.5851V61.659ZM62.6095 61.659H60.268V64.0005H62.6095V61.659Z" fill="#CFD8DC"/>
<path d="M43.8775 48.7802V44.8431C42.6119 46.358 41.7795 47.8601 41.5957 48.4091C40.9916 50.2249 40.3653 52.1028 40.3653 56.9754C40.3653 57.6228 40.8898 58.1461 41.536 58.1461C42.1823 58.1461 42.7068 57.6228 42.7068 56.9754C42.7068 52.4821 43.2465 50.8641 43.8178 49.1502C43.8412 49.08 43.8822 48.9863 43.9337 48.8798L43.8775 48.7802Z" fill="#37474F"/>
<path d="M59.078 55.9492C58.9304 51.6561 57.9119 48.5455 57.8487 48.3605C57.1708 46.5927 56.4122 45.1562 55.5845 44.0171V48.7796L55.5342 48.8709C55.5716 48.9646 55.6091 49.0583 55.6454 49.1496C55.6559 49.18 56.589 52.0319 56.7353 55.9574C54.0087 56.6821 53.243 59.8711 53.243 61.6577L55.5845 61.6612C55.5857 61.5183 55.6337 58.1455 57.926 58.1455C60.2183 58.1455 60.2663 61.5183 60.2674 61.6577H62.6089C62.6089 59.8618 61.835 56.654 59.078 55.9492Z" fill="#37474F"/>
</svg>
