<svg width="120" height="120" viewBox="0 0 120 120" fill="none" xmlns="http://www.w3.org/2000/svg">
<rect x="0.479989" y="0.479989" width="119.04" height="119.04" rx="59.52" fill="white" stroke="#00E676" stroke-width="0.959978"/>
<path d="M58.4755 47.8224C52.4544 47.8224 47.5555 42.937 47.5555 36.9251C47.5555 31.0224 58.4755 14.2224 58.4755 14.2224C58.4755 14.2224 69.3955 31.0224 69.3955 36.9251C69.3955 42.937 64.4967 47.8224 58.4755 47.8224Z" fill="#E53935"/>
<path d="M59.3154 32.7015H57.6354V41.1015H59.3154V32.7015Z" fill="#EEEEEE"/>
<path d="M62.6754 37.7415V36.0615H54.2754V37.7415H62.6754Z" fill="#EEEEEE"/>
<path d="M13.5223 75.195C15.7123 75.195 17.3473 74.13 18.1123 72.15L16.5973 71.58C16.1023 72.96 15.0373 73.665 13.5223 73.665C11.4073 73.665 10.1623 72.255 10.1623 69.75C10.1623 67.26 11.4073 65.865 13.5523 65.865C15.0523 65.865 16.1023 66.54 16.5973 67.905L18.0823 67.335C17.3173 65.37 15.7273 64.335 13.5523 64.335C10.4923 64.335 8.55727 66.405 8.55727 69.765C8.55727 73.11 10.4773 75.195 13.5223 75.195ZM22.4655 75.135C24.6855 75.135 26.1105 73.41 26.1105 71.295C26.1105 69.165 24.6855 67.47 22.4655 67.47C20.2305 67.47 18.8055 69.165 18.8055 71.295C18.8055 73.41 20.2305 75.135 22.4655 75.135ZM22.4655 73.785C21.0255 73.785 20.3505 72.66 20.3505 71.295C20.3505 69.93 21.0255 68.82 22.4655 68.82C23.8905 68.82 24.5655 69.93 24.5655 71.295C24.5655 72.645 23.9055 73.785 22.4655 73.785ZM35.8262 67.47C34.8212 67.47 33.9812 67.86 33.4262 68.925C32.9912 67.83 32.1362 67.47 31.2662 67.47C30.5012 67.47 29.7362 67.74 29.2562 68.535V67.605H27.7862V75H29.3312V71.94C29.3312 70.38 29.4362 68.82 30.9212 68.82C32.1362 68.82 32.3012 69.99 32.3012 70.8V75H33.8462V71.94C33.8462 70.395 33.9512 68.82 35.4512 68.82C36.7862 68.82 36.8312 70.17 36.8312 70.77V75H38.3762V70.32C38.3762 68.76 37.6112 67.47 35.8262 67.47ZM44.2957 67.455C43.4257 67.455 42.5707 67.755 42.0607 68.43V67.605H40.5157V78.06H42.0607V74.16C42.5257 74.76 43.3657 75.135 44.2957 75.135C46.2157 75.135 47.4607 73.65 47.4607 71.31C47.4607 69.06 46.3207 67.455 44.2957 67.455ZM43.9357 73.785C42.5557 73.785 41.9107 72.72 41.9107 71.295C41.9107 69.825 42.5857 68.82 43.9507 68.82C45.2557 68.82 45.9157 69.735 45.9157 71.295C45.9157 72.81 45.2707 73.785 43.9357 73.785ZM52.8019 67.47C51.9919 67.47 51.1369 67.89 50.7619 68.82V67.605H49.2019V75H50.7469V71.145C50.7469 69.675 51.3919 68.94 52.5019 68.94C52.8469 68.94 53.1319 69.03 53.4169 69.195L54.1669 67.845C53.7169 67.575 53.2819 67.47 52.8019 67.47ZM60.9772 71.115C60.9772 69.18 59.9272 67.47 57.6322 67.47C55.2772 67.47 54.1972 69.36 54.1972 71.34C54.1972 73.365 55.3072 75.135 57.7522 75.135C58.9672 75.135 59.8972 74.745 60.7372 73.83L59.6572 72.9C59.1022 73.53 58.4872 73.74 57.7672 73.74C56.5072 73.74 55.8022 72.975 55.7422 71.79H60.9322C60.9622 71.565 60.9772 71.34 60.9772 71.115ZM55.7422 70.545C55.8472 69.63 56.4472 68.76 57.6322 68.76C58.7272 68.76 59.4622 69.465 59.4922 70.515V70.545H55.7422ZM66.5188 67.47C65.5138 67.47 64.7038 67.845 64.2238 68.52V64.545H62.6788V75H64.2238V71.895C64.2238 69.795 64.8088 68.82 66.0688 68.82C67.0588 68.82 67.5238 69.405 67.5238 70.695V75H69.0688V70.305C69.0688 68.475 68.1688 67.47 66.5188 67.47ZM77.3835 71.115C77.3835 69.18 76.3335 67.47 74.0385 67.47C71.6835 67.47 70.6035 69.36 70.6035 71.34C70.6035 73.365 71.7135 75.135 74.1585 75.135C75.3735 75.135 76.3035 74.745 77.1435 73.83L76.0635 72.9C75.5085 73.53 74.8935 73.74 74.1735 73.74C72.9135 73.74 72.2085 72.975 72.1485 71.79H77.3385C77.3685 71.565 77.3835 71.34 77.3835 71.115ZM72.1485 70.545C72.2535 69.63 72.8535 68.76 74.0385 68.76C75.1335 68.76 75.8685 69.465 75.8985 70.515V70.545H72.1485ZM82.925 67.47C81.965 67.47 81.125 67.815 80.615 68.52V67.605H79.07V75H80.615V71.925C80.615 70.35 80.885 68.82 82.475 68.82C83.75 68.82 83.915 69.825 83.915 70.695V75H85.46V70.305C85.46 68.49 84.56 67.47 82.925 67.47ZM89.9051 75.135C91.3151 75.135 92.7101 74.385 92.7101 72.735C92.7101 70.005 88.7051 70.815 88.7051 69.48C88.7051 69.03 89.1401 68.715 89.8301 68.715C90.6851 68.715 91.1501 69.18 91.4351 69.705L92.6351 69.045C92.0951 68.025 91.1351 67.47 89.8901 67.47C88.4351 67.47 87.2351 68.22 87.2351 69.6C87.2351 72.3 91.1951 71.34 91.1951 72.825C91.1951 73.35 90.7301 73.83 89.8451 73.83C88.7951 73.83 88.3001 73.17 88.0751 72.555L86.8301 73.11C87.1901 74.265 88.3751 75.135 89.9051 75.135ZM94.3616 66.165H96.0116V64.545H94.3616V66.165ZM94.4216 75H95.9666V67.605H94.4216V75ZM100.179 75H101.469L104.484 67.605H102.804L100.824 73.005L98.8591 67.605H97.1641L100.179 75ZM111.646 71.115C111.646 69.18 110.596 67.47 108.301 67.47C105.946 67.47 104.866 69.36 104.866 71.34C104.866 73.365 105.976 75.135 108.421 75.135C109.636 75.135 110.566 74.745 111.406 73.83L110.326 72.9C109.771 73.53 109.156 73.74 108.436 73.74C107.176 73.74 106.471 72.975 106.411 71.79H111.601C111.631 71.565 111.646 71.34 111.646 71.115ZM106.411 70.545C106.516 69.63 107.116 68.76 108.301 68.76C109.396 68.76 110.131 69.465 110.161 70.515V70.545H106.411ZM30.0414 95H36.2064V93.515H31.6464V84.545H30.0414V95ZM40.4555 87.47C39.1355 87.47 38.0855 87.98 37.2305 89.03L38.3555 89.975C38.9105 89.21 39.6305 88.82 40.4405 88.82C41.4155 88.82 42.0005 89.39 42.0005 90.35V90.605H40.2755C39.2255 90.605 38.5355 90.725 38.0255 90.98C37.3655 91.31 37.0055 91.94 37.0055 92.78C37.0055 94.19 38.0555 95.135 39.6305 95.135C40.6805 95.135 41.5355 94.7 42.0155 93.95L42.1355 95H43.5455V90.35C43.5455 88.55 42.3755 87.47 40.4555 87.47ZM39.9155 93.83C39.0755 93.83 38.5505 93.44 38.5505 92.81C38.5505 92.495 38.6555 92.24 38.8805 92.09C39.1655 91.865 39.6005 91.79 40.4555 91.79H42.0005V91.82C42.0005 92.99 41.1155 93.83 39.9155 93.83ZM49.4446 87.455C48.5296 87.455 47.6746 87.83 47.2096 88.43V84.545H45.6646V95H47.2096V94.175C47.7196 94.835 48.5596 95.135 49.4446 95.135C51.4996 95.135 52.6096 93.515 52.6096 91.295C52.6096 88.91 51.3346 87.455 49.4446 87.455ZM49.0996 93.725C47.7046 93.725 47.0596 92.69 47.0596 91.31C47.0596 89.9 47.7346 88.85 49.0846 88.85C50.3896 88.85 51.0646 89.795 51.0646 91.31C51.0646 92.78 50.4196 93.725 49.0996 93.725ZM60.6197 95H62.2397V86.03H65.6297V84.545H57.2447V86.03H60.6197V95ZM71.7658 91.115C71.7658 89.18 70.7158 87.47 68.4208 87.47C66.0658 87.47 64.9858 89.36 64.9858 91.34C64.9858 93.365 66.0958 95.135 68.5408 95.135C69.7558 95.135 70.6858 94.745 71.5258 93.83L70.4458 92.9C69.8908 93.53 69.2758 93.74 68.5558 93.74C67.2958 93.74 66.5908 92.975 66.5308 91.79H71.7208C71.7508 91.565 71.7658 91.34 71.7658 91.115ZM66.5308 90.545C66.6358 89.63 67.2358 88.76 68.4208 88.76C69.5158 88.76 70.2508 89.465 70.2808 90.515V90.545H66.5308ZM75.7474 95.135C77.1574 95.135 78.5524 94.385 78.5524 92.735C78.5524 90.005 74.5474 90.815 74.5474 89.48C74.5474 89.03 74.9824 88.715 75.6724 88.715C76.5274 88.715 76.9924 89.18 77.2774 89.705L78.4774 89.045C77.9374 88.025 76.9774 87.47 75.7324 87.47C74.2774 87.47 73.0774 88.22 73.0774 89.6C73.0774 92.3 77.0374 91.34 77.0374 92.825C77.0374 93.35 76.5724 93.83 75.6874 93.83C74.6374 93.83 74.1424 93.17 73.9174 92.555L72.6724 93.11C73.0324 94.265 74.2174 95.135 75.7474 95.135ZM83.9089 93.665C83.5789 93.77 83.2789 93.83 83.0239 93.83C82.4389 93.83 82.0939 93.53 82.0939 92.9V88.85H83.9089V87.605H82.0939V84.86L80.5489 86.015V87.605H79.3339V88.85H80.5489V93.035C80.5489 94.52 81.4789 95.135 82.6489 95.135C83.0539 95.135 83.4889 95.06 83.9239 94.925L83.9089 93.665ZM88.0521 95.135C89.4621 95.135 90.8571 94.385 90.8571 92.735C90.8571 90.005 86.8521 90.815 86.8521 89.48C86.8521 89.03 87.2871 88.715 87.9771 88.715C88.8321 88.715 89.2971 89.18 89.5821 89.705L90.7821 89.045C90.2421 88.025 89.2821 87.47 88.0371 87.47C86.5821 87.47 85.3821 88.22 85.3821 89.6C85.3821 92.3 89.3421 91.34 89.3421 92.825C89.3421 93.35 88.8771 93.83 87.9921 93.83C86.9421 93.83 86.4471 93.17 86.2221 92.555L84.9771 93.11C85.3371 94.265 86.5221 95.135 88.0521 95.135Z" fill="#333333"/>
</svg>
