<svg width="120" height="120" viewBox="0 0 120 120" fill="none" xmlns="http://www.w3.org/2000/svg">
<rect x="0.479989" y="0.479989" width="119.04" height="119.04" rx="59.52" fill="white" stroke="#00E676" stroke-width="0.959978"/>
<path d="M17.5255 69.545L14.5855 77.255L11.6605 69.545H9.35051V80H10.9555V71.765L13.8055 79.1H15.3655L18.2305 71.765V80H19.8355V69.545H17.5255ZM28.5749 76.115C28.5749 74.18 27.5249 72.47 25.2299 72.47C22.8749 72.47 21.7949 74.36 21.7949 76.34C21.7949 78.365 22.9049 80.135 25.3499 80.135C26.5649 80.135 27.4949 79.745 28.3349 78.83L27.2549 77.9C26.6999 78.53 26.0849 78.74 25.3649 78.74C24.1049 78.74 23.3999 77.975 23.3399 76.79H28.5299C28.5599 76.565 28.5749 76.34 28.5749 76.115ZM23.3399 75.545C23.4449 74.63 24.0449 73.76 25.2299 73.76C26.3249 73.76 27.0599 74.465 27.0899 75.515V75.545H23.3399ZM35.0914 69.545V73.43C34.6264 72.83 33.7714 72.455 32.8564 72.455C30.9664 72.455 29.6914 73.91 29.6914 76.295C29.6914 78.515 30.8014 80.135 32.8564 80.135C33.7414 80.135 34.5814 79.835 35.0914 79.175V80H36.6364V69.545H35.0914ZM33.2014 78.725C31.8814 78.725 31.2364 77.78 31.2364 76.31C31.2364 74.795 31.9114 73.85 33.2164 73.85C34.5664 73.85 35.2414 74.9 35.2414 76.31C35.2414 77.69 34.5964 78.725 33.2014 78.725ZM38.9026 71.165H40.5526V69.545H38.9026V71.165ZM38.9626 80H40.5076V72.605H38.9626V80ZM45.6802 80.135C47.1052 80.135 48.2302 79.37 48.7252 77.99L47.3152 77.45C47.0902 78.275 46.4602 78.785 45.6802 78.785C44.3002 78.785 43.7602 77.615 43.7602 76.325C43.7602 75.035 44.3152 73.82 45.6652 73.82C46.4752 73.82 47.0902 74.345 47.3302 75.17L48.8002 74.6C48.2302 73.16 47.0902 72.47 45.6652 72.47C43.3102 72.47 42.1852 74.375 42.1852 76.325C42.1852 78.305 43.3552 80.135 45.6802 80.135ZM50.2405 71.165H51.8905V69.545H50.2405V71.165ZM50.3005 80H51.8455V72.605H50.3005V80ZM58.008 72.47C57.048 72.47 56.208 72.815 55.698 73.52V72.605H54.153V80H55.698V76.925C55.698 75.35 55.968 73.82 57.558 73.82C58.833 73.82 58.998 74.825 58.998 75.695V80H60.543V75.305C60.543 73.49 59.643 72.47 58.008 72.47ZM68.8581 76.115C68.8581 74.18 67.8081 72.47 65.5131 72.47C63.1581 72.47 62.0781 74.36 62.0781 76.34C62.0781 78.365 63.1881 80.135 65.6331 80.135C66.8481 80.135 67.7781 79.745 68.6181 78.83L67.5381 77.9C66.9831 78.53 66.3681 78.74 65.6481 78.74C64.3881 78.74 63.6831 77.975 63.6231 76.79H68.8131C68.8431 76.565 68.8581 76.34 68.8581 76.115ZM63.6231 75.545C63.7281 74.63 64.3281 73.76 65.5131 73.76C66.6081 73.76 67.3431 74.465 67.3731 75.515V75.545H63.6231ZM72.8396 80.135C74.2496 80.135 75.6446 79.385 75.6446 77.735C75.6446 75.005 71.6396 75.815 71.6396 74.48C71.6396 74.03 72.0746 73.715 72.7646 73.715C73.6196 73.715 74.0846 74.18 74.3696 74.705L75.5696 74.045C75.0296 73.025 74.0696 72.47 72.8246 72.47C71.3696 72.47 70.1696 73.22 70.1696 74.6C70.1696 77.3 74.1296 76.34 74.1296 77.825C74.1296 78.35 73.6646 78.83 72.7796 78.83C71.7296 78.83 71.2346 78.17 71.0096 77.555L69.7646 78.11C70.1246 79.265 71.3096 80.135 72.8396 80.135ZM85.1401 80.195C87.7201 80.195 89.0701 78.83 89.0701 76.145V69.545H87.4651V76.025C87.4651 77.885 86.7751 78.635 85.1401 78.635C83.5051 78.635 82.8301 77.9 82.8301 76.04V69.545H81.2251V76.22C81.2251 78.86 82.5751 80.195 85.1401 80.195ZM95.2297 72.47C94.2697 72.47 93.4297 72.815 92.9197 73.52V72.605H91.3747V80H92.9197V76.925C92.9197 75.35 93.1897 73.82 94.7797 73.82C96.0547 73.82 96.2197 74.825 96.2197 75.695V80H97.7647V75.305C97.7647 73.49 96.8647 72.47 95.2297 72.47ZM103.56 78.665C103.23 78.77 102.93 78.83 102.675 78.83C102.09 78.83 101.745 78.53 101.745 77.9V73.85H103.56V72.605H101.745V69.86L100.2 71.015V72.605H98.9848V73.85H100.2V78.035C100.2 79.52 101.13 80.135 102.3 80.135C102.705 80.135 103.14 80.06 103.575 79.925L103.56 78.665ZM105.216 71.165H106.866V69.545H105.216V71.165ZM105.276 80H106.821V72.605H105.276V80ZM110.689 80.135C111.034 80.135 111.424 80.06 111.799 79.925V78.665C111.574 78.74 111.364 78.77 111.184 78.77C110.794 78.77 110.599 78.575 110.599 78.185V69.545H109.054V78.29C109.054 79.55 109.729 80.135 110.689 80.135ZM38.4891 100L35.6541 95.365C36.9591 94.975 37.6641 94 37.6641 92.515C37.6641 90.64 36.5541 89.545 34.1391 89.545H30.8691V100H32.4591V95.56H33.4041H34.0641L36.6141 100H38.4891ZM32.4591 94.09V91.03H33.9741C35.3391 91.03 36.0441 91.435 36.0441 92.545C36.0441 93.655 35.3391 94.09 33.9741 94.09H32.4591ZM45.8893 96.115C45.8893 94.18 44.8393 92.47 42.5443 92.47C40.1893 92.47 39.1093 94.36 39.1093 96.34C39.1093 98.365 40.2193 100.135 42.6643 100.135C43.8793 100.135 44.8093 99.745 45.6493 98.83L44.5693 97.9C44.0143 98.53 43.3993 98.74 42.6793 98.74C41.4193 98.74 40.7143 97.975 40.6543 96.79H45.8443C45.8743 96.565 45.8893 96.34 45.8893 96.115ZM40.6543 95.545C40.7593 94.63 41.3593 93.76 42.5443 93.76C43.6393 93.76 44.3743 94.465 44.4043 95.515V95.545H40.6543ZM49.4809 100H50.7709L53.7859 92.605H52.1059L50.1259 98.005L48.1609 92.605H46.4659L49.4809 100ZM60.9479 96.115C60.9479 94.18 59.8979 92.47 57.6029 92.47C55.2479 92.47 54.1679 94.36 54.1679 96.34C54.1679 98.365 55.2779 100.135 57.7229 100.135C58.9379 100.135 59.8679 99.745 60.7079 98.83L59.6279 97.9C59.0729 98.53 58.4579 98.74 57.7379 98.74C56.4779 98.74 55.7729 97.975 55.7129 96.79H60.9029C60.9329 96.565 60.9479 96.34 60.9479 96.115ZM55.7129 95.545C55.8179 94.63 56.4179 93.76 57.6029 93.76C58.6979 93.76 59.4329 94.465 59.4629 95.515V95.545H55.7129ZM66.2345 92.47C65.4245 92.47 64.5695 92.89 64.1945 93.82V92.605H62.6345V100H64.1795V96.145C64.1795 94.675 64.8245 93.94 65.9345 93.94C66.2795 93.94 66.5645 94.03 66.8495 94.195L67.5995 92.845C67.1495 92.575 66.7145 92.47 66.2345 92.47ZM70.7156 100.135C72.1256 100.135 73.5206 99.385 73.5206 97.735C73.5206 95.005 69.5156 95.815 69.5156 94.48C69.5156 94.03 69.9506 93.715 70.6406 93.715C71.4956 93.715 71.9606 94.18 72.2456 94.705L73.4456 94.045C72.9056 93.025 71.9456 92.47 70.7006 92.47C69.2456 92.47 68.0456 93.22 68.0456 94.6C68.0456 97.3 72.0056 96.34 72.0056 97.825C72.0056 98.35 71.5406 98.83 70.6556 98.83C69.6056 98.83 69.1106 98.17 68.8856 97.555L67.6406 98.11C68.0006 99.265 69.1856 100.135 70.7156 100.135ZM81.3532 96.115C81.3532 94.18 80.3032 92.47 78.0082 92.47C75.6532 92.47 74.5732 94.36 74.5732 96.34C74.5732 98.365 75.6832 100.135 78.1282 100.135C79.3432 100.135 80.2732 99.745 81.1132 98.83L80.0332 97.9C79.4782 98.53 78.8632 98.74 78.1432 98.74C76.8832 98.74 76.1782 97.975 76.1182 96.79H81.3082C81.3382 96.565 81.3532 96.34 81.3532 96.115ZM76.1182 95.545C76.2232 94.63 76.8232 93.76 78.0082 93.76C79.1032 93.76 79.8382 94.465 79.8682 95.515V95.545H76.1182ZM87.8698 89.545V93.43C87.4048 92.83 86.5498 92.455 85.6348 92.455C83.7448 92.455 82.4698 93.91 82.4698 96.295C82.4698 98.515 83.5798 100.135 85.6348 100.135C86.5198 100.135 87.3598 99.835 87.8698 99.175V100H89.4148V89.545H87.8698ZM85.9798 98.725C84.6598 98.725 84.0148 97.78 84.0148 96.31C84.0148 94.795 84.6898 93.85 85.9948 93.85C87.3448 93.85 88.0198 94.9 88.0198 96.31C88.0198 97.69 87.3748 98.725 85.9798 98.725Z" fill="#333333"/>
<path d="M52.8488 28.9286C56.1815 25.5951 60.2697 21.5053 60.7362 21.042C63.8249 17.9453 68.8454 17.9453 71.9341 21.042C75.0308 24.1308 75.0308 29.1512 71.9341 32.2399C71.4732 32.7048 67.2463 36.9301 64.0475 40.1274L52.8488 28.9286Z" fill="#00BCD4"/>
<path d="M65.1718 39.0032C65.1718 39.0032 58.1572 46.0163 57.6804 46.4931C54.5916 49.5898 49.5712 49.5898 46.4824 46.4931C43.3857 43.4043 43.3857 38.3839 46.4824 35.2951C46.4824 35.2951 50.4123 31.3669 53.9747 27.8037L65.1718 39.0032Z" fill="#E91E63"/>
<path d="M64.0483 40.1275C64.4206 39.7553 64.8007 39.3751 65.173 39.0029L57.5176 31.3475C57.1422 31.7229 56.7668 32.0983 56.3929 32.4722L64.0483 40.1275Z" fill="#00838F"/>
<path d="M55.6524 29.4827L53.9734 27.8037L52.8488 28.9283L54.5278 30.6074C54.9016 30.2343 55.2778 29.8581 55.6524 29.4827Z" fill="#00838F"/>
<path d="M48.1605 36.9751C45.9952 39.1404 45.9952 42.6506 48.1605 44.8151C48.3395 44.9941 48.5319 45.1517 48.7283 45.3013C47.6869 43.3538 47.9854 40.8781 49.628 39.2355C49.9432 38.9203 53.0684 35.7951 56.3916 32.4719L54.5281 30.6075C51.3965 33.7399 48.4622 36.6734 48.1605 36.9751Z" fill="#FCE4EC"/>
<path d="M70.742 23.2884C70.5931 23.092 70.4355 22.8996 70.2565 22.7198C68.0912 20.5545 64.5811 20.5545 62.4158 22.7198C62.042 23.0936 58.8962 26.2394 55.6522 29.4834L57.5166 31.3477C60.9839 27.8804 64.3483 24.516 64.6762 24.1882C66.3187 22.5456 68.7945 22.2462 70.742 23.2884Z" fill="#E0F7FA"/>
<path d="M54.5278 30.608L56.3922 32.4724C56.766 32.0986 57.1414 31.7231 57.5168 31.3477L55.6525 29.4834C55.2778 29.8588 54.9017 30.235 54.5278 30.608Z" fill="#80DEEA"/>
<path d="M66.3362 50.3997C71.585 50.3997 75.84 46.1447 75.84 40.8959C75.84 35.647 71.585 31.392 66.3362 31.392C61.0873 31.392 56.8323 35.647 56.8323 40.8959C56.8323 46.1447 61.0873 50.3997 66.3362 50.3997Z" fill="#B0BEC5"/>
<path d="M66.3359 48.8149C70.71 48.8149 74.2558 45.269 74.2558 40.895C74.2558 36.521 70.71 32.9751 66.3359 32.9751C61.9619 32.9751 58.416 36.521 58.416 40.895C58.416 45.269 61.9619 48.8149 66.3359 48.8149Z" fill="#CFD8DC"/>
<path d="M71.9363 35.3048L60.7454 46.4956C60.4841 46.2422 60.2465 45.9729 60.0326 45.6799C59.9297 45.5452 59.8267 45.4027 59.7317 45.2601L70.7008 34.299C70.8433 34.3861 70.9859 34.489 71.1205 34.592C71.4135 34.8058 71.6828 35.0434 71.9363 35.3048Z" fill="#C0CBD1"/>
<path d="M72.9341 36.5313L61.9809 47.4924C61.6799 47.3024 61.3869 47.0806 61.1176 46.843C60.9909 46.7321 60.8642 46.6133 60.7454 46.4945L71.9362 35.3037C72.055 35.4225 72.1738 35.5492 72.2847 35.6759C72.5223 35.9452 72.7361 36.2303 72.9341 36.5313Z" fill="#ECEFF1"/>
</svg>
