<svg width="120" height="120" viewBox="0 0 120 120" fill="none" xmlns="http://www.w3.org/2000/svg">
<rect x="0.479989" y="0.479989" width="119.04" height="119.04" rx="59.52" fill="white" stroke="#00E676" stroke-width="0.959978"/>
<path d="M47.5694 66.545L44.6294 74.255L41.7044 66.545H39.3944V77H40.9994V68.765L43.8494 76.1H45.4094L48.2744 68.765V77H49.8794V66.545H47.5694ZM55.4538 77.135C57.6738 77.135 59.0988 75.41 59.0988 73.295C59.0988 71.165 57.6738 69.47 55.4538 69.47C53.2188 69.47 51.7938 71.165 51.7938 73.295C51.7938 75.41 53.2188 77.135 55.4538 77.135ZM55.4538 75.785C54.0138 75.785 53.3388 74.66 53.3388 73.295C53.3388 71.93 54.0138 70.82 55.4538 70.82C56.8788 70.82 57.5538 71.93 57.5538 73.295C57.5538 74.645 56.8938 75.785 55.4538 75.785ZM64.5545 69.455C63.6395 69.455 62.7845 69.83 62.3195 70.43V66.545H60.7745V77H62.3195V76.175C62.8295 76.835 63.6695 77.135 64.5545 77.135C66.6095 77.135 67.7195 75.515 67.7195 73.295C67.7195 70.91 66.4445 69.455 64.5545 69.455ZM64.2095 75.725C62.8145 75.725 62.1695 74.69 62.1695 73.31C62.1695 71.9 62.8445 70.85 64.1945 70.85C65.4995 70.85 66.1745 71.795 66.1745 73.31C66.1745 74.78 65.5295 75.725 64.2095 75.725ZM69.4006 68.165H71.0506V66.545H69.4006V68.165ZM69.4606 77H71.0056V69.605H69.4606V77ZM74.8732 77.135C75.2182 77.135 75.6082 77.06 75.9832 76.925V75.665C75.7582 75.74 75.5482 75.77 75.3682 75.77C74.9782 75.77 74.7832 75.575 74.7832 75.185V66.545H73.2382V75.29C73.2382 76.55 73.9132 77.135 74.8732 77.135ZM83.609 73.115C83.609 71.18 82.559 69.47 80.264 69.47C77.909 69.47 76.829 71.36 76.829 73.34C76.829 75.365 77.939 77.135 80.384 77.135C81.599 77.135 82.529 76.745 83.369 75.83L82.289 74.9C81.734 75.53 81.119 75.74 80.399 75.74C79.139 75.74 78.434 74.975 78.374 73.79H83.564C83.594 73.565 83.609 73.34 83.609 73.115ZM78.374 72.545C78.479 71.63 79.079 70.76 80.264 70.76C81.359 70.76 82.094 71.465 82.124 72.515V72.545H78.374ZM30.602 97H32.357L28.277 86.545H27.032L22.952 97H24.692L25.562 94.63H29.747L30.602 97ZM26.087 93.175L27.662 88.885L29.222 93.175H26.087ZM37.4915 89.455C36.6215 89.455 35.7665 89.755 35.2565 90.43V89.605H33.7115V100.06H35.2565V96.16C35.7215 96.76 36.5615 97.135 37.4915 97.135C39.4115 97.135 40.6565 95.65 40.6565 93.31C40.6565 91.06 39.5165 89.455 37.4915 89.455ZM37.1315 95.785C35.7515 95.785 35.1065 94.72 35.1065 93.295C35.1065 91.825 35.7815 90.82 37.1465 90.82C38.4515 90.82 39.1115 91.735 39.1115 93.295C39.1115 94.81 38.4665 95.785 37.1315 95.785ZM46.1926 89.455C45.3226 89.455 44.4676 89.755 43.9576 90.43V89.605H42.4126V100.06H43.9576V96.16C44.4226 96.76 45.2626 97.135 46.1926 97.135C48.1126 97.135 49.3576 95.65 49.3576 93.31C49.3576 91.06 48.2176 89.455 46.1926 89.455ZM45.8326 95.785C44.4526 95.785 43.8076 94.72 43.8076 93.295C43.8076 91.825 44.4826 90.82 45.8476 90.82C47.1526 90.82 47.8126 91.735 47.8126 93.295C47.8126 94.81 47.1676 95.785 45.8326 95.785ZM52.6588 97.135C53.0038 97.135 53.3938 97.06 53.7688 96.925V95.665C53.5438 95.74 53.3338 95.77 53.1538 95.77C52.7638 95.77 52.5688 95.575 52.5688 95.185V86.545H51.0238V95.29C51.0238 96.55 51.6988 97.135 52.6588 97.135ZM55.1697 88.165H56.8197V86.545H55.1697V88.165ZM55.2297 97H56.7747V89.605H55.2297V97ZM61.9472 97.135C63.3722 97.135 64.4972 96.37 64.9922 94.99L63.5822 94.45C63.3572 95.275 62.7272 95.785 61.9472 95.785C60.5672 95.785 60.0272 94.615 60.0272 93.325C60.0272 92.035 60.5822 90.82 61.9322 90.82C62.7422 90.82 63.3572 91.345 63.5972 92.17L65.0672 91.6C64.4972 90.16 63.3572 89.47 61.9322 89.47C59.5772 89.47 58.4522 91.375 58.4522 93.325C58.4522 95.305 59.6222 97.135 61.9472 97.135ZM69.2836 89.47C67.9636 89.47 66.9136 89.98 66.0586 91.03L67.1836 91.975C67.7386 91.21 68.4586 90.82 69.2686 90.82C70.2436 90.82 70.8286 91.39 70.8286 92.35V92.605H69.1036C68.0536 92.605 67.3636 92.725 66.8536 92.98C66.1936 93.31 65.8336 93.94 65.8336 94.78C65.8336 96.19 66.8836 97.135 68.4586 97.135C69.5086 97.135 70.3636 96.7 70.8436 95.95L70.9636 97H72.3736V92.35C72.3736 90.55 71.2036 89.47 69.2836 89.47ZM68.7436 95.83C67.9036 95.83 67.3786 95.44 67.3786 94.81C67.3786 94.495 67.4836 94.24 67.7086 94.09C67.9936 93.865 68.4286 93.79 69.2836 93.79H70.8286V93.82C70.8286 94.99 69.9436 95.83 68.7436 95.83ZM78.0934 95.665C77.7634 95.77 77.4634 95.83 77.2084 95.83C76.6234 95.83 76.2784 95.53 76.2784 94.9V90.85H78.0934V89.605H76.2784V86.86L74.7334 88.015V89.605H73.5184V90.85H74.7334V95.035C74.7334 96.52 75.6634 97.135 76.8334 97.135C77.2384 97.135 77.6734 97.06 78.1084 96.925L78.0934 95.665ZM79.7497 88.165H81.3997V86.545H79.7497V88.165ZM79.8097 97H81.3547V89.605H79.8097V97ZM86.6623 97.135C88.8823 97.135 90.3073 95.41 90.3073 93.295C90.3073 91.165 88.8823 89.47 86.6623 89.47C84.4273 89.47 83.0023 91.165 83.0023 93.295C83.0023 95.41 84.4273 97.135 86.6623 97.135ZM86.6623 95.785C85.2223 95.785 84.5473 94.66 84.5473 93.295C84.5473 91.93 85.2223 90.82 86.6623 90.82C88.0873 90.82 88.7623 91.93 88.7623 93.295C88.7623 94.645 88.1023 95.785 86.6623 95.785ZM95.823 89.47C94.863 89.47 94.023 89.815 93.513 90.52V89.605H91.968V97H93.513V93.925C93.513 92.35 93.783 90.82 95.373 90.82C96.648 90.82 96.813 91.825 96.813 92.695V97H98.358V92.305C98.358 90.49 97.458 89.47 95.823 89.47Z" fill="#333333"/>
<path d="M70.5602 22.1598V49.6798C70.5602 51.5718 69.0122 53.1198 67.1202 53.1198H53.3602C51.4682 53.1198 49.9202 51.5718 49.9202 49.6798V22.1598C49.9202 20.2678 51.4682 18.7198 53.3602 18.7198H67.1202C69.0122 18.7198 70.5602 20.2678 70.5602 22.1598Z" fill="#E38939"/>
<path d="M70.5602 22.1598V49.6798C70.5602 51.5718 69.0122 53.1198 67.1202 53.1198H53.3602C51.4682 53.1198 49.9202 51.5718 49.9202 49.6798V22.1598C49.9202 20.2678 51.4682 18.7198 53.3602 18.7198H67.1202C69.0122 18.7198 70.5602 20.2678 70.5602 22.1598Z" fill="url(#paint0_linear)"/>
<path d="M53.3594 51.3999H67.1194C68.0697 51.3999 68.8394 50.6302 68.8394 49.6799V22.1599C68.8394 21.2096 68.0697 20.4399 67.1194 20.4399H66.2594C65.7847 20.4399 65.3994 20.8252 65.3994 21.2999C65.3994 22.2502 64.6297 23.0199 63.6794 23.0199H56.7994C55.8491 23.0199 55.0794 22.2502 55.0794 21.2999C55.0794 20.8252 54.6941 20.4399 54.2194 20.4399H53.3594C52.4091 20.4399 51.6394 21.2096 51.6394 22.1599V49.6799C51.6394 50.6302 52.4091 51.3999 53.3594 51.3999Z" fill="#FFFDF9"/>
<path d="M53.1204 33.0062C53.0499 33.0245 53 33.0854 53 33.1903C53 33.4979 53 36.3992 53 36.3992C53 36.3992 53 39.5345 53 39.673C53 39.7491 53.0336 39.8002 53.0854 39.8191L56.5309 36.3935L53.1204 33.0062Z" fill="#4DB6AC"/>
<path d="M57.4795 35.4505L56.0612 34.6317C56.0612 34.6317 53.4584 33.1287 53.3054 33.0404C53.2392 33.0022 53.174 32.9921 53.1204 33.0061L56.5311 36.3934L57.4795 35.4505Z" fill="#DCE775"/>
<path d="M53.2419 39.7946C53.3327 39.742 55.8514 38.2879 57.4871 37.3434L56.5309 36.3938L53.0853 39.8194C53.1277 39.8349 53.182 39.8291 53.2419 39.7946Z" fill="#D32F2F"/>
<path d="M58.8728 36.2548C58.7369 36.1815 57.4899 35.4564 57.4899 35.4564L57.4795 35.4504L56.5309 36.3934L57.4872 37.343C58.2438 36.9061 58.8122 36.5781 58.8631 36.5486C59.0242 36.4557 59.0087 36.328 58.8728 36.2548Z" fill="#FBC02D"/>
<path d="M67.5121 36.5857C67.5121 38.4712 65.9831 40.0003 64.0975 40.0003C62.2119 40.0003 60.6829 38.4712 60.6829 36.5857C60.6829 34.7001 62.2119 33.171 64.0975 33.171C65.9831 33.171 67.5121 34.7001 67.5121 36.5857Z" fill="#2196F3"/>
<path d="M65.4094 36.563L64.986 36.809L63.8294 34.819C63.7833 34.7396 63.8101 34.6375 63.89 34.5909L64.0254 34.5122C64.1048 34.4661 64.2069 34.4929 64.2528 34.5728L65.4094 36.563Z" fill="white"/>
<path d="M65.0331 36.8912L65.4565 36.6451L65.702 37.0667L65.2786 37.3127L65.0331 36.8912Z" fill="white"/>
<path d="M62.3629 37.2947L63.3853 35.5454L63.8215 35.8001L62.7991 37.5495L62.3629 37.2947Z" fill="white"/>
<path d="M62.0974 38.1864L62.3081 37.3881L62.7443 37.6435L62.152 38.2183C62.1419 38.2291 62.1254 38.231 62.1127 38.2236C62.0994 38.2158 62.0935 38.2011 62.0974 38.1864Z" fill="white"/>
<path d="M63.4205 35.4835L63.5679 35.2327C63.614 35.1526 63.7166 35.126 63.796 35.1726L63.944 35.2593C64.0234 35.3059 64.05 35.408 64.0034 35.4874L63.8568 35.7389L63.4205 35.4835Z" fill="white"/>
<path d="M65.6381 37.1965C65.5694 37.2357 65.4666 37.2965 65.406 37.3325C65.2927 37.4 65.3801 37.5987 65.406 37.6414C65.5527 37.8874 65.7041 37.8528 65.8182 38.0269C65.8808 38.1223 65.8636 38.1643 65.8829 38.1963C65.8909 38.2075 65.9155 38.219 65.9249 38.2057C66.1009 37.9622 66.0495 37.5434 65.9215 37.3566C65.8622 37.2692 65.7541 37.1304 65.6381 37.1965Z" fill="white"/>
<path d="M66.255 36.8266H65.6467L65.3812 36.3391H66.2549V36.8266H66.255Z" fill="white"/>
<path d="M64.8858 36.8266H63.2992L63.57 36.3391H64.615L64.8858 36.8266Z" fill="white"/>
<path d="M62.5515 36.8266H61.934V36.3391H62.8404L62.5515 36.8266Z" fill="white"/>
<defs>
<linearGradient id="paint0_linear" x1="49.6832" y1="35.9164" x2="70.7871" y2="35.9164" gradientUnits="userSpaceOnUse">
<stop offset="0.00261739" stop-color="#00A551"/>
<stop offset="0.1804" stop-color="#03A650"/>
<stop offset="0.327" stop-color="#0DA84F"/>
<stop offset="0.4626" stop-color="#1FAD4C"/>
<stop offset="0.5917" stop-color="#37B347"/>
<stop offset="0.716" stop-color="#56BB42"/>
<stop offset="0.8368" stop-color="#7DC53B"/>
<stop offset="0.9526" stop-color="#A9D134"/>
<stop offset="1" stop-color="#BED630"/>
</linearGradient>
</defs>
</svg>
