<svg width="120" height="120" viewBox="0 0 120 120" fill="none" xmlns="http://www.w3.org/2000/svg">
<rect x="0.479989" y="0.479989" width="119.04" height="119.04" rx="59.52" fill="white" stroke="#00E676" stroke-width="0.959978"/>
<path d="M59.951 12.8597C57.5185 12.8597 55.5263 14.8519 55.5263 17.2844C55.5263 19.7168 57.5185 21.709 59.951 21.709C62.3835 21.709 64.3757 19.7168 64.3757 17.2844C64.3757 14.8519 62.3835 12.8597 59.951 12.8597ZM59.951 20.6029C58.1253 20.6029 56.6325 19.1101 56.6325 17.2844C56.6325 15.4586 58.1253 13.9659 59.951 13.9659C61.7767 13.9659 63.2695 15.4586 63.2695 17.2844C63.2695 19.1101 61.7767 20.6029 59.951 20.6029Z" fill="#03A9F4"/>
<path d="M59.9509 9.54047C55.6628 9.54047 52.2077 12.9956 52.2077 17.2837C52.2077 21.5717 55.6628 25.0268 59.9509 25.0268C64.239 25.0268 67.6941 21.5717 67.6941 17.2837C67.6941 12.9956 64.239 9.54047 59.9509 9.54047ZM59.9509 23.9207C56.2696 23.9207 53.3139 20.965 53.3139 17.2837C53.3139 13.6023 56.2696 10.6466 59.9509 10.6466C63.6322 10.6466 66.5879 13.6023 66.5879 17.2837C66.5879 20.965 63.6322 23.9207 59.9509 23.9207Z" fill="#4FC3F7"/>
<path d="M59.9509 6.22205C53.868 6.22205 48.8892 11.2009 48.8892 17.2837C48.8892 23.3666 53.868 28.3454 59.9509 28.3454C66.0337 28.3454 71.0126 23.3666 71.0126 17.2837C71.0126 11.2009 66.0337 6.22205 59.9509 6.22205ZM59.9509 27.2393C54.4748 27.2393 49.9953 22.7598 49.9953 17.2837C49.9953 11.8077 54.4748 7.32822 59.9509 7.32822C65.427 7.32822 69.9064 11.8077 69.9064 17.2837C69.9064 22.7598 65.427 27.2393 59.9509 27.2393Z" fill="#B3E5FC"/>
<path d="M61.0574 17.2841C61.0574 17.8948 60.5618 18.3903 59.9512 18.3903C59.3406 18.3903 58.845 17.8948 58.845 17.2841C58.845 16.6735 59.3406 16.178 59.9512 16.178C60.5618 16.178 61.0574 16.6735 61.0574 17.2841Z" fill="#03A9F4"/>
<path d="M69.9065 17.8356H63.2695L60.504 20.6011V27.2381C60.504 27.8476 61.0007 28.3442 61.6102 28.3442H69.9065C70.516 28.3442 71.0126 27.8476 71.0126 27.2381V18.9418C71.0126 18.3323 70.516 17.8356 69.9065 17.8356Z" fill="#009688"/>
<path d="M67.6934 25.5807H63.8218C63.4889 25.5807 63.2687 25.3605 63.2687 25.0276V21.156C63.2687 20.823 63.4889 20.6029 63.8218 20.6029H67.6934C68.0264 20.6029 68.2465 20.823 68.2465 21.156V25.0276C68.2465 25.3605 68.0264 25.5807 67.6934 25.5807Z" fill="#A5D6A7"/>
<path d="M40.2357 30.0421V39.0206C40.2357 40.1429 39.3174 41.0612 38.1951 41.0612H29.2166C28.0943 41.0612 27.176 40.1429 27.176 39.0206V30.0421C27.176 28.9198 28.0943 28.0015 29.2166 28.0015H38.1951C39.3174 28.0015 40.2357 28.9198 40.2357 30.0421Z" fill="white"/>
<path d="M34.8187 32.704C34.4514 32.704 34.1249 32.8672 33.9209 33.1325C33.7168 32.8672 33.3903 32.704 33.023 32.704C32.3905 32.704 31.8803 33.2141 31.8803 33.8467C31.8803 34.4793 32.2272 35.0302 32.5537 35.3567C32.819 35.622 33.2067 36.0097 33.9209 36.3566C34.6351 36.0097 35.0228 35.622 35.2881 35.3567C35.6146 35.0302 35.9615 34.4793 35.9615 33.8467C35.9615 33.2141 35.4513 32.704 34.8187 32.704Z" fill="#F3797B"/>
<path d="M22.6867 31.6752V37.3888C22.6867 37.9193 23.0744 38.3478 23.605 38.4091L25.5435 38.6131C26.1965 38.6743 26.7883 39.0212 27.176 39.5314V29.5326C26.7883 30.0631 26.1965 30.3896 25.5435 30.4508L23.5846 30.6549C23.0744 30.7161 22.6867 31.1446 22.6867 31.6752Z" fill="#53C5CE"/>
<path d="M27.1763 29.5326C26.7886 30.0631 26.1969 30.3896 25.5439 30.4508L23.5849 30.6549C23.0748 30.7161 22.6667 31.1446 22.6667 31.6752V37.3888C22.6667 37.9193 23.0544 38.3478 23.5849 38.4091L25.5439 38.6131C26.1969 38.6743 26.7886 39.0212 27.1763 39.5314" stroke="#454B54" stroke-width="1.115" stroke-miterlimit="10" stroke-linecap="round" stroke-linejoin="round"/>
<path d="M44.7254 31.6752V37.3888C44.7254 37.9193 44.3376 38.3478 43.8071 38.4091L41.8482 38.6131C41.1952 38.6743 40.6034 39.0212 40.2157 39.5314V29.5326C40.6034 30.0631 41.1952 30.3896 41.8482 30.4508L43.8071 30.6549C44.3376 30.7161 44.7254 31.1446 44.7254 31.6752Z" fill="#22B6C6"/>
<path d="M43.0928 38.4685L43.807 38.3869C44.3172 38.3257 44.7253 37.8971 44.7253 37.3666V31.653C44.7253 31.1225 44.3376 30.6939 43.807 30.6327L43.0928 30.5511V38.4685Z" fill="#1FA1A8"/>
<path d="M44.7254 31.6752V37.3888C44.7254 37.9193 44.3376 38.3478 43.8071 38.4091L41.8482 38.6131C41.1952 38.6743 40.6034 39.0212 40.2157 39.5314V29.5326C40.6034 30.0631 41.1952 30.3896 41.8482 30.4508L43.8071 30.6549C44.3376 30.7161 44.7254 31.1446 44.7254 31.6752Z" stroke="#454B54" stroke-width="1.115" stroke-miterlimit="10" stroke-linecap="round" stroke-linejoin="round"/>
<path d="M40.2357 30.0421V39.0206C40.2357 40.1429 39.3174 41.0612 38.1951 41.0612H29.2166C28.0943 41.0612 27.176 40.1429 27.176 39.0206V30.0421C27.176 28.9198 28.0943 28.0015 29.2166 28.0015H38.1951C39.3174 28.0015 40.2357 28.9198 40.2357 30.0421Z" stroke="#454B54" stroke-width="1.115" stroke-miterlimit="10" stroke-linecap="round" stroke-linejoin="round"/>
<path d="M17.8891 65.5011H15.8891V69.0011H17.8891V65.5011Z" fill="#90CAF9"/>
<path d="M23.3893 48.9991C23.3893 48.9991 20.3893 47.9991 16.8893 47.9991C13.3893 47.9991 10.3893 48.9991 10.3893 48.9991C10.3893 48.9991 8.88928 49.4996 8.88928 50.4991V51.4991V60.9991V62.9991C8.88928 62.9991 8.88928 66.4991 12.3893 66.4991C15.8893 66.4991 17.8893 66.4991 21.3893 66.4991C24.8893 66.4991 24.8893 62.9991 24.8893 62.9991V60.9991V51.4991V50.4991C24.8893 49.4996 23.3893 48.9991 23.3893 48.9991Z" fill="#1565C0"/>
<path d="M17.3891 65.0001H16.3891C15.5606 65.0001 14.8891 65.6721 14.8891 66.5001H18.8891C18.8891 65.6721 18.2176 65.0001 17.3891 65.0001Z" fill="#0D47A1"/>
<path d="M22.8892 50.9995H10.8892V59.4995H22.8892V50.9995Z" fill="white"/>
<path d="M14.8891 56.2494C14.8891 55.1449 16.8891 52.2494 16.8891 52.2494C16.8891 52.2494 18.8891 55.1449 18.8891 56.2494C18.8891 57.3539 17.9941 58.2494 16.8891 58.2494C15.7841 58.2494 14.8891 57.3539 14.8891 56.2494Z" fill="#F44336"/>
<path d="M16.3892 63.5C16.3892 63.7765 16.1657 64 15.8892 64H11.3892C11.1127 64 10.8892 63.7765 10.8892 63.5V61.5C10.8892 61.2235 11.1127 61 11.3892 61H15.8892C16.1657 61 16.3892 61.2235 16.3892 61.5V63.5Z" fill="#90CAF9"/>
<path d="M22.889 63.4987C22.889 63.7752 22.6655 63.9987 22.389 63.9987H17.889C17.6125 63.9987 17.389 63.7752 17.389 63.4987V61.4987C17.389 61.2222 17.6125 60.9987 17.889 60.9987H22.389C22.6655 60.9987 22.889 61.2222 22.889 61.4987V63.4987Z" fill="#90CAF9"/>
<path d="M95.1563 43.0822H81.2896C80.3337 43.0822 79.5563 42.3048 79.5563 41.3488V29.2155C79.5563 28.2596 80.3337 27.4822 81.2896 27.4822H95.1563C96.1122 27.4822 96.8896 28.2596 96.8896 29.2155V41.3488C96.8896 42.3048 96.1122 43.0822 95.1563 43.0822Z" fill="#455A64"/>
<path d="M85.1887 38.7499H83.4553V42.2165H85.1887V38.7499Z" fill="#FDD835"/>
<path d="M87.7891 38.7496H86.0558V42.2163H87.7891V38.7496Z" fill="#FDD835"/>
<path d="M90.3886 38.7496H88.6553V42.2163H90.3886V38.7496Z" fill="#FDD835"/>
<path d="M92.9886 38.7496H91.2553V42.2163H92.9886V38.7496Z" fill="#FDD835"/>
<path d="M84.3223 41.783C84.5616 41.783 84.7556 41.589 84.7556 41.3497C84.7556 41.1104 84.5616 40.9164 84.3223 40.9164C84.083 40.9164 83.889 41.1104 83.889 41.3497C83.889 41.589 84.083 41.783 84.3223 41.783Z" fill="#FFB300"/>
<path d="M86.9222 41.7819C87.1615 41.7819 87.3555 41.5879 87.3555 41.3486C87.3555 41.1093 87.1615 40.9153 86.9222 40.9153C86.6828 40.9153 86.4888 41.1093 86.4888 41.3486C86.4888 41.5879 86.6828 41.7819 86.9222 41.7819Z" fill="#FFB300"/>
<path d="M89.5222 41.7819C89.7615 41.7819 89.9555 41.5879 89.9555 41.3486C89.9555 41.1093 89.7615 40.9153 89.5222 40.9153C89.2829 40.9153 89.0889 41.1093 89.0889 41.3486C89.0889 41.5879 89.2829 41.7819 89.5222 41.7819Z" fill="#FFB300"/>
<path d="M92.1216 41.7819C92.361 41.7819 92.555 41.5879 92.555 41.3486C92.555 41.1093 92.361 40.9153 92.1216 40.9153C91.8823 40.9153 91.6883 41.1093 91.6883 41.3486C91.6883 41.5879 91.8823 41.7819 92.1216 41.7819Z" fill="#FFB300"/>
<path d="M95.4387 34.1226C95.7953 33.9415 96.0228 33.5788 96.0228 33.1788V29.2164C96.0228 28.7376 95.635 28.3497 95.1561 28.3497H88.2228H81.2895C80.8106 28.3497 80.4228 28.7376 80.4228 29.2164V33.1788C80.4228 33.5792 80.6503 33.9415 81.0069 34.1226C81.4307 34.3375 81.7228 34.7778 81.7228 35.2831C81.7228 35.7883 81.4307 36.2286 81.0069 36.4435C80.6503 36.6247 80.4228 36.9874 80.4228 37.3873V41.3497C80.4228 41.8286 80.8106 42.2164 81.2895 42.2164H82.1561V40.0497C82.1561 39.5731 82.5461 39.1831 83.0228 39.1831H88.2228H93.4228C93.8995 39.1831 94.2895 39.5731 94.2895 40.0497V42.2164H95.1561C95.635 42.2164 96.0228 41.8286 96.0228 41.3497V37.3873C96.0228 36.9869 95.7953 36.6247 95.4387 36.4435C95.0149 36.2286 94.7228 35.7883 94.7228 35.2831C94.7228 34.7778 95.0149 34.3375 95.4387 34.1226Z" fill="#ECEFF1"/>
<path d="M93.8556 30.083H82.1556V33.1163H93.8556V30.083Z" fill="#64DD17"/>
<path d="M91.6896 37.4492C92.6469 37.4492 93.4229 36.6732 93.4229 35.7159C93.4229 34.7586 92.6469 33.9825 91.6896 33.9825C90.7323 33.9825 89.9562 34.7586 89.9562 35.7159C89.9562 36.6732 90.7323 37.4492 91.6896 37.4492Z" fill="#37474F"/>
<path d="M86.9223 35.2833C87.1616 35.2833 87.3556 35.0893 87.3556 34.85C87.3556 34.6106 87.1616 34.4166 86.9223 34.4166C86.683 34.4166 86.489 34.6106 86.489 34.85C86.489 35.0893 86.683 35.2833 86.9223 35.2833Z" fill="#FF1744"/>
<path d="M88.6562 35.2833C88.8955 35.2833 89.0895 35.0893 89.0895 34.85C89.0895 34.6106 88.8955 34.4166 88.6562 34.4166C88.4168 34.4166 88.2228 34.6106 88.2228 34.85C88.2228 35.0893 88.4168 35.2833 88.6562 35.2833Z" fill="#FF1744"/>
<path d="M85.1889 35.2833C85.4283 35.2833 85.6223 35.0893 85.6223 34.85C85.6223 34.6106 85.4283 34.4166 85.1889 34.4166C84.9496 34.4166 84.7556 34.6106 84.7556 34.85C84.7556 35.0893 84.9496 35.2833 85.1889 35.2833Z" fill="#8BC34A"/>
<path d="M80.4225 34.8507C80.6617 34.8507 80.8559 35.0448 80.8559 35.284C80.8559 35.5232 80.6617 35.7174 80.4225 35.7174C80.1833 35.7174 79.9892 35.5232 79.9892 35.284C79.9892 35.0448 80.1833 34.8507 80.4225 34.8507ZM95.5892 35.284C95.5892 35.5232 95.7833 35.7174 96.0225 35.7174C96.2617 35.7174 96.4559 35.5232 96.4559 35.284C96.4559 35.0448 96.2617 34.8507 96.0225 34.8507C95.7833 34.8507 95.5892 35.0448 95.5892 35.284Z" fill="#90A4AE"/>
<path d="M83.8889 30.951H83.0223V32.251H83.8889V30.951Z" fill="#689F38"/>
<path d="M85.6228 30.9503H84.7561V32.2503H85.6228V30.9503Z" fill="#689F38"/>
<path d="M87.3566 30.9503H86.4899V32.2503H87.3566V30.9503Z" fill="#689F38"/>
<path d="M94.2228 51.6425C94.2228 50.6123 95.0581 49.777 96.0884 49.777H109.147C110.178 49.777 111.013 50.6123 111.013 51.6425V64.7015C111.013 65.7318 110.178 66.5671 109.147 66.5671H96.0884C95.0581 66.5671 94.2228 65.7318 94.2228 64.7015V51.6425Z" fill="#26A69A"/>
<path d="M106.415 61.437L109.614 57.5044C105.572 54.0424 99.6652 54.0414 95.6225 57.503L98.8238 61.437H106.415V61.437Z" fill="#EEEEEE"/>
<path d="M102.617 54.9081C105.104 54.9081 107.592 55.7738 109.614 57.505L106.415 61.4376H98.8236L95.6223 57.5036C97.6431 55.7733 100.13 54.9081 102.617 54.9081ZM102.617 53.9753C99.8389 53.9753 97.1394 54.9767 95.016 56.7951L94.3248 57.387L94.8989 58.0927L98.1002 62.0267L98.38 62.3704H98.8236H106.415H106.858L107.138 62.0267L110.338 58.0941L110.912 57.3884L110.221 56.7965C108.096 54.9772 105.396 53.9753 102.617 53.9753Z" fill="#00796B"/>
<path d="M102.995 54.9246C102.986 54.9246 102.976 54.9237 102.967 54.9237C102.68 54.9143 102.392 54.9176 102.105 54.9307C102.087 54.9316 102.07 54.9321 102.053 54.933V56.7696H102.995V54.9246V54.9246Z" fill="#90A4AE"/>
<path d="M97.6565 58.1352L98.4731 57.6698L97.6028 56.1661C97.3272 56.3121 97.0571 56.4712 96.7922 56.6428L97.6565 58.1352Z" fill="#90A4AE"/>
<path d="M99.7462 57.1548L100.656 56.9118L100.19 55.1964C99.8848 55.2673 99.5821 55.3522 99.2827 55.4506L99.7462 57.1548Z" fill="#90A4AE"/>
<path d="M104.863 55.1566L104.384 56.9396L105.295 57.1798L105.775 55.3949C105.473 55.3021 105.17 55.2228 104.863 55.1566Z" fill="#90A4AE"/>
<path d="M108.307 56.5551C108.04 56.3877 107.767 56.2338 107.489 56.0916L106.571 57.6875L107.39 58.1493L108.307 56.5551Z" fill="#90A4AE"/>
<path d="M104.043 61.4382L104.951 57.1647L102.385 61.4382H104.043Z" fill="#263238"/>
<path d="M38.3626 78.1118H41.3026C44.8276 78.1118 46.7326 76.2968 46.7326 72.9668C46.7326 69.5768 44.7676 67.6568 41.3176 67.6568H38.3626V78.1118ZM39.9676 76.6268V69.1418H41.3026C43.8976 69.1418 45.1126 70.3418 45.1126 72.9068C45.1126 75.4868 43.8976 76.6268 41.1526 76.6268H39.9676ZM48.5348 69.2768H50.1848V67.6568H48.5348V69.2768ZM48.5948 78.1118H50.1398V70.7168H48.5948V78.1118ZM55.1923 77.0618C54.2173 76.9268 53.4073 76.7618 53.4073 76.1618C53.4073 75.9368 53.5123 75.7718 53.7073 75.6518C54.1423 75.8468 54.6223 75.9668 55.1623 75.9668C56.7673 75.9668 58.0873 74.9318 58.0873 73.3268C58.0873 72.8318 57.9673 72.3818 57.7423 71.9918L58.7923 71.1368L57.9823 70.1468L56.8873 71.0918C56.3923 70.7618 55.7773 70.5818 55.1173 70.5818C53.4823 70.5818 52.1623 71.6768 52.1623 73.2368C52.1623 73.8818 52.3873 74.4668 52.7773 74.9318C52.2973 75.2918 52.0423 75.7568 52.0423 76.3868C52.0423 77.1518 52.4173 77.6018 52.9573 77.8868L51.8473 78.6668C51.8323 78.7418 51.8173 78.8168 51.8173 78.9968C51.8173 80.4968 53.0623 81.3068 55.2223 81.3068C57.1723 81.3068 58.5523 80.6618 58.5523 79.1618C58.5523 77.4518 56.6773 77.2718 55.1923 77.0618ZM55.1473 71.8718C56.0023 71.8718 56.5423 72.4268 56.5423 73.2818C56.5423 74.0918 56.0623 74.6918 55.1323 74.6918C54.2023 74.6918 53.6923 74.0768 53.6923 73.2818C53.6923 72.4418 54.2773 71.8718 55.1473 71.8718ZM55.2823 80.1218C54.3073 80.1218 53.3473 79.8818 53.3473 79.1168C53.3473 79.0868 53.3473 79.0418 53.3623 78.9818L54.1123 78.2468C54.3673 78.2918 54.6223 78.3368 54.8623 78.3668C55.9873 78.5318 57.0073 78.6218 57.0073 79.2968C57.0073 79.8818 56.2273 80.1218 55.2823 80.1218ZM60.1217 69.2768H61.7717V67.6568H60.1217V69.2768ZM60.1817 78.1118H61.7267V70.7168H60.1817V78.1118ZM67.6792 76.7768C67.3492 76.8818 67.0492 76.9418 66.7942 76.9418C66.2092 76.9418 65.8642 76.6418 65.8642 76.0118V71.9618H67.6792V70.7168H65.8642V67.9718L64.3192 69.1268V70.7168H63.1042V71.9618H64.3192V76.1468C64.3192 77.6318 65.2492 78.2468 66.4192 78.2468C66.8242 78.2468 67.2592 78.1718 67.6942 78.0368L67.6792 76.7768ZM72.1849 70.5818C70.8649 70.5818 69.8149 71.0918 68.9599 72.1418L70.0849 73.0868C70.6399 72.3218 71.3599 71.9318 72.1699 71.9318C73.1449 71.9318 73.7299 72.5018 73.7299 73.4618V73.7168H72.0049C70.9549 73.7168 70.2649 73.8368 69.7549 74.0918C69.0949 74.4218 68.7349 75.0518 68.7349 75.8918C68.7349 77.3018 69.7849 78.2468 71.3599 78.2468C72.4099 78.2468 73.2649 77.8118 73.7449 77.0618L73.8649 78.1118H75.2749V73.4618C75.2749 71.6618 74.1049 70.5818 72.1849 70.5818ZM71.6449 76.9418C70.8049 76.9418 70.2799 76.5518 70.2799 75.9218C70.2799 75.6068 70.3849 75.3518 70.6099 75.2018C70.8949 74.9768 71.3299 74.9018 72.1849 74.9018H73.7299V74.9318C73.7299 76.1018 72.8449 76.9418 71.6449 76.9418ZM78.939 78.2468C79.284 78.2468 79.674 78.1718 80.049 78.0368V76.7768C79.824 76.8518 79.614 76.8818 79.434 76.8818C79.044 76.8818 78.849 76.6868 78.849 76.2968V67.6568H77.304V76.4018C77.304 77.6618 77.979 78.2468 78.939 78.2468ZM36.5994 98.2918C38.7444 98.2918 40.1394 97.0618 40.1394 95.1718C40.1394 93.7018 39.4344 92.8918 37.1694 92.0218C35.5644 91.4068 34.9944 90.9718 34.9944 90.1918C34.9944 89.4718 35.6244 88.8868 36.4944 88.8868C37.2594 88.8868 37.9344 89.3218 38.3244 90.1168L39.6594 89.2918C39.0144 88.0768 37.9194 87.4618 36.5394 87.4618C34.6494 87.4618 33.3894 88.5718 33.3894 90.2368C33.3894 91.7068 34.1544 92.4868 36.3144 93.3118C37.9644 93.9568 38.5344 94.4518 38.5344 95.3068C38.5344 96.2518 37.8294 96.8668 36.6294 96.8668C35.3394 96.8668 34.4544 96.1018 34.3044 94.8268L32.6994 95.2168C32.9994 97.0768 34.5594 98.2918 36.5994 98.2918ZM48.2705 94.2268C48.2705 92.2918 47.2205 90.5818 44.9255 90.5818C42.5705 90.5818 41.4905 92.4718 41.4905 94.4518C41.4905 96.4768 42.6005 98.2468 45.0455 98.2468C46.2605 98.2468 47.1905 97.8568 48.0305 96.9418L46.9505 96.0118C46.3955 96.6418 45.7805 96.8518 45.0605 96.8518C43.8005 96.8518 43.0955 96.0868 43.0355 94.9018H48.2255C48.2555 94.6768 48.2705 94.4518 48.2705 94.2268ZM43.0355 93.6568C43.1405 92.7418 43.7405 91.8718 44.9255 91.8718C46.0205 91.8718 46.7555 92.5768 46.7855 93.6268V93.6568H43.0355ZM53.8121 90.5818C52.8521 90.5818 52.0121 90.9268 51.5021 91.6318V90.7168H49.9571V98.1118H51.5021V95.0368C51.5021 93.4618 51.7721 91.9318 53.3621 91.9318C54.6371 91.9318 54.8021 92.9368 54.8021 93.8068V98.1118H56.3471V93.4168C56.3471 91.6018 55.4471 90.5818 53.8121 90.5818ZM60.7921 98.2468C62.2021 98.2468 63.5971 97.4968 63.5971 95.8468C63.5971 93.1168 59.5921 93.9268 59.5921 92.5918C59.5921 92.1418 60.0271 91.8268 60.7171 91.8268C61.5721 91.8268 62.0371 92.2918 62.3221 92.8168L63.5221 92.1568C62.9821 91.1368 62.0221 90.5818 60.7771 90.5818C59.3221 90.5818 58.1221 91.3318 58.1221 92.7118C58.1221 95.4118 62.0821 94.4518 62.0821 95.9368C62.0821 96.4618 61.6171 96.9418 60.7321 96.9418C59.6821 96.9418 59.1871 96.2818 58.9621 95.6668L57.7171 96.2218C58.0771 97.3768 59.2621 98.2468 60.7921 98.2468ZM68.2647 98.2468C70.4847 98.2468 71.9097 96.5218 71.9097 94.4068C71.9097 92.2768 70.4847 90.5818 68.2647 90.5818C66.0297 90.5818 64.6047 92.2768 64.6047 94.4068C64.6047 96.5218 66.0297 98.2468 68.2647 98.2468ZM68.2647 96.8968C66.8247 96.8968 66.1497 95.7718 66.1497 94.4068C66.1497 93.0418 66.8247 91.9318 68.2647 91.9318C69.6897 91.9318 70.3647 93.0418 70.3647 94.4068C70.3647 95.7568 69.7047 96.8968 68.2647 96.8968ZM77.1704 90.5818C76.3604 90.5818 75.5054 91.0018 75.1304 91.9318V90.7168H73.5704V98.1118H75.1154V94.2568C75.1154 92.7868 75.7604 92.0518 76.8704 92.0518C77.2154 92.0518 77.5004 92.1418 77.7854 92.3068L78.5354 90.9568C78.0854 90.6868 77.6504 90.5818 77.1704 90.5818ZM81.6515 98.2468C83.0615 98.2468 84.4565 97.4968 84.4565 95.8468C84.4565 93.1168 80.4515 93.9268 80.4515 92.5918C80.4515 92.1418 80.8865 91.8268 81.5765 91.8268C82.4315 91.8268 82.8965 92.2918 83.1815 92.8168L84.3815 92.1568C83.8415 91.1368 82.8815 90.5818 81.6365 90.5818C80.1815 90.5818 78.9815 91.3318 78.9815 92.7118C78.9815 95.4118 82.9415 94.4518 82.9415 95.9368C82.9415 96.4618 82.4765 96.9418 81.5915 96.9418C80.5415 96.9418 80.0465 96.2818 79.8215 95.6668L78.5765 96.2218C78.9365 97.3768 80.1215 98.2468 81.6515 98.2468Z" fill="#333333"/>
<path d="M57.8829 48.2237C58.1839 48.161 58.4724 48.1171 58.7484 48.092C59.0243 48.0607 59.2909 48.045 59.548 48.045C60.263 48.045 60.8933 48.1516 61.439 48.3649C61.9847 48.5781 62.4425 48.8729 62.8125 49.2492C63.1826 49.6255 63.4617 50.0677 63.6498 50.5757C63.838 51.0774 63.9321 51.6199 63.9321 52.2032C63.9321 52.9245 63.8035 53.583 63.5463 54.1789C63.2955 54.7747 62.9442 55.2858 62.4927 55.7123C62.0411 56.1325 61.5049 56.4587 60.8839 56.6907C60.2693 56.9228 59.5982 57.0388 58.8707 57.0388C58.4442 57.0388 58.0397 56.9949 57.6571 56.9071C57.2745 56.8193 56.9139 56.7033 56.5752 56.559C56.2428 56.4085 55.9323 56.2392 55.6438 56.051C55.3616 55.8566 55.1076 55.6527 54.8818 55.4395L55.5968 54.4517C55.7473 54.2384 55.9449 54.1318 56.1895 54.1318C56.3462 54.1318 56.5062 54.182 56.6693 54.2823C56.8323 54.3827 57.0173 54.4925 57.2243 54.6116C57.4376 54.7308 57.6853 54.8405 57.9675 54.9409C58.256 55.0412 58.601 55.0914 59.0024 55.0914C59.4289 55.0914 59.8052 55.0224 60.1313 54.8844C60.4575 54.7465 60.7271 54.5552 60.9404 54.3106C61.1599 54.0597 61.323 53.7649 61.4296 53.4262C61.5425 53.0813 61.5989 52.7081 61.5989 52.3067C61.5989 51.5666 61.3826 50.9896 60.9498 50.5757C60.5233 50.1555 59.8899 49.9454 59.0494 49.9454C58.4034 49.9454 57.7417 50.0645 57.0644 50.3029L55.6156 49.8889L56.7445 43.2846H63.4617V44.2725C63.4617 44.6049 63.3582 44.8746 63.1512 45.0815C62.9442 45.2885 62.593 45.392 62.0975 45.392H58.3627L57.8829 48.2237Z" fill="#979797"/>
</svg>
