<svg width="120" height="120" viewBox="0 0 120 120" fill="none" xmlns="http://www.w3.org/2000/svg">
<rect x="0.479989" y="0.479989" width="119.04" height="119.04" rx="59.52" fill="white" stroke="#00E676" stroke-width="0.959978"/>
<path d="M108.062 55.4362C106.069 55.4362 104.437 57.0682 104.437 59.0608C104.437 61.0535 106.069 62.6855 108.062 62.6855C110.055 62.6855 111.687 61.0535 111.687 59.0608C111.687 57.0682 110.055 55.4362 108.062 55.4362ZM108.062 61.7794C106.566 61.7794 105.343 60.5565 105.343 59.0608C105.343 57.5652 106.566 56.3423 108.062 56.3423C109.558 56.3423 110.781 57.5652 110.781 59.0608C110.781 60.5565 109.558 61.7794 108.062 61.7794Z" fill="#03A9F4"/>
<path d="M108.062 52.7178C104.549 52.7178 101.719 55.5482 101.719 59.061C101.719 62.5737 104.549 65.4042 108.062 65.4042C111.574 65.4042 114.405 62.5737 114.405 59.061C114.405 55.5482 111.574 52.7178 108.062 52.7178ZM108.062 64.498C105.046 64.498 102.625 62.0767 102.625 59.061C102.625 56.0452 105.046 53.6239 108.062 53.6239C111.077 53.6239 113.499 56.0452 113.499 59.061C113.499 62.0767 111.077 64.498 108.062 64.498Z" fill="#4FC3F7"/>
<path d="M108.062 49.9994C103.079 49.9994 99.0001 54.0781 99.0001 59.0611C99.0001 64.0441 103.079 68.1228 108.062 68.1228C113.045 68.1228 117.124 64.0441 117.124 59.0611C117.124 54.0781 113.045 49.9994 108.062 49.9994ZM108.062 67.2166C103.576 67.2166 99.9063 63.5471 99.9063 59.0611C99.9063 54.5751 103.576 50.9056 108.062 50.9056C112.548 50.9056 116.217 54.5751 116.217 59.0611C116.217 63.5471 112.548 67.2166 108.062 67.2166Z" fill="#B3E5FC"/>
<path d="M108.968 59.0607C108.968 59.5609 108.562 59.9669 108.062 59.9669C107.562 59.9669 107.156 59.5609 107.156 59.0607C107.156 58.5605 107.562 58.1545 108.062 58.1545C108.562 58.1545 108.968 58.5605 108.968 59.0607Z" fill="#03A9F4"/>
<path d="M116.217 59.5129H110.78L108.515 61.7784V67.2154C108.515 67.7147 108.922 68.1216 109.421 68.1216H116.217C116.717 68.1216 117.124 67.7147 117.124 67.2154V60.4191C117.124 59.9198 116.717 59.5129 116.217 59.5129Z" fill="#009688"/>
<path d="M114.404 65.8578H111.233C110.96 65.8578 110.78 65.6775 110.78 65.4047V62.2331C110.78 61.9604 110.96 61.78 111.233 61.78H114.404C114.677 61.78 114.858 61.9604 114.858 62.2331V65.4047C114.858 65.6775 114.677 65.8578 114.404 65.8578Z" fill="#A5D6A7"/>
<path d="M35.5691 29.04V38.0185C35.5691 39.1408 34.6509 40.0591 33.5285 40.0591H24.55C23.4277 40.0591 22.5095 39.1408 22.5095 38.0185V29.04C22.5095 27.9177 23.4277 26.9994 24.55 26.9994H33.5285C34.6509 26.9994 35.5691 27.9177 35.5691 29.04Z" fill="white"/>
<path d="M30.1522 31.7019C29.7849 31.7019 29.4584 31.8652 29.2543 32.1304C29.0503 31.8652 28.7238 31.7019 28.3565 31.7019C27.7239 31.7019 27.2137 32.212 27.2137 32.8446C27.2137 33.4772 27.5606 34.0282 27.8871 34.3546C28.1524 34.6199 28.5401 35.0076 29.2543 35.3545C29.9685 35.0076 30.3562 34.6199 30.6215 34.3546C30.948 34.0282 31.2949 33.4772 31.2949 32.8446C31.2949 32.212 30.7847 31.7019 30.1522 31.7019Z" fill="#F3797B"/>
<path d="M18.0201 30.6731V36.3867C18.0201 36.9172 18.4078 37.3458 18.9384 37.407L20.8769 37.611C21.5299 37.6723 22.1217 38.0192 22.5094 38.5293V28.5305C22.1217 29.0611 21.5299 29.3875 20.8769 29.4488L18.918 29.6528C18.4078 29.714 18.0201 30.1426 18.0201 30.6731Z" fill="#53C5CE"/>
<path d="M22.5098 28.5305C22.1221 29.0611 21.5303 29.3875 20.8773 29.4488L18.9184 29.6528C18.4082 29.714 18.0001 30.1426 18.0001 30.6731V36.3867C18.0001 36.9172 18.3878 37.3458 18.9184 37.407L20.8773 37.611C21.5303 37.6723 22.1221 38.0192 22.5098 38.5293" stroke="#454B54" stroke-width="1.115" stroke-miterlimit="10" stroke-linecap="round" stroke-linejoin="round"/>
<path d="M40.0588 30.6731V36.3867C40.0588 36.9172 39.6711 37.3458 39.1405 37.407L37.1816 37.611C36.5286 37.6723 35.9368 38.0192 35.5491 38.5293V28.5305C35.9368 29.0611 36.5286 29.3875 37.1816 29.4488L39.1405 29.6528C39.6711 29.714 40.0588 30.1426 40.0588 30.6731Z" fill="#22B6C6"/>
<path d="M38.4263 37.4664L39.1405 37.3848C39.6506 37.3236 40.0587 36.8951 40.0587 36.3645V30.6509C40.0587 30.1204 39.671 29.6919 39.1405 29.6306L38.4263 29.549V37.4664Z" fill="#1FA1A8"/>
<path d="M40.0588 30.6731V36.3867C40.0588 36.9172 39.6711 37.3458 39.1405 37.407L37.1816 37.611C36.5286 37.6723 35.9368 38.0192 35.5491 38.5293V28.5305C35.9368 29.0611 36.5286 29.3875 37.1816 29.4488L39.1405 29.6528C39.6711 29.714 40.0588 30.1426 40.0588 30.6731Z" stroke="#454B54" stroke-width="1.115" stroke-miterlimit="10" stroke-linecap="round" stroke-linejoin="round"/>
<path d="M35.5691 29.04V38.0185C35.5691 39.1408 34.6509 40.0591 33.5285 40.0591H24.55C23.4277 40.0591 22.5095 39.1408 22.5095 38.0185V29.04C22.5095 27.9177 23.4277 26.9994 24.55 26.9994H33.5285C34.6509 26.9994 35.5691 27.9177 35.5691 29.04Z" stroke="#454B54" stroke-width="1.115" stroke-miterlimit="10" stroke-linecap="round" stroke-linejoin="round"/>
<path d="M15.9999 64.5013H13.9999V68.0013H15.9999V64.5013Z" fill="#90CAF9"/>
<path d="M21.5001 47.9994C21.5001 47.9994 18.5001 46.9994 15.0001 46.9994C11.5001 46.9994 8.50012 47.9994 8.50012 47.9994C8.50012 47.9994 7.00012 48.4999 7.00012 49.4994V50.4994V59.9994V61.9994C7.00012 61.9994 7.00012 65.4994 10.5001 65.4994C14.0001 65.4994 16.0001 65.4994 19.5001 65.4994C23.0001 65.4994 23.0001 61.9994 23.0001 61.9994V59.9994V50.4994V49.4994C23.0001 48.4999 21.5001 47.9994 21.5001 47.9994Z" fill="#1565C0"/>
<path d="M15.4999 64.0004H14.4999C13.6714 64.0004 12.9999 64.6724 12.9999 65.5004H16.9999C16.9999 64.6724 16.3284 64.0004 15.4999 64.0004Z" fill="#0D47A1"/>
<path d="M21.0001 49.9998H9.00006V58.4998H21.0001V49.9998Z" fill="white"/>
<path d="M12.9999 55.2496C12.9999 54.1451 14.9999 51.2496 14.9999 51.2496C14.9999 51.2496 16.9999 54.1451 16.9999 55.2496C16.9999 56.3541 16.1049 57.2496 14.9999 57.2496C13.8949 57.2496 12.9999 56.3541 12.9999 55.2496Z" fill="#F44336"/>
<path d="M14.5001 62.5002C14.5001 62.7767 14.2766 63.0002 14.0001 63.0002H9.50006C9.22356 63.0002 9.00006 62.7767 9.00006 62.5002V60.5002C9.00006 60.2237 9.22356 60.0002 9.50006 60.0002H14.0001C14.2766 60.0002 14.5001 60.2237 14.5001 60.5002V62.5002Z" fill="#90CAF9"/>
<path d="M20.9999 62.4989C20.9999 62.7754 20.7764 62.9989 20.4999 62.9989H15.9999C15.7234 62.9989 15.4999 62.7754 15.4999 62.4989V60.4989C15.4999 60.2224 15.7234 59.9989 15.9999 59.9989H20.4999C20.7764 59.9989 20.9999 60.2224 20.9999 60.4989V62.4989Z" fill="#90CAF9"/>
<path d="M97.6001 41.5994H83.7335C82.7775 41.5994 82.0001 40.822 82.0001 39.8661V27.7327C82.0001 26.7768 82.7775 25.9994 83.7335 25.9994H97.6001C98.5561 25.9994 99.3335 26.7768 99.3335 27.7327V39.8661C99.3335 40.822 98.5561 41.5994 97.6001 41.5994Z" fill="#455A64"/>
<path d="M87.6325 37.2671H85.8992V40.7338H87.6325V37.2671Z" fill="#FDD835"/>
<path d="M90.233 37.2668H88.4996V40.7335H90.233V37.2668Z" fill="#FDD835"/>
<path d="M92.8325 37.2668H91.0991V40.7335H92.8325V37.2668Z" fill="#FDD835"/>
<path d="M95.4325 37.2668H93.6992V40.7335H95.4325V37.2668Z" fill="#FDD835"/>
<path d="M86.7662 40.3003C87.0055 40.3003 87.1995 40.1063 87.1995 39.8669C87.1995 39.6276 87.0055 39.4336 86.7662 39.4336C86.5268 39.4336 86.3328 39.6276 86.3328 39.8669C86.3328 40.1063 86.5268 40.3003 86.7662 40.3003Z" fill="#FFB300"/>
<path d="M89.366 40.2992C89.6053 40.2992 89.7993 40.1052 89.7993 39.8658C89.7993 39.6265 89.6053 39.4325 89.366 39.4325C89.1267 39.4325 88.9327 39.6265 88.9327 39.8658C88.9327 40.1052 89.1267 40.2992 89.366 40.2992Z" fill="#FFB300"/>
<path d="M91.966 40.2992C92.2054 40.2992 92.3994 40.1052 92.3994 39.8658C92.3994 39.6265 92.2054 39.4325 91.966 39.4325C91.7267 39.4325 91.5327 39.6265 91.5327 39.8658C91.5327 40.1052 91.7267 40.2992 91.966 40.2992Z" fill="#FFB300"/>
<path d="M94.5655 40.2992C94.8048 40.2992 94.9988 40.1052 94.9988 39.8658C94.9988 39.6265 94.8048 39.4325 94.5655 39.4325C94.3262 39.4325 94.1321 39.6265 94.1321 39.8658C94.1321 40.1052 94.3262 40.2992 94.5655 40.2992Z" fill="#FFB300"/>
<path d="M97.8825 32.6398C98.2391 32.4587 98.4666 32.096 98.4666 31.696V27.7336C98.4666 27.2548 98.0788 26.8669 97.6 26.8669H90.6666H83.7333C83.2545 26.8669 82.8666 27.2548 82.8666 27.7336V31.696C82.8666 32.0964 83.0941 32.4587 83.4508 32.6398C83.8746 32.8547 84.1666 33.295 84.1666 33.8003C84.1666 34.3055 83.8746 34.7458 83.4508 34.9607C83.0941 35.1419 82.8666 35.5046 82.8666 35.9045V39.8669C82.8666 40.3458 83.2545 40.7336 83.7333 40.7336H84.6V38.5669C84.6 38.0903 84.99 37.7003 85.4666 37.7003H90.6666H95.8666C96.3433 37.7003 96.7333 38.0903 96.7333 38.5669V40.7336H97.6C98.0788 40.7336 98.4666 40.3458 98.4666 39.8669V35.9045C98.4666 35.5041 98.2391 35.1419 97.8825 34.9607C97.4587 34.7458 97.1666 34.3055 97.1666 33.8003C97.1666 33.295 97.4587 32.8547 97.8825 32.6398Z" fill="#ECEFF1"/>
<path d="M96.2994 28.6002H84.5994V31.6336H96.2994V28.6002Z" fill="#64DD17"/>
<path d="M94.1334 35.9664C95.0907 35.9664 95.8668 35.1904 95.8668 34.2331C95.8668 33.2758 95.0907 32.4998 94.1334 32.4998C93.1761 32.4998 92.4001 33.2758 92.4001 34.2331C92.4001 35.1904 93.1761 35.9664 94.1334 35.9664Z" fill="#37474F"/>
<path d="M89.3661 33.8005C89.6055 33.8005 89.7995 33.6065 89.7995 33.3672C89.7995 33.1278 89.6055 32.9338 89.3661 32.9338C89.1268 32.9338 88.9328 33.1278 88.9328 33.3672C88.9328 33.6065 89.1268 33.8005 89.3661 33.8005Z" fill="#FF1744"/>
<path d="M91.1 33.8005C91.3393 33.8005 91.5334 33.6065 91.5334 33.3672C91.5334 33.1278 91.3393 32.9338 91.1 32.9338C90.8607 32.9338 90.6667 33.1278 90.6667 33.3672C90.6667 33.6065 90.8607 33.8005 91.1 33.8005Z" fill="#FF1744"/>
<path d="M87.6328 33.8005C87.8721 33.8005 88.0661 33.6065 88.0661 33.3672C88.0661 33.1278 87.8721 32.9338 87.6328 32.9338C87.3935 32.9338 87.1995 33.1278 87.1995 33.3672C87.1995 33.6065 87.3935 33.8005 87.6328 33.8005Z" fill="#8BC34A"/>
<path d="M82.8664 33.3679C83.1056 33.3679 83.2997 33.5621 83.2997 33.8013C83.2997 34.0405 83.1056 34.2346 82.8664 34.2346C82.6272 34.2346 82.433 34.0405 82.433 33.8013C82.433 33.5621 82.6272 33.3679 82.8664 33.3679ZM98.033 33.8013C98.033 34.0405 98.2272 34.2346 98.4664 34.2346C98.7056 34.2346 98.8997 34.0405 98.8997 33.8013C98.8997 33.5621 98.7056 33.3679 98.4664 33.3679C98.2272 33.3679 98.033 33.5621 98.033 33.8013Z" fill="#90A4AE"/>
<path d="M86.3328 29.4683H85.4661V30.7683H86.3328V29.4683Z" fill="#689F38"/>
<path d="M88.0666 29.4675H87.2V30.7675H88.0666V29.4675Z" fill="#689F38"/>
<path d="M89.8004 29.4675H88.9338V30.7675H89.8004V29.4675Z" fill="#689F38"/>
<path d="M51.0001 9.86496C51.0001 8.8347 51.8354 7.99939 52.8657 7.99939H65.9247C66.9549 7.99939 67.7902 8.8347 67.7902 9.86496V22.9239C67.7902 23.9542 66.9549 24.7895 65.9247 24.7895H52.8657C51.8354 24.7895 51.0001 23.9542 51.0001 22.9239V9.86496Z" fill="#26A69A"/>
<path d="M63.1921 19.6594L66.3916 15.7268C62.3489 12.2648 56.4425 12.2638 52.3998 15.7254L55.6011 19.6594H63.1921Z" fill="#EEEEEE"/>
<path d="M59.3945 13.1305C61.8818 13.1305 64.3695 13.9962 66.3913 15.7274L63.1919 19.66H55.6009L52.3996 15.726C54.4204 13.9957 56.9072 13.1305 59.3945 13.1305ZM59.3945 12.1978C56.6162 12.1978 53.9167 13.1991 51.7932 15.0176L51.1021 15.6094L51.6762 16.3151L54.8775 20.2491L55.1573 20.5928H55.6009H63.1919H63.6354L63.9157 20.2491L67.1152 16.3165L67.6888 15.6108L66.9981 15.019C64.8737 13.1996 62.1733 12.1978 59.3945 12.1978Z" fill="#00796B"/>
<path d="M59.7723 13.1471C59.7629 13.1471 59.7536 13.1461 59.7443 13.1461C59.457 13.1368 59.1697 13.1401 58.8824 13.1531C58.8647 13.1541 58.8474 13.1545 58.8301 13.1555V14.9921H59.7723V13.1471Z" fill="#90A4AE"/>
<path d="M54.4337 16.3578L55.2504 15.8923L54.3801 14.3887C54.1045 14.5347 53.8344 14.6937 53.5695 14.8653L54.4337 16.3578Z" fill="#90A4AE"/>
<path d="M56.5235 15.3773L57.433 15.1343L56.9671 13.4189C56.662 13.4898 56.3594 13.5747 56.0599 13.6731L56.5235 15.3773Z" fill="#90A4AE"/>
<path d="M61.6404 13.3792L61.1614 15.1622L62.0718 15.4024L62.5522 13.6175C62.2505 13.5247 61.9473 13.4454 61.6404 13.3792Z" fill="#90A4AE"/>
<path d="M65.0843 14.7777C64.8171 14.6102 64.5447 14.4563 64.2667 14.3141L63.3484 15.9101L64.1669 16.3718L65.0843 14.7777Z" fill="#90A4AE"/>
<path d="M60.8204 19.6607L61.728 15.3871L59.1619 19.6607H60.8204Z" fill="#263238"/>
<path d="M41.9449 49.548V50.7H43.8649V50.856C43.8649 52.248 42.9169 52.932 41.5369 52.932C39.7129 52.932 38.7409 51.72 38.7409 49.776C38.7409 47.868 39.7009 46.692 41.4529 46.692C42.6649 46.692 43.4929 47.256 43.8889 48.324L45.0649 47.868C44.4769 46.332 43.1929 45.468 41.4649 45.468C38.9329 45.468 37.4569 47.316 37.4569 49.8C37.4569 52.404 39.0889 54.156 41.4529 54.156C42.6049 54.156 43.5409 53.748 44.0209 53.016L44.1889 54H45.1249V49.548H41.9449ZM48.1583 54.108C48.4343 54.108 48.7463 54.048 49.0463 53.94V52.932C48.8663 52.992 48.6983 53.016 48.5543 53.016C48.2423 53.016 48.0863 52.86 48.0863 52.548V45.636H46.8503V52.632C46.8503 53.64 47.3903 54.108 48.1583 54.108ZM53.9119 48.084V50.484C53.9119 51.708 53.7199 53.028 52.4359 53.028C51.3319 53.028 51.2719 52.044 51.2719 51.444V48.084H50.0359V51.756C50.0359 53.088 50.6479 54.108 52.0879 54.108C52.8079 54.108 53.4919 53.844 53.9119 53.256V54H55.1479V48.084H53.9119ZM59.257 54.108C60.397 54.108 61.297 53.496 61.693 52.392L60.565 51.96C60.385 52.62 59.881 53.028 59.257 53.028C58.153 53.028 57.721 52.092 57.721 51.06C57.721 50.028 58.165 49.056 59.245 49.056C59.893 49.056 60.385 49.476 60.577 50.136L61.753 49.68C61.297 48.528 60.385 47.976 59.245 47.976C57.361 47.976 56.461 49.5 56.461 51.06C56.461 52.644 57.397 54.108 59.257 54.108ZM65.2947 54.108C67.0707 54.108 68.2107 52.728 68.2107 51.036C68.2107 49.332 67.0707 47.976 65.2947 47.976C63.5067 47.976 62.3667 49.332 62.3667 51.036C62.3667 52.728 63.5067 54.108 65.2947 54.108ZM65.2947 53.028C64.1427 53.028 63.6027 52.128 63.6027 51.036C63.6027 49.944 64.1427 49.056 65.2947 49.056C66.4347 49.056 66.9747 49.944 66.9747 51.036C66.9747 52.116 66.4467 53.028 65.2947 53.028ZM71.3752 54.108C72.5032 54.108 73.6192 53.508 73.6192 52.188C73.6192 50.004 70.4152 50.652 70.4152 49.584C70.4152 49.224 70.7632 48.972 71.3152 48.972C71.9992 48.972 72.3712 49.344 72.5992 49.764L73.5592 49.236C73.1272 48.42 72.3592 47.976 71.3632 47.976C70.1992 47.976 69.2392 48.576 69.2392 49.68C69.2392 51.84 72.4072 51.072 72.4072 52.26C72.4072 52.68 72.0352 53.064 71.3272 53.064C70.4872 53.064 70.0912 52.536 69.9112 52.044L68.9152 52.488C69.2032 53.412 70.1512 54.108 71.3752 54.108ZM79.8853 50.892C79.8853 49.344 79.0453 47.976 77.2093 47.976C75.3253 47.976 74.4613 49.488 74.4613 51.072C74.4613 52.692 75.3493 54.108 77.3053 54.108C78.2773 54.108 79.0213 53.796 79.6933 53.064L78.8293 52.32C78.3853 52.824 77.8933 52.992 77.3173 52.992C76.3093 52.992 75.7453 52.38 75.6973 51.432H79.8493C79.8733 51.252 79.8853 51.072 79.8853 50.892ZM75.6973 50.436C75.7813 49.704 76.2613 49.008 77.2093 49.008C78.0853 49.008 78.6733 49.572 78.6973 50.412V50.436H75.6973ZM81.1625 55.812H81.9785L83.5145 52.44H82.0505L81.1625 55.812ZM30.0351 70H33.1671C34.8711 70 35.8671 69.112 35.8671 67.588C35.8671 66.52 35.3751 65.812 34.4511 65.512C35.0751 65.188 35.4351 64.552 35.4351 63.736C35.4351 62.416 34.4631 61.636 32.8311 61.636H30.0351V70ZM31.3191 65.068V62.824H32.8311C33.6711 62.824 34.1511 63.232 34.1511 63.964C34.1511 64.672 33.6951 65.068 32.8911 65.068H31.3191ZM31.3191 68.812V66.232H33.1431C34.0671 66.232 34.5831 66.688 34.5831 67.48C34.5831 68.32 34.0191 68.812 33.0591 68.812H31.3191ZM37.6171 70H38.8891V66.472H40.2331C42.0571 66.472 43.0531 65.608 43.0531 64.024C43.0531 62.464 42.0691 61.636 40.2331 61.636H37.6171V70ZM38.8891 65.284V62.824H40.1011C41.2531 62.824 41.7571 63.196 41.7571 64.048C41.7571 64.888 41.2411 65.284 40.1011 65.284H38.8891ZM44.2778 71.812H45.0938L46.6298 68.44H45.1658L44.2778 71.812ZM53.0055 70H54.2655L56.1855 64.144L58.1055 70H59.3655L61.8495 61.636H60.5055L58.6695 68.044L56.7375 62.104H55.6335L53.7135 68.044L51.8655 61.636H50.5215L53.0055 70ZM67.5162 66.892C67.5162 65.344 66.6762 63.976 64.8402 63.976C62.9562 63.976 62.0922 65.488 62.0922 67.072C62.0922 68.692 62.9802 70.108 64.9362 70.108C65.9082 70.108 66.6522 69.796 67.3242 69.064L66.4602 68.32C66.0162 68.824 65.5242 68.992 64.9482 68.992C63.9402 68.992 63.3762 68.38 63.3282 67.432H67.4802C67.5042 67.252 67.5162 67.072 67.5162 66.892ZM63.3282 66.436C63.4122 65.704 63.8922 65.008 64.8402 65.008C65.7162 65.008 66.3042 65.572 66.3282 66.412V66.436H63.3282ZM68.8174 62.932H70.1374V61.636H68.8174V62.932ZM68.8654 70H70.1014V64.084H68.8654V70ZM74.1434 69.16C73.3634 69.052 72.7154 68.92 72.7154 68.44C72.7154 68.26 72.7994 68.128 72.9554 68.032C73.3034 68.188 73.6874 68.284 74.1194 68.284C75.4034 68.284 76.4594 67.456 76.4594 66.172C76.4594 65.776 76.3634 65.416 76.1834 65.104L77.0234 64.42L76.3754 63.628L75.4994 64.384C75.1034 64.12 74.6114 63.976 74.0834 63.976C72.7754 63.976 71.7194 64.852 71.7194 66.1C71.7194 66.616 71.8994 67.084 72.2114 67.456C71.8274 67.744 71.6234 68.116 71.6234 68.62C71.6234 69.232 71.9234 69.592 72.3554 69.82L71.4674 70.444C71.4554 70.504 71.4434 70.564 71.4434 70.708C71.4434 71.908 72.4394 72.556 74.1674 72.556C75.7274 72.556 76.8314 72.04 76.8314 70.84C76.8314 69.472 75.3314 69.328 74.1434 69.16ZM74.1074 65.008C74.7914 65.008 75.2234 65.452 75.2234 66.136C75.2234 66.784 74.8394 67.264 74.0954 67.264C73.3514 67.264 72.9434 66.772 72.9434 66.136C72.9434 65.464 73.4114 65.008 74.1074 65.008ZM74.2154 71.608C73.4354 71.608 72.6674 71.416 72.6674 70.804C72.6674 70.78 72.6674 70.744 72.6794 70.696L73.2794 70.108C73.4834 70.144 73.6874 70.18 73.8794 70.204C74.7794 70.336 75.5954 70.408 75.5954 70.948C75.5954 71.416 74.9714 71.608 74.2154 71.608ZM81.2189 63.976C80.4149 63.976 79.7669 64.276 79.3829 64.816V61.636H78.1469V70H79.3829V67.516C79.3829 65.836 79.8509 65.056 80.8589 65.056C81.6509 65.056 82.0229 65.524 82.0229 66.556V70H83.2589V66.244C83.2589 64.78 82.5389 63.976 81.2189 63.976ZM87.8947 68.932C87.6307 69.016 87.3907 69.064 87.1867 69.064C86.7187 69.064 86.4427 68.824 86.4427 68.32V65.08H87.8947V64.084H86.4427V61.888L85.2067 62.812V64.084H84.2347V65.08H85.2067V68.428C85.2067 69.616 85.9507 70.108 86.8867 70.108C87.2107 70.108 87.5587 70.048 87.9067 69.94L87.8947 68.932ZM89.1723 71.812H89.9883L91.5243 68.44H90.0603L89.1723 71.812ZM28.1039 86L24.9239 80.756L27.9959 77.636H26.3039L22.2839 81.848V77.636H20.9999V86H22.2839V83.456L24.0479 81.656L26.6159 86H28.1039ZM33.6958 82.892C33.6958 81.344 32.8558 79.976 31.0198 79.976C29.1358 79.976 28.2718 81.488 28.2718 83.072C28.2718 84.692 29.1598 86.108 31.1158 86.108C32.0878 86.108 32.8318 85.796 33.5038 85.064L32.6398 84.32C32.1958 84.824 31.7038 84.992 31.1278 84.992C30.1198 84.992 29.5558 84.38 29.5078 83.432H33.6598C33.6838 83.252 33.6958 83.072 33.6958 82.892ZM29.5078 82.436C29.5918 81.704 30.0718 81.008 31.0198 81.008C31.8958 81.008 32.4838 81.572 32.5078 82.412V82.436H29.5078ZM37.9611 84.932C37.6971 85.016 37.4571 85.064 37.2531 85.064C36.7851 85.064 36.5091 84.824 36.5091 84.32V81.08H37.9611V80.084H36.5091V77.888L35.2731 78.812V80.084H34.3011V81.08H35.2731V84.428C35.2731 85.616 36.0171 86.108 36.9531 86.108C37.2771 86.108 37.6251 86.048 37.9731 85.94L37.9611 84.932ZM41.6756 86.108C43.4516 86.108 44.5916 84.728 44.5916 83.036C44.5916 81.332 43.4516 79.976 41.6756 79.976C39.8876 79.976 38.7476 81.332 38.7476 83.036C38.7476 84.728 39.8876 86.108 41.6756 86.108ZM41.6756 85.028C40.5236 85.028 39.9836 84.128 39.9836 83.036C39.9836 81.944 40.5236 81.056 41.6756 81.056C42.8156 81.056 43.3556 81.944 43.3556 83.036C43.3556 84.116 42.8276 85.028 41.6756 85.028ZM49.0041 79.976C48.2361 79.976 47.5641 80.252 47.1561 80.816V80.084H45.9201V86H47.1561V83.54C47.1561 82.28 47.3721 81.056 48.6441 81.056C49.6641 81.056 49.7961 81.86 49.7961 82.556V86H51.0321V82.244C51.0321 80.792 50.3121 79.976 49.0041 79.976ZM57.6841 82.892C57.6841 81.344 56.8441 79.976 55.0081 79.976C53.1241 79.976 52.2601 81.488 52.2601 83.072C52.2601 84.692 53.1481 86.108 55.1041 86.108C56.0761 86.108 56.8201 85.796 57.4921 85.064L56.6281 84.32C56.1841 84.824 55.6921 84.992 55.1161 84.992C54.1081 84.992 53.5441 84.38 53.4961 83.432H57.6481C57.6721 83.252 57.6841 83.072 57.6841 82.892ZM53.4961 82.436C53.5801 81.704 54.0601 81.008 55.0081 81.008C55.8841 81.008 56.4721 81.572 56.4961 82.412V82.436H53.4961ZM68.4521 85.652L67.2161 84.26C67.6121 83.624 67.8521 82.856 67.9001 82.028L66.7001 81.896C66.6881 82.4 66.5801 82.892 66.4001 83.324L64.9841 81.728C65.8601 81.176 66.6161 80.528 66.6161 79.484C66.6161 78.392 65.6441 77.54 64.4561 77.54C63.3161 77.54 62.1881 78.296 62.1881 79.496C62.1881 80.384 62.8601 81.128 63.2201 81.5C62.2121 82.076 61.2401 82.772 61.2401 84.056C61.2401 85.376 62.4041 86.12 63.9281 86.12C64.9241 86.12 65.8001 85.76 66.4721 85.16L67.5761 86.42L68.4521 85.652ZM63.3881 79.52C63.3881 78.884 63.8801 78.512 64.4681 78.512C65.1041 78.512 65.4761 78.968 65.4761 79.508C65.4761 80.132 64.9121 80.552 64.1921 80.972C63.9161 80.648 63.3881 80.024 63.3881 79.52ZM63.8921 85.064C63.0281 85.064 62.4401 84.728 62.4401 84.08C62.4401 83.3 63.1601 82.796 64.0001 82.304L65.7401 84.308C65.2721 84.776 64.6481 85.064 63.8921 85.064ZM74.9605 86.144C76.6765 86.144 77.7925 85.16 77.7925 83.648C77.7925 82.472 77.2285 81.824 75.4165 81.128C74.1325 80.636 73.6765 80.288 73.6765 79.664C73.6765 79.088 74.1805 78.62 74.8765 78.62C75.4885 78.62 76.0285 78.968 76.3405 79.604L77.4085 78.944C76.8925 77.972 76.0165 77.48 74.9125 77.48C73.4005 77.48 72.3925 78.368 72.3925 79.7C72.3925 80.876 73.0045 81.5 74.7325 82.16C76.0525 82.676 76.5085 83.072 76.5085 83.756C76.5085 84.512 75.9445 85.004 74.9845 85.004C73.9525 85.004 73.2445 84.392 73.1245 83.372L71.8405 83.684C72.0805 85.172 73.3285 86.144 74.9605 86.144ZM82.0822 84.932C81.8182 85.016 81.5782 85.064 81.3742 85.064C80.9062 85.064 80.6302 84.824 80.6302 84.32V81.08H82.0822V80.084H80.6302V77.888L79.3942 78.812V80.084H78.4222V81.08H79.3942V84.428C79.3942 85.616 80.1382 86.108 81.0742 86.108C81.3982 86.108 81.7462 86.048 82.0942 85.94L82.0822 84.932ZM88.3287 82.892C88.3287 81.344 87.4887 79.976 85.6527 79.976C83.7687 79.976 82.9047 81.488 82.9047 83.072C82.9047 84.692 83.7927 86.108 85.7487 86.108C86.7207 86.108 87.4647 85.796 88.1367 85.064L87.2727 84.32C86.8287 84.824 86.3367 84.992 85.7607 84.992C84.7527 84.992 84.1887 84.38 84.1407 83.432H88.2927C88.3167 83.252 88.3287 83.072 88.3287 82.892ZM84.1407 82.436C84.2247 81.704 84.7047 81.008 85.6527 81.008C86.5287 81.008 87.1167 81.572 87.1407 82.412V82.436H84.1407ZM92.7139 79.964C92.0179 79.964 91.3339 80.204 90.9259 80.744V80.084H89.6899V88.448H90.9259V85.328C91.2979 85.808 91.9699 86.108 92.7139 86.108C94.2499 86.108 95.2459 84.92 95.2459 83.048C95.2459 81.248 94.3339 79.964 92.7139 79.964ZM92.4259 85.028C91.3219 85.028 90.8059 84.176 90.8059 83.036C90.8059 81.86 91.3459 81.056 92.4379 81.056C93.4819 81.056 94.0099 81.788 94.0099 83.036C94.0099 84.248 93.4939 85.028 92.4259 85.028ZM98.4748 86.108C99.6028 86.108 100.719 85.508 100.719 84.188C100.719 82.004 97.5148 82.652 97.5148 81.584C97.5148 81.224 97.8628 80.972 98.4148 80.972C99.0988 80.972 99.4708 81.344 99.6988 81.764L100.659 81.236C100.227 80.42 99.4588 79.976 98.4628 79.976C97.2988 79.976 96.3388 80.576 96.3388 81.68C96.3388 83.84 99.5068 83.072 99.5068 84.26C99.5068 84.68 99.1348 85.064 98.4268 85.064C97.5868 85.064 97.1908 84.536 97.0108 84.044L96.0148 84.488C96.3028 85.412 97.2508 86.108 98.4748 86.108ZM42.8745 102.144C44.5905 102.144 45.7065 101.16 45.7065 99.648C45.7065 98.472 45.1425 97.824 43.3305 97.128C42.0465 96.636 41.5905 96.288 41.5905 95.664C41.5905 95.088 42.0945 94.62 42.7905 94.62C43.4025 94.62 43.9425 94.968 44.2545 95.604L45.3225 94.944C44.8065 93.972 43.9305 93.48 42.8265 93.48C41.3145 93.48 40.3065 94.368 40.3065 95.7C40.3065 96.876 40.9185 97.5 42.6465 98.16C43.9665 98.676 44.4225 99.072 44.4225 99.756C44.4225 100.512 43.8585 101.004 42.8985 101.004C41.8665 101.004 41.1585 100.392 41.0385 99.372L39.7545 99.684C39.9945 101.172 41.2425 102.144 42.8745 102.144ZM52.2115 98.892C52.2115 97.344 51.3715 95.976 49.5355 95.976C47.6515 95.976 46.7875 97.488 46.7875 99.072C46.7875 100.692 47.6755 102.108 49.6315 102.108C50.6035 102.108 51.3475 101.796 52.0195 101.064L51.1555 100.32C50.7115 100.824 50.2195 100.992 49.6435 100.992C48.6355 100.992 48.0715 100.38 48.0235 99.432H52.1755C52.1995 99.252 52.2115 99.072 52.2115 98.892ZM48.0235 98.436C48.1075 97.704 48.5875 97.008 49.5355 97.008C50.4115 97.008 50.9995 97.572 51.0235 98.412V98.436H48.0235ZM56.6447 95.976C55.8767 95.976 55.2047 96.252 54.7967 96.816V96.084H53.5607V102H54.7967V99.54C54.7967 98.28 55.0127 97.056 56.2847 97.056C57.3047 97.056 57.4367 97.86 57.4367 98.556V102H58.6727V98.244C58.6727 96.792 57.9527 95.976 56.6447 95.976ZM62.2288 102.108C63.3568 102.108 64.4728 101.508 64.4728 100.188C64.4728 98.004 61.2688 98.652 61.2688 97.584C61.2688 97.224 61.6168 96.972 62.1688 96.972C62.8528 96.972 63.2248 97.344 63.4528 97.764L64.4128 97.236C63.9808 96.42 63.2128 95.976 62.2168 95.976C61.0527 95.976 60.0928 96.576 60.0928 97.68C60.0928 99.84 63.2608 99.072 63.2608 100.26C63.2608 100.68 62.8888 101.064 62.1808 101.064C61.3408 101.064 60.9448 100.536 60.7648 100.044L59.7688 100.488C60.0568 101.412 61.0048 102.108 62.2288 102.108ZM68.2068 102.108C69.9828 102.108 71.1228 100.728 71.1228 99.036C71.1228 97.332 69.9828 95.976 68.2068 95.976C66.4188 95.976 65.2788 97.332 65.2788 99.036C65.2788 100.728 66.4188 102.108 68.2068 102.108ZM68.2068 101.028C67.0548 101.028 66.5148 100.128 66.5148 99.036C66.5148 97.944 67.0548 97.056 68.2068 97.056C69.3468 97.056 69.8868 97.944 69.8868 99.036C69.8868 100.116 69.3588 101.028 68.2068 101.028ZM75.3313 95.976C74.6833 95.976 73.9993 96.312 73.6993 97.056V96.084H72.4513V102H73.6873V98.916C73.6873 97.74 74.2033 97.152 75.0913 97.152C75.3673 97.152 75.5953 97.224 75.8233 97.356L76.4233 96.276C76.0633 96.06 75.7153 95.976 75.3313 95.976ZM78.9163 102.108C80.0443 102.108 81.1603 101.508 81.1603 100.188C81.1603 98.004 77.9563 98.652 77.9563 97.584C77.9563 97.224 78.3043 96.972 78.8563 96.972C79.5403 96.972 79.9123 97.344 80.1403 97.764L81.1003 97.236C80.6683 96.42 79.9003 95.976 78.9043 95.976C77.7402 95.976 76.7803 96.576 76.7803 97.68C76.7803 99.84 79.9483 99.072 79.9483 100.26C79.9483 100.68 79.5763 101.064 78.8683 101.064C78.0283 101.064 77.6323 100.536 77.4523 100.044L76.4563 100.488C76.7443 101.412 77.6923 102.108 78.9163 102.108Z" fill="#333333"/>
</svg>
