<svg width="16" height="12" viewBox="0 0 16 12" fill="none" xmlns="http://www.w3.org/2000/svg">
<path d="M9.66667 0.451172C9.45344 0.451172 9.23997 0.534023 9.07747 0.69694L9.00586 0.768555C8.68003 1.09439 8.68003 1.62194 9.00586 1.94694L12.2253 5.16634H1.33333C0.873333 5.16634 0.5 5.53967 0.5 5.99967C0.5 6.45967 0.873333 6.83301 1.33333 6.83301H12.2253L9.00586 10.0524C8.68003 10.3782 8.68003 10.9058 9.00586 11.2308L9.07747 11.3024C9.40331 11.6282 9.93086 11.6282 10.2559 11.3024L14.9694 6.58887C15.2952 6.26303 15.2952 5.73548 14.9694 5.41048L10.2559 0.69694C10.0929 0.534023 9.8799 0.451172 9.66667 0.451172Z" fill="white"/>
</svg>
