<svg width="32" height="32" viewBox="0 0 32 32" fill="none" xmlns="http://www.w3.org/2000/svg">
<path d="M8 1.33337V4.00004H6.66667C5.2 4.00004 4 5.20004 4 6.66671V25.3334C4 26.8 5.2 28 6.66667 28H13.5755C13.4222 27.3574 13.3333 26.6894 13.3333 26C13.3333 25.772 13.3785 25.556 13.3958 25.3334H6.66667V12H25.3333V14.7917C25.7693 14.717 26.2133 14.6667 26.6667 14.6667C27.1213 14.6667 27.5653 14.7132 28 14.7865V6.66671C28 5.20004 26.8 4.00004 25.3333 4.00004H24V1.33337H21.3333V4.00004H10.6667V1.33337H8ZM6.66667 6.66671H8H10.6667H21.3333H24H25.3333V9.33337H6.66667V6.66671ZM26.6667 17.3334C24.7028 17.3334 22.9795 18.4093 22.0547 20.0052C22.036 20.0051 22.0187 20 22 20C18.7021 20 16 22.7021 16 26C16 29.298 18.7021 32 22 32C24.6313 32 26.8586 30.269 27.6615 27.8985C30.1204 27.4273 32 25.2561 32 22.6667C32 19.7369 29.5964 17.3334 26.6667 17.3334ZM26.6667 20C28.1556 20 29.3333 21.1778 29.3333 22.6667C29.3333 23.7053 28.7531 24.5818 27.901 25.0235C27.5936 23.1776 26.438 21.6285 24.849 20.7579C25.3251 20.303 25.9477 20 26.6667 20ZM22 22.6667C23.8567 22.6667 25.3333 24.1433 25.3333 26C25.3333 27.8568 23.8567 29.3334 22 29.3334C20.1433 29.3334 18.6667 27.8568 18.6667 26C18.6667 24.1433 20.1433 22.6667 22 22.6667Z" fill="#AAAAAA"/>
</svg>
