<svg width="40" height="40" viewBox="0 0 40 40" fill="none" xmlns="http://www.w3.org/2000/svg">
<path fill-rule="evenodd" clip-rule="evenodd" d="M10.5337 14.1905C17.6215 15.1907 23.1652 12.6073 27.0258 6.47501C27.0451 6.44427 27.0628 6.41275 27.0789 6.38059C28.5646 8.05239 29.467 10.2541 29.467 12.6666V16.1333C29.467 19.6369 27.5459 22.7867 24.5677 24.4275C24.1797 24.158 23.7083 24 23.2 24C21.8745 24 20.8 25.0745 20.8 26.4C20.8 27.7254 21.8745 28.8 23.2 28.8C23.8713 28.8 24.4782 28.5244 24.9138 28.0801C24.2648 30.1189 22.3103 31.6 20 31.6C17.1618 31.6 14.8607 29.3648 14.8571 26.6063L15.616 24.5257C12.5338 22.9146 10.5337 19.7081 10.5337 16.1333V14.1905H10.5337ZM10.5525 12.0658C10.8624 7.11742 14.9739 3.19995 20.0004 3.19995C22.1189 3.19995 24.0749 3.89585 25.6522 5.07152C25.6038 5.12137 25.5592 5.17785 25.5196 5.24077C22.0452 10.7598 17.1343 13.0258 10.6455 12.0741C10.6143 12.0695 10.5833 12.0668 10.5525 12.0658H10.5525ZM12.881 27.6535C13.4036 31.0197 16.3919 33.6 20 33.6C23.6088 33.6 26.5976 31.0186 27.1193 27.6514L30.9556 28.425C32.4795 28.7223 33.6937 29.8745 34.0702 31.3808L35.1765 35.8059C35.3027 36.3108 34.9208 36.8 34.4004 36.8H5.60038C5.07992 36.8 4.69804 36.3108 4.82427 35.8059L5.92911 31.3865C6.3066 29.8766 7.52568 28.7227 9.04639 28.4302L12.881 27.6535V27.6535Z" fill="#36B37E"/>
<path opacity="0.3" fill-rule="evenodd" clip-rule="evenodd" d="M23.2 27.2C23.6418 27.2 24 26.8418 24 26.4C24 25.9581 23.6418 25.6 23.2 25.6C22.7582 25.6 22.4 25.9581 22.4 26.4C22.4 26.8418 22.7582 27.2 23.2 27.2Z" fill="#36B37E"/>
<path opacity="0.3" fill-rule="evenodd" clip-rule="evenodd" d="M30.9707 11.2H31.2C32.5255 11.2 33.6 12.2745 33.6 13.6V16.8C33.6 18.1254 32.5255 19.2 31.2 19.2H30.6347C30.9176 18.2182 31.0671 17.1877 31.0671 16.1333V12.6666C31.0671 12.1694 31.0343 11.6798 30.9707 11.2Z" fill="#36B37E"/>
<path opacity="0.3" fill-rule="evenodd" clip-rule="evenodd" d="M9.36609 19.2H8.79999C7.47451 19.2 6.39999 18.1254 6.39999 16.8V13.6C6.39999 12.2745 7.47451 11.2 8.79999 11.2H9.03005C8.96651 11.6798 8.93372 12.1694 8.93372 12.6666V16.1333C8.93372 17.1877 9.08316 18.2182 9.36609 19.2V19.2Z" fill="#36B37E"/>
</svg>
