<svg width="36" height="36" viewBox="0 0 36 36" fill="none" xmlns="http://www.w3.org/2000/svg">
<path d="M13.5792 16.6815L18.5503 21.9272C19.0892 22.4959 20.0653 22.5771 21.1527 22.0412C23.9202 20.8939 24.841 20.6142 25.3666 21.1688L31.0809 27.1988C31.7564 27.9116 31.5761 29.0988 30.8208 29.8959C26.8986 34.0347 20.5237 34.0347 16.6015 29.8959L5.92689 18.6317C2.02437 14.5136 2.02437 7.85135 5.92689 3.73328C6.69817 2.9194 7.88262 2.71914 8.58355 3.45878L14.2979 9.48871C14.7931 10.0114 14.5276 10.9848 13.4462 13.8853C12.9435 15.0175 13.0241 16.0958 13.5792 16.6815Z" fill="#36B37E"/>
</svg>
