<svg width="34" height="34" viewBox="0 0 34 34" fill="none" xmlns="http://www.w3.org/2000/svg">
<g opacity="0.2">
<rect x="1" y="1" width="32" height="32" rx="16" fill="#333333" stroke="#333333" stroke-width="1.14286"/>
</g>
<path d="M27 16.0799V16.9999C26.9988 19.1563 26.3005 21.2545 25.0093 22.9817C23.7182 24.7088 21.9033 25.9723 19.8354 26.5838C17.7674 27.1952 15.5573 27.1218 13.5345 26.3744C11.5117 25.6271 9.78465 24.246 8.61096 22.4369C7.43727 20.6279 6.87979 18.4879 7.02168 16.3362C7.16356 14.1844 7.99721 12.1362 9.39828 10.4969C10.7994 8.85768 12.6928 7.71525 14.7962 7.24001C16.8996 6.76477 19.1003 6.9822 21.07 7.85986" stroke="white" stroke-width="2" stroke-linecap="round" stroke-linejoin="round"/>
<path d="M27 9L17 19.01L14 16.01" stroke="white" stroke-width="2" stroke-linecap="round" stroke-linejoin="round"/>
</svg>
