<svg width="48" height="48" viewBox="0 0 48 48" fill="none" xmlns="http://www.w3.org/2000/svg">
<path fill-rule="evenodd" clip-rule="evenodd" d="M13.7911 18.8425C16.3143 15.2568 17.8894 11.1422 18.5212 6.48405C18.5814 6.04032 18.8955 5.67134 19.3267 5.53792C23.672 4.19315 26.1425 6.33008 26.1017 11.2027C26.0937 12.1486 26.0501 12.9893 25.9572 14.2751C25.7496 17.1471 25.7661 17.9309 26.0877 18.4583C26.3968 18.9653 27.4002 19.1384 29.7735 18.6878C30.5224 18.5456 31.2736 18.3844 32.1057 18.1909C32.473 18.1054 35.1186 17.4599 35.7949 17.3138C37.085 17.0353 38.0106 16.9174 38.8245 16.9673C41.0295 17.1026 42.1996 18.5222 42.4018 21.2422C42.7578 26.0322 41.6576 35.6536 40.56 39.1976C39.4385 42.819 37.4825 44.186 32.7873 44.2685C29.7686 44.3216 25.1258 44.3216 18.8372 44.2684C17.2318 44.2311 15.777 43.9202 14.483 43.339C14.8462 42.5869 15.0496 41.7444 15.0496 40.8548V22.4228C15.0496 21.0697 14.579 19.8256 13.7911 18.8425Z" fill="#1565D8"/>
<path opacity="0.3" fill-rule="evenodd" clip-rule="evenodd" d="M6.91487 18.9668C4.98944 18.9668 3.42856 20.5141 3.42856 22.4228V40.8548C3.42856 42.7635 4.98944 44.3108 6.91487 44.3108H9.23908C11.1645 44.3108 12.7254 42.7635 12.7254 40.8548V22.4228C12.7254 20.5141 11.1645 18.9668 9.23908 18.9668H6.91487Z" fill="#1565D8"/>
</svg>
