<svg width="24" height="24" viewBox="0 0 24 24" fill="none" xmlns="http://www.w3.org/2000/svg">
<path d="M12 1C8.686 1 6 3.686 6 7C6 10.323 9.60656 15.1059 11.2266 17.0879C11.6276 17.5779 12.3705 17.5779 12.7715 17.0879C14.3925 15.1059 18 10.323 18 7C18 3.686 15.314 1 12 1ZM12 4.85742C13.184 4.85742 14.1426 5.816 14.1426 7C14.1426 8.183 13.183 9.14258 12 9.14258C10.817 9.14258 9.85742 8.184 9.85742 7C9.85742 5.816 10.816 4.85742 12 4.85742ZM6.99414 15.5645C6.91724 15.5647 6.83839 15.5744 6.75977 15.5938C3.90477 16.2987 2 17.56 2 19C2 21.209 6.477 23 12 23C17.523 23 22 21.209 22 19C22 17.56 20.0952 16.2997 17.2402 15.5957C16.6112 15.4407 16 15.9262 16 16.5742C16 17.0282 16.3022 17.434 16.7422 17.543C18.5472 17.991 19.6442 18.612 19.9492 18.998C19.4342 19.653 16.694 20.998 12 20.998C7.306 20.998 4.56578 19.653 4.05078 18.998C4.35478 18.611 5.45281 17.991 7.25781 17.543C7.69781 17.435 8 17.0282 8 16.5742C8 16.0063 7.53247 15.5625 6.99414 15.5645Z" fill="#AAAAAA"/>
</svg>
