<svg width="44" height="44" viewBox="0 0 44 44" fill="none" xmlns="http://www.w3.org/2000/svg">
<path d="M23.2782 41.6734C23.8475 38.16 23.7732 33.3601 22.7831 27.9417C21.9168 21.6573 15.9513 15.8677 8.15404 14.7295C-0.831335 13.3193 0.257802 10.7709 3.32719 7.38123" stroke="url(#paint0_linear)" stroke-width="0.559005" stroke-miterlimit="10" stroke-linecap="round" stroke-linejoin="round"/>
<path d="M23.105 41.9952C22.8822 40.4365 23.006 38.3334 22.9317 36.1561C22.8574 33.9789 22.6347 31.5047 22.1396 28.9068C21.2733 22.8698 15.8771 17.1297 8.15412 15.8679C7.11448 15.6947 6.19862 15.4967 5.38176 15.3235C0.975711 14.2349 0.431145 12.6762 1.84207 10.3504C2.11436 9.80611 2.4609 9.31127 2.8322 8.91541" stroke="url(#paint1_linear)" stroke-width="0.559005" stroke-miterlimit="10" stroke-linecap="round" stroke-linejoin="round"/>
<path d="M22.9313 42.3409C22.1887 41.0049 22.2877 38.9018 22.2382 36.9472C22.1639 34.8936 21.9659 32.4689 21.4956 29.8958C20.6292 24.1062 15.8271 18.4156 8.15368 17.0053C7.18831 16.8321 6.29719 16.6342 5.48033 16.461C1.51984 15.4961 0.455457 14.2342 1.56935 11.9085C1.76737 11.29 2.06441 10.7704 2.36145 10.4487" stroke="url(#paint2_linear)" stroke-width="0.559005" stroke-miterlimit="10" stroke-linecap="round" stroke-linejoin="round"/>
<path d="M22.7585 42.663C21.4961 41.5496 21.5951 39.4465 21.5456 37.6899C21.4713 35.76 21.3228 33.3848 20.8525 30.8611C19.9614 25.2942 15.7534 19.6778 8.15415 18.1191C7.23829 17.9459 6.37193 17.748 5.55508 17.5995C2.04014 16.783 0.455926 15.7686 1.27278 13.4429C1.39654 12.7501 1.64408 12.2058 1.86686 11.9584" stroke="url(#paint3_linear)" stroke-width="0.559005" stroke-miterlimit="10" stroke-linecap="round" stroke-linejoin="round"/>
<path d="M22.585 42.9848C20.8028 42.1188 20.9018 39.991 20.8523 38.457C20.7781 36.6261 20.6543 34.3252 20.2087 31.851C19.3176 26.5315 15.6789 20.9646 8.15398 19.2574C7.31237 19.0595 6.47076 18.8863 5.6539 18.7378C2.60927 18.0698 0.48051 17.3275 1.00033 14.9771C1.04983 14.2101 1.2231 13.641 1.37162 13.4926" stroke="url(#paint4_linear)" stroke-width="0.559005" stroke-miterlimit="10" stroke-linecap="round" stroke-linejoin="round"/>
<path d="M22.4116 43.3314C20.1096 42.6881 20.2086 40.585 20.1591 39.2242C20.0848 37.517 20.0105 35.2408 19.565 32.8408C18.6739 27.7688 15.6045 22.2513 8.15381 20.3957C7.36171 20.1978 6.5696 20.0246 5.72799 19.9009C3.12891 19.3566 0.480333 18.9112 0.703111 16.536C0.678358 15.6948 0.802127 15.101 0.876386 15.0267" stroke="url(#paint5_linear)" stroke-width="0.559005" stroke-miterlimit="10" stroke-linecap="round" stroke-linejoin="round"/>
<path d="M22.2384 43.6526C19.4166 43.232 19.4908 41.129 19.4661 39.9661C19.268 34.7951 19.1195 23.0427 5.82711 21.0139C3.69835 20.618 0.505204 20.4201 0.430945 18.0449C0.331933 17.1294 0.406183 16.5109 0.406183 16.5109" stroke="url(#paint6_linear)" stroke-width="0.559005" stroke-miterlimit="10" stroke-linecap="round" stroke-linejoin="round"/>
<path d="M21.2732 11.8842C21.2732 11.8842 21.2732 19.7521 21.3969 26.2592C21.5702 35.9332 21.6692 41.8713 20.2831 43.1083C20.2831 43.1083 21.1989 43.9743 23.0801 43.9991C24.6643 44.0238 26.2238 43.6774 27.2634 42.2176C28.5258 40.461 29.1447 35.9332 29.1447 27.4963C29.1447 18.0944 29.0456 15.3975 29.4664 11.6615L21.2732 11.8842Z" fill="url(#paint7_linear)"/>
<path d="M21.9909 11.5872C22.2632 9.85524 22.684 8.22228 23.2781 7.08415C25.2831 3.17495 30.0109 1.41828 32.1892 0.750249C34.8378 -0.0909725 41.3974 -0.857969 42.3875 2.18527L40.9766 6.14396C40.9766 5.25326 40.7785 4.3873 40.036 3.84298C38.9468 3.05124 36.6695 3.17495 35.4319 3.39762C33.8477 3.69452 32.0902 4.48626 30.8278 6.02025C30.2337 6.73777 29.7387 8.7666 29.3674 11.7356L21.9909 11.5872Z" fill="#F05A22"/>
<path d="M0.430868 19.1085C0.430868 19.1085 0.158575 18.6632 0.158575 17.7972C0.109069 16.758 0.0595623 15.4467 0.0348092 14.7787C-0.0889563 11.9086 0.0100652 9.11282 2.16358 7.23244C5.60427 4.26342 10.2826 4.38713 14.5401 4.60981C21.7433 4.95619 29.1445 6.24277 36.3476 5.35206C37.7585 5.17887 40.1843 4.95619 41.3972 3.74384C42.3874 2.75417 42.3379 2.0614 42.3379 2.0614C42.3379 2.0614 42.3626 2.13563 42.3874 2.18511C43.229 4.38713 43.9468 7.05925 42.1151 9.95404C40.9764 11.7354 38.9714 12.7746 36.9417 13.3189C30.4564 15.0509 24.2681 14.556 17.6095 14.2344C13.9213 14.0612 10.3321 13.5911 6.66865 14.0364C5.18347 14.2344 3.69828 14.6302 2.46063 15.4715C1.22297 16.3374 0.505127 17.624 0.430868 19.1085Z" fill="url(#paint8_linear)"/>
<defs>
<linearGradient id="paint0_linear" x1="0.850515" y1="24.525" x2="23.8721" y2="24.525" gradientUnits="userSpaceOnUse">
<stop offset="0.00261739" stop-color="#00A551"/>
<stop offset="0.1804" stop-color="#03A650"/>
<stop offset="0.327" stop-color="#0DA84F"/>
<stop offset="0.4626" stop-color="#1FAD4C"/>
<stop offset="0.5917" stop-color="#37B347"/>
<stop offset="0.716" stop-color="#56BB42"/>
<stop offset="0.8368" stop-color="#7DC53B"/>
<stop offset="0.9526" stop-color="#A9D134"/>
<stop offset="1" stop-color="#BED630"/>
</linearGradient>
<linearGradient id="paint1_linear" x1="0.903137" y1="25.4527" x2="23.3413" y2="25.4527" gradientUnits="userSpaceOnUse">
<stop offset="0.00261739" stop-color="#00A551"/>
<stop offset="0.1804" stop-color="#03A650"/>
<stop offset="0.327" stop-color="#0DA84F"/>
<stop offset="0.4626" stop-color="#1FAD4C"/>
<stop offset="0.5917" stop-color="#37B347"/>
<stop offset="0.716" stop-color="#56BB42"/>
<stop offset="0.8368" stop-color="#7DC53B"/>
<stop offset="0.9526" stop-color="#A9D134"/>
<stop offset="1" stop-color="#BED630"/>
</linearGradient>
<linearGradient id="paint2_linear" x1="0.89366" y1="26.3796" x2="23.1687" y2="26.3796" gradientUnits="userSpaceOnUse">
<stop offset="0.00261739" stop-color="#00A551"/>
<stop offset="0.1804" stop-color="#03A650"/>
<stop offset="0.327" stop-color="#0DA84F"/>
<stop offset="0.4626" stop-color="#1FAD4C"/>
<stop offset="0.5917" stop-color="#37B347"/>
<stop offset="0.716" stop-color="#56BB42"/>
<stop offset="0.8368" stop-color="#7DC53B"/>
<stop offset="0.9526" stop-color="#A9D134"/>
<stop offset="1" stop-color="#BED630"/>
</linearGradient>
<linearGradient id="paint3_linear" x1="0.812891" y1="27.3076" x2="22.997" y2="27.3076" gradientUnits="userSpaceOnUse">
<stop offset="0.00261739" stop-color="#00A551"/>
<stop offset="0.1804" stop-color="#03A650"/>
<stop offset="0.327" stop-color="#0DA84F"/>
<stop offset="0.4626" stop-color="#1FAD4C"/>
<stop offset="0.5917" stop-color="#37B347"/>
<stop offset="0.716" stop-color="#56BB42"/>
<stop offset="0.8368" stop-color="#7DC53B"/>
<stop offset="0.9526" stop-color="#A9D134"/>
<stop offset="1" stop-color="#BED630"/>
</linearGradient>
<linearGradient id="paint4_linear" x1="0.657297" y1="28.2354" x2="22.8247" y2="28.2354" gradientUnits="userSpaceOnUse">
<stop offset="0.00261739" stop-color="#00A551"/>
<stop offset="0.1804" stop-color="#03A650"/>
<stop offset="0.327" stop-color="#0DA84F"/>
<stop offset="0.4626" stop-color="#1FAD4C"/>
<stop offset="0.5917" stop-color="#37B347"/>
<stop offset="0.716" stop-color="#56BB42"/>
<stop offset="0.8368" stop-color="#7DC53B"/>
<stop offset="0.9526" stop-color="#A9D134"/>
<stop offset="1" stop-color="#BED630"/>
</linearGradient>
<linearGradient id="paint5_linear" x1="0.43553" y1="29.1631" x2="22.6523" y2="29.1631" gradientUnits="userSpaceOnUse">
<stop offset="0.00261739" stop-color="#00A551"/>
<stop offset="0.1804" stop-color="#03A650"/>
<stop offset="0.327" stop-color="#0DA84F"/>
<stop offset="0.4626" stop-color="#1FAD4C"/>
<stop offset="0.5917" stop-color="#37B347"/>
<stop offset="0.716" stop-color="#56BB42"/>
<stop offset="0.8368" stop-color="#7DC53B"/>
<stop offset="0.9526" stop-color="#A9D134"/>
<stop offset="1" stop-color="#BED630"/>
</linearGradient>
<linearGradient id="paint6_linear" x1="0.112345" y1="30.0903" x2="22.4803" y2="30.0903" gradientUnits="userSpaceOnUse">
<stop offset="0.00261739" stop-color="#00A551"/>
<stop offset="0.1804" stop-color="#03A650"/>
<stop offset="0.327" stop-color="#0DA84F"/>
<stop offset="0.4626" stop-color="#1FAD4C"/>
<stop offset="0.5917" stop-color="#37B347"/>
<stop offset="0.716" stop-color="#56BB42"/>
<stop offset="0.8368" stop-color="#7DC53B"/>
<stop offset="0.9526" stop-color="#A9D134"/>
<stop offset="1" stop-color="#BED630"/>
</linearGradient>
<linearGradient id="paint7_linear" x1="17.471" y1="16.3789" x2="36.5189" y2="44.7159" gradientUnits="userSpaceOnUse">
<stop offset="0.0292317" stop-color="#EB008B"/>
<stop offset="0.2516" stop-color="#EE315F"/>
<stop offset="0.5895" stop-color="#F37920"/>
</linearGradient>
<linearGradient id="paint8_linear" x1="-29.6712" y1="41.5595" x2="34.4656" y2="1.06637" gradientUnits="userSpaceOnUse">
<stop offset="0.563" stop-color="#EB008B"/>
<stop offset="0.6424" stop-color="#EE2570"/>
<stop offset="0.8225" stop-color="#F47335"/>
<stop offset="0.9053" stop-color="#F6921E"/>
</linearGradient>
</defs>
</svg>
