<svg width="24" height="24" viewBox="0 0 24 24" fill="none" xmlns="http://www.w3.org/2000/svg">
<path d="M5.00195 2C4.44895 2 4.00195 2.44895 4.00195 3.00195L4.00391 6.38281C4.00391 6.76181 4.21764 7.10834 4.55664 7.27734L11.5566 10.7773C11.6959 10.8465 11.847 10.8819 11.998 10.8828C12 10.8828 12.002 10.8828 12.0039 10.8828C12.1569 10.8828 12.3082 10.8483 12.4492 10.7773L19.4492 7.27734C19.7882 7.10834 20.0039 6.76181 20.0039 6.38281L20.002 3C20.001 2.447 19.554 2 19.002 2H5.00195ZM11.998 10.8828C11.81 10.8828 11.6219 10.9798 11.5234 11.1738L9.94727 14.2559L6.46289 14.7422C6.01889 14.8042 5.84292 15.3532 6.16992 15.6602L8.67773 18.0176L8.08203 21.3711C8.00503 21.8051 8.45661 22.1404 8.84961 21.9414L11.998 20.3438L15.1465 21.9414C15.5395 22.1404 15.9911 21.8051 15.9141 21.3711L15.3184 18.0176L17.8262 15.6602C18.1522 15.3532 17.9772 14.8042 17.5332 14.7422L14.0488 14.2559L12.4727 11.1738C12.3732 10.9798 12.186 10.8828 11.998 10.8828ZM10 4H14V7.76562L12.0039 8.76367L10 7.76172V4Z" fill="#AAAAAA"/>
</svg>
