<svg width="21" height="21" viewBox="0 0 21 21" fill="none" xmlns="http://www.w3.org/2000/svg">
<path d="M10.5 12.25C9.53487 12.25 8.75 11.4647 8.75 10.5C8.75 9.53531 9.53487 8.75 10.5 8.75C11.4651 8.75 12.25 9.53531 12.25 10.5C12.25 11.4647 11.4651 12.25 10.5 12.25Z" fill="#37B347"/>
<path d="M13.8421 14.6782L12.5287 13.5218L13.1066 12.8652C13.6828 12.2107 14 11.3707 14 10.4996C14 9.62241 13.6819 8.78022 13.1049 8.12879L12.5247 7.47385L13.8346 6.3136L14.4148 6.96854C15.2758 7.94022 15.75 9.19454 15.75 10.4996C15.75 11.7968 15.2775 13.0472 14.42 14.0215L13.8421 14.6782Z" fill="#56BC42"/>
<path d="M7.1995 14.6925L6.61369 14.0428C5.73431 13.0659 5.25 11.8011 5.25 10.4798C5.25 9.18569 5.71988 7.93706 6.573 6.96494L7.15006 6.30737L8.46519 7.4615L7.88813 8.1195C7.31544 8.77225 7 9.6105 7 10.4798C7 11.3675 7.32463 12.2171 7.91394 12.8712L8.49931 13.5213L7.1995 14.6925Z" fill="#56BC42"/>
<path d="M16.3481 17.2166L15.0447 16.0489L15.6284 15.397C16.835 14.05 17.5 12.3109 17.5 10.5001C17.5 8.6884 16.8385 6.95109 15.638 5.60621L15.0552 4.9539L16.3607 3.78796L16.9435 4.44071C18.431 6.10628 19.25 8.25834 19.25 10.5001C19.25 12.7423 18.4271 14.8961 16.9321 16.5647L16.3481 17.2166Z" fill="#A9D134"/>
<path d="M4.64888 17.2135L4.06525 16.5617C2.57206 14.8948 1.75 12.7397 1.75 10.4922C1.75 8.25617 2.569 6.10673 4.05606 4.43986L4.63881 3.78711L5.94431 4.95261L5.36156 5.60536C4.16106 6.95111 3.5 8.68623 3.5 10.4922C3.5 12.3074 4.16369 14.0487 5.36856 15.394L5.95219 16.0454L4.64888 17.2135Z" fill="#A9D134"/>
</svg>
