<svg width="18" height="17" viewBox="0 0 18 17" fill="none" xmlns="http://www.w3.org/2000/svg">
<path d="M8.02441 0.597656C8.15898 0.332031 8.35522 0.154948 8.61313 0.0664064C8.87104 -0.0221355 9.12896 -0.0221355 9.38687 0.0664064C9.64478 0.154948 9.84102 0.332031 9.97559 0.597656L12.1622 4.98047L17.0738 5.67773C17.3654 5.722 17.5953 5.85482 17.7635 6.07617C17.9317 6.29753 18.0102 6.54102 17.9989 6.80664C17.9877 7.07227 17.8812 7.30469 17.6794 7.50391L14.1134 10.9238L14.9544 15.7715C14.9993 16.0371 14.9488 16.2861 14.8031 16.5186C14.6573 16.751 14.4498 16.9004 14.1807 16.9668C13.9116 17.0332 13.6537 17 13.407 16.8672L9 14.6094L4.59304 16.8672C4.34634 17 4.08842 17.0332 3.8193 16.9668C3.55017 16.9004 3.34272 16.751 3.19694 16.5186C3.05116 16.2861 3.0007 16.0371 3.04556 15.7715L3.88658 10.9238L0.32064 7.50391C0.118795 7.30469 0.0122647 7.07227 0.00105125 6.80664C-0.0101622 6.54102 0.0683331 6.29753 0.236538 6.07617C0.404742 5.85482 0.634622 5.722 0.926177 5.67773L5.83775 4.98047L8.02441 0.597656Z" fill="#FF8B00"/>
</svg>
