<svg width="128" height="32" viewBox="0 0 128 32" fill="none" xmlns="http://www.w3.org/2000/svg">
<path fill-rule="evenodd" clip-rule="evenodd" d="M33.5867 11.2865H46.5145V13.7297H41.4243V27.5027H38.6343V13.7297H33.5654L33.5867 11.2865ZM45.9607 15.7622H48.3461V18.0324H48.3887C48.4739 17.7081 48.623 17.4054 48.8359 17.1027C49.0489 16.8 49.3045 16.5189 49.624 16.2811C49.9221 16.0216 50.2629 15.827 50.6463 15.6757C51.0083 15.5243 51.3917 15.4379 51.775 15.4379C51.9617 15.4379 52.1149 15.4463 52.2296 15.4527C52.2981 15.4564 52.3529 15.4595 52.3927 15.4595C52.4992 15.4811 52.627 15.5027 52.7335 15.5027V17.9892C52.5631 17.946 52.3714 17.9243 52.1797 17.9027L52.1275 17.8968C51.9566 17.8773 51.8001 17.8595 51.626 17.8595C51.2 17.8595 50.7953 17.946 50.412 18.1189C50.0286 18.2919 49.7092 18.5514 49.411 18.8757C49.1341 19.2216 48.8998 19.6324 48.7295 20.1297C48.5591 20.627 48.4739 21.2108 48.4739 21.8595V27.4379H45.9181L45.9607 15.7622ZM61.9341 27.5027H64.4473H64.4686V15.7622H61.9128V22.573C61.9128 23.027 61.8702 23.4595 61.7637 23.8487C61.6572 24.2379 61.5082 24.5838 61.2739 24.8649C61.0609 25.146 60.7627 25.3622 60.4007 25.5351C60.0386 25.7081 59.5914 25.7946 59.0589 25.7946C58.3561 25.7946 57.8023 25.5784 57.419 25.146C57.0143 24.7351 56.8226 24 56.8226 22.9622V15.7622H54.2669V23.2216C54.2669 24.7568 54.6077 25.9243 55.2892 26.6811C55.9707 27.4595 57.0782 27.827 58.5904 27.827C59.2293 27.827 59.8682 27.6541 60.4859 27.2865C61.1035 26.9189 61.5721 26.4649 61.8915 25.8595H61.9341V27.5027ZM68.792 23.7406C68.8772 24.4973 69.1541 25.0162 69.6439 25.3406C70.1338 25.6433 70.7301 25.7946 71.4117 25.7946C71.6459 25.7946 71.9228 25.773 72.221 25.7297C72.5191 25.6865 72.8173 25.6216 73.0729 25.5135C73.3498 25.4054 73.5627 25.2541 73.7331 25.0379C73.9035 24.8216 73.9887 24.5622 73.9674 24.2379C73.9461 23.9135 73.8396 23.6324 73.6053 23.4162C73.3711 23.2 73.0942 23.0487 72.7534 22.8973C72.4127 22.7676 72.008 22.6595 71.5607 22.573C71.1969 22.5026 70.8331 22.418 70.4577 22.3306L70.4577 22.3306C70.3717 22.3106 70.285 22.2904 70.1977 22.2703C69.7291 22.1622 69.2606 22.0324 68.8133 21.8811C68.3661 21.7297 67.9827 21.5351 67.6206 21.2541C67.2799 20.9946 66.9817 20.6703 66.79 20.2595C66.577 19.8487 66.4706 19.373 66.4706 18.7676C66.4706 18.1189 66.6196 17.6 66.9391 17.1676C67.2373 16.7351 67.6419 16.3892 68.1105 16.1297C68.579 15.8703 69.1115 15.6757 69.6865 15.5676C70.2616 15.4595 70.8153 15.4162 71.3265 15.4162C71.9228 15.4162 72.4978 15.4811 73.0303 15.6108C73.5627 15.7406 74.0739 15.9351 74.4998 16.2379C74.9471 16.5189 75.3092 16.9081 75.586 17.3622C75.8842 17.8162 76.0546 18.3784 76.1398 19.027H73.4775C73.3498 18.4 73.0729 17.9892 72.6469 17.773C72.1997 17.5568 71.7098 17.4487 71.1348 17.4487C70.9644 17.4487 70.7302 17.4703 70.4959 17.4919L70.4958 17.4919C70.2403 17.5351 70.0273 17.5784 69.793 17.6649C69.58 17.7514 69.3884 17.8811 69.2393 18.0324C69.0902 18.1838 69.005 18.4 69.005 18.6595C69.005 18.9838 69.1115 19.2216 69.3245 19.4162C69.5374 19.6108 69.8143 19.7622 70.1764 19.9135C70.5171 20.0433 70.9218 20.1514 71.3691 20.2379C71.8163 20.3243 72.2849 20.4324 72.7534 20.5406C73.222 20.6487 73.6692 20.7784 74.1165 20.9297C74.5637 21.0811 74.9684 21.2757 75.3092 21.5568C75.6499 21.8162 75.9481 22.1406 76.1611 22.5297C76.3741 22.9189 76.4805 23.4162 76.4805 23.9784C76.4805 24.6703 76.3315 25.2541 76.012 25.7514C75.6925 26.227 75.2879 26.6379 74.798 26.9406C74.3082 27.2433 73.7331 27.4595 73.1368 27.6108C72.5191 27.7406 71.9228 27.827 71.3265 27.827C70.6023 27.827 69.9208 27.7406 69.3032 27.5676C68.6855 27.3946 68.1318 27.1351 67.6845 26.8108C67.2373 26.4649 66.8752 26.0541 66.6196 25.5351C66.3641 25.0379 66.215 24.4324 66.1937 23.7189H68.7707V23.7406H68.792ZM79.1428 15.7622H77.2047V17.6865H79.1428V24.6054C79.1641 25.0811 79.2067 25.5351 79.2919 25.9027C79.377 26.2703 79.5261 26.573 79.7604 26.8324C79.9947 27.0703 80.3142 27.2649 80.7188 27.3946C81.1235 27.5243 81.6559 27.5892 82.3374 27.5892C82.6356 27.5892 82.8912 27.5892 83.1681 27.546C83.4449 27.5243 83.7218 27.5027 83.9987 27.4595V25.4487C83.8452 25.4876 83.6744 25.509 83.5174 25.5287L83.4662 25.5351C83.2958 25.5568 83.1042 25.5568 82.9338 25.5568C82.6356 25.5568 82.4226 25.5135 82.2523 25.4487C82.1032 25.3838 81.9754 25.2757 81.8902 25.146C81.8263 25.0162 81.7624 24.8433 81.7411 24.6487C81.7198 24.4324 81.6985 24.2162 81.6985 23.9351V17.6649H83.9987V15.7406H81.6985V12.2162H79.1428V15.7622ZM85.809 15.7622H88.1944V17.3622H88.2369C88.599 16.6703 89.0889 16.1946 89.7278 15.8919C90.3667 15.5892 91.0483 15.4379 91.815 15.4379C92.7308 15.4379 93.5188 15.5892 94.2003 15.9351C94.8819 16.2595 95.4356 16.6919 95.8829 17.2757C96.3301 17.8379 96.6709 18.5081 96.8839 19.2649C97.0968 20.0216 97.2246 20.8433 97.2246 21.6865C97.2246 22.4865 97.1181 23.2433 96.9265 23.9784C96.7135 24.7135 96.4153 25.3838 96.0107 25.946C95.606 26.5081 95.0949 26.9622 94.4559 27.3081C93.817 27.6541 93.0929 27.827 92.2409 27.827C91.8789 27.827 91.4955 27.7838 91.1335 27.7189C90.7714 27.6541 90.4093 27.546 90.0686 27.3946C89.7278 27.2433 89.4083 27.0487 89.1315 26.8108C88.8333 26.573 88.599 26.2919 88.4073 25.9892H88.3647V31.8487H85.809V15.7622ZM94.4985 20.1081C94.6476 20.6054 94.7115 21.1243 94.7115 21.6433C94.7115 22.1622 94.6476 22.6595 94.5411 23.1784C94.4346 23.6757 94.2429 24.1081 93.9874 24.4973C93.7105 24.8649 93.391 25.1892 92.9864 25.427C92.5817 25.6649 92.1132 25.7946 91.5168 25.7946C90.9844 25.7946 90.5371 25.6865 90.1325 25.4703C89.7278 25.2541 89.387 24.973 89.1102 24.6054C88.812 24.2379 88.6203 23.8054 88.4712 23.3081C88.3221 22.8108 88.2582 22.2703 88.2582 21.6649C88.2582 20.4108 88.5351 19.3946 89.0676 18.6379C89.6213 17.8811 90.4306 17.5135 91.4955 17.5135C92.0067 17.5135 92.4752 17.6216 92.8799 17.8595C93.2632 18.0973 93.604 18.4 93.8809 18.7892C94.1577 19.1784 94.3707 19.6108 94.4985 20.1081ZM99.2053 11.2865H101.761V13.7297H99.2053V11.2865ZM101.761 15.7622H99.2053V27.5027H101.761V15.7622ZM104.04 11.2865H106.596V27.5027H104.04V11.2865ZM111.92 27.3514C112.644 27.6757 113.475 27.827 114.391 27.827C115.328 27.827 116.137 27.6541 116.861 27.3514C117.585 27.0487 118.203 26.6162 118.693 26.0757C119.183 25.5135 119.545 24.8649 119.822 24.1081C120.099 23.3514 120.226 22.5297 120.226 21.6216C120.226 20.7351 120.077 19.9135 119.822 19.1568C119.566 18.4 119.183 17.7297 118.693 17.1892C118.182 16.6487 117.585 16.2162 116.861 15.9135C116.137 15.5892 115.306 15.4379 114.391 15.4379C113.475 15.4379 112.644 15.6108 111.92 15.9135C111.196 16.2162 110.578 16.6487 110.089 17.1892C109.599 17.7514 109.215 18.4 108.96 19.1568C108.683 19.9135 108.555 20.7351 108.555 21.6216C108.555 22.5081 108.704 23.3514 108.96 24.1081C109.215 24.8649 109.599 25.5351 110.089 26.0757C110.6 26.6162 111.196 27.027 111.92 27.3514ZM114.391 25.773C114.944 25.773 115.456 25.6433 115.86 25.4054C116.286 25.1676 116.606 24.8433 116.883 24.4541C117.159 24.0649 117.351 23.6108 117.479 23.1351C117.607 22.6378 117.671 22.1406 117.671 21.6216C117.671 21.1243 117.607 20.627 117.479 20.1297C117.351 19.6324 117.159 19.2 116.883 18.8108C116.606 18.4216 116.265 18.1189 115.86 17.8811C115.434 17.6433 114.944 17.5135 114.391 17.5135C113.837 17.5135 113.326 17.6433 112.921 17.8811C112.495 18.1189 112.176 18.4433 111.899 18.8108C111.622 19.2 111.43 19.6324 111.303 20.1297C111.175 20.627 111.111 21.1243 111.111 21.6216C111.111 22.1406 111.175 22.6378 111.303 23.1351C111.43 23.6324 111.622 24.0649 111.899 24.4541C112.176 24.8433 112.516 25.1676 112.921 25.4054C113.347 25.6649 113.837 25.773 114.391 25.773ZM122.931 15.7622H120.993V17.6865H122.931V24.6054C122.952 25.0811 122.995 25.5351 123.08 25.9027C123.165 26.2703 123.314 26.573 123.549 26.8324C123.783 27.0703 124.103 27.2649 124.507 27.3946C124.912 27.5243 125.444 27.5892 126.126 27.5892C126.424 27.5892 126.68 27.5892 126.956 27.546C127.233 27.5243 127.51 27.5027 127.787 27.4595V25.4487C127.634 25.4876 127.463 25.509 127.306 25.5287C127.289 25.5309 127.271 25.533 127.255 25.5351C127.084 25.5568 126.893 25.5568 126.722 25.5568C126.424 25.5568 126.211 25.5135 126.041 25.4487C125.892 25.3838 125.764 25.2757 125.679 25.146C125.615 25.0162 125.551 24.8433 125.529 24.6487L125.529 24.6485C125.508 24.4323 125.487 24.2162 125.487 23.9351V17.6649H127.787V15.7406H125.487V12.2162H122.931V15.7622Z" fill="black"/>
<path d="M30.605 11.2865H18.9125L15.3131 0L11.6925 11.2865L0 11.2649L9.45624 18.2486L5.83561 29.5351L15.2918 22.5514L24.7481 29.5351L21.1488 18.2486L30.605 11.2865Z" fill="#00B67A"/>
<path d="M21.9581 20.8L21.1487 18.2487L15.3131 22.5514L21.9581 20.8Z" fill="#005128"/>
</svg>
