<svg width="42" height="42" viewBox="0 0 42 42" fill="none" xmlns="http://www.w3.org/2000/svg">
<rect x="5" y="5" width="32" height="32" rx="16" fill="#2F9D6E"/>
<rect x="5" y="5" width="32" height="32" rx="16" fill="url(#paint0_linear)"/>
<path fill-rule="evenodd" clip-rule="evenodd" d="M21 41C32.0457 41 41 32.0457 41 21C41 9.9543 32.0457 1 21 1C9.9543 1 1 9.9543 1 21C1 32.0457 9.9543 41 21 41Z" stroke="#2F9D6E"/>
<path d="M17 15.822V26.179C17 26.968 17.871 27.446 18.537 27.023L26.674 21.845C27.292 21.452 27.292 20.551 26.674 20.158L18.537 14.978C17.871 14.554 17 15.033 17 15.822Z" fill="white"/>
<defs>
<linearGradient id="paint0_linear" x1="4.66197" y1="21.0104" x2="37.3708" y2="21.0104" gradientUnits="userSpaceOnUse">
<stop offset="0.00261739" stop-color="#00A651"/>
<stop offset="0.18" stop-color="#03A750"/>
<stop offset="0.3263" stop-color="#0DA94F"/>
<stop offset="0.4616" stop-color="#1FAE4C"/>
<stop offset="0.5904" stop-color="#37B447"/>
<stop offset="0.7144" stop-color="#56BC42"/>
<stop offset="0.8349" stop-color="#7DC63B"/>
<stop offset="0.9505" stop-color="#A9D134"/>
<stop offset="1" stop-color="#BFD730"/>
</linearGradient>
</defs>
</svg>
